G04 #@! TF.GenerationSoftware,KiCad,Pcbnew,(5.1.2-1)-1*
G04 #@! TF.CreationDate,2019-08-31T04:18:35+09:00*
G04 #@! TF.ProjectId,Schematic,53636865-6d61-4746-9963-2e6b69636164,rev?*
G04 #@! TF.SameCoordinates,Original*
G04 #@! TF.FileFunction,Legend,Top*
G04 #@! TF.FilePolarity,Positive*
%FSLAX46Y46*%
G04 Gerber Fmt 4.6, Leading zero omitted, Abs format (unit mm)*
G04 Created by KiCad (PCBNEW (5.1.2-1)-1) date 2019-08-31 04:18:35*
%MOMM*%
%LPD*%
G04 APERTURE LIST*
%ADD10C,0.200000*%
%ADD11C,0.127000*%
%ADD12C,0.120000*%
%ADD13C,0.100000*%
%ADD14C,0.150000*%
G04 APERTURE END LIST*
D10*
X111000000Y-75500000D02*
X111400000Y-75500000D01*
X111000000Y-87400000D02*
X111000000Y-75500000D01*
X115300000Y-87400000D02*
X111000000Y-87400000D01*
X115300000Y-82700000D02*
X115300000Y-87400000D01*
X119000000Y-82700000D02*
X115300000Y-82700000D01*
X119000000Y-75500000D02*
X119000000Y-82700000D01*
X111100000Y-75500000D02*
X119000000Y-75500000D01*
D11*
X101200000Y-71250000D02*
X102500000Y-71250000D01*
X102500000Y-80950000D02*
X102500000Y-81250000D01*
X102500000Y-81250000D02*
X100600000Y-81250000D01*
X102500000Y-71250000D02*
X102500000Y-71550000D01*
D12*
X119230000Y-69900000D02*
X120500000Y-69900000D01*
X119230000Y-71170000D02*
X119230000Y-69900000D01*
X114228733Y-71210000D02*
X114571267Y-71210000D01*
X114228733Y-70190000D02*
X114571267Y-70190000D01*
D13*
X109200000Y-60150000D02*
X109200000Y-60650000D01*
X109200000Y-60150000D02*
X109700000Y-60150000D01*
X115350000Y-60150000D02*
X114900000Y-60150000D01*
X115350000Y-60150000D02*
X115350000Y-60650000D01*
X115350000Y-67950000D02*
X114850000Y-67950000D01*
X115350000Y-67950000D02*
X115350000Y-67450000D01*
X109200000Y-67950000D02*
X109700000Y-67950000D01*
X109200000Y-67950000D02*
X109200000Y-67450000D01*
D12*
X111020000Y-74360000D02*
X111020000Y-72900000D01*
X114180000Y-74360000D02*
X114180000Y-72200000D01*
X114180000Y-74360000D02*
X113250000Y-74360000D01*
X111020000Y-74360000D02*
X111950000Y-74360000D01*
X97490000Y-84828733D02*
X97490000Y-85171267D01*
X98510000Y-84828733D02*
X98510000Y-85171267D01*
X109490000Y-73328733D02*
X109490000Y-73671267D01*
X110510000Y-73328733D02*
X110510000Y-73671267D01*
X114690000Y-73328733D02*
X114690000Y-73671267D01*
X115710000Y-73328733D02*
X115710000Y-73671267D01*
X116828733Y-82010000D02*
X117171267Y-82010000D01*
X116828733Y-80990000D02*
X117171267Y-80990000D01*
X116828733Y-79510000D02*
X117171267Y-79510000D01*
X116828733Y-78490000D02*
X117171267Y-78490000D01*
X116828733Y-77010000D02*
X117171267Y-77010000D01*
X116828733Y-75990000D02*
X117171267Y-75990000D01*
X109490000Y-85328733D02*
X109490000Y-85671267D01*
X110510000Y-85328733D02*
X110510000Y-85671267D01*
X109490000Y-81328733D02*
X109490000Y-81671267D01*
X110510000Y-81328733D02*
X110510000Y-81671267D01*
X109490000Y-77328733D02*
X109490000Y-77671267D01*
X110510000Y-77328733D02*
X110510000Y-77671267D01*
X113760000Y-87080000D02*
X112300000Y-87080000D01*
X113760000Y-83920000D02*
X111600000Y-83920000D01*
X113760000Y-83920000D02*
X113760000Y-84850000D01*
X113760000Y-87080000D02*
X113760000Y-86150000D01*
X113760000Y-83080000D02*
X112300000Y-83080000D01*
X113760000Y-79920000D02*
X111600000Y-79920000D01*
X113760000Y-79920000D02*
X113760000Y-80850000D01*
X113760000Y-83080000D02*
X113760000Y-82150000D01*
X113760000Y-79080000D02*
X112300000Y-79080000D01*
X113760000Y-75920000D02*
X111600000Y-75920000D01*
X113760000Y-75920000D02*
X113760000Y-76850000D01*
X113760000Y-79080000D02*
X113760000Y-78150000D01*
X102710000Y-85261252D02*
X102710000Y-84738748D01*
X101290000Y-85261252D02*
X101290000Y-84738748D01*
X99490000Y-84828733D02*
X99490000Y-85171267D01*
X100510000Y-84828733D02*
X100510000Y-85171267D01*
X105970000Y-65035000D02*
X106035000Y-65035000D01*
X105970000Y-68565000D02*
X106035000Y-68565000D01*
X99565000Y-65035000D02*
X99630000Y-65035000D01*
X99565000Y-68565000D02*
X99630000Y-68565000D01*
X99630000Y-69890000D02*
X99630000Y-68565000D01*
X106035000Y-68565000D02*
X106035000Y-65035000D01*
X99565000Y-68565000D02*
X99565000Y-65035000D01*
X96670000Y-62730000D02*
X96670000Y-61400000D01*
X98000000Y-62730000D02*
X96670000Y-62730000D01*
X99270000Y-62730000D02*
X99270000Y-60070000D01*
X99270000Y-60070000D02*
X106950000Y-60070000D01*
X99270000Y-62730000D02*
X106950000Y-62730000D01*
X106950000Y-62730000D02*
X106950000Y-60070000D01*
X103290000Y-84738748D02*
X103290000Y-85261252D01*
X104710000Y-84738748D02*
X104710000Y-85261252D01*
D14*
X104952380Y-79440476D02*
X103952380Y-79440476D01*
X104666666Y-79107142D01*
X103952380Y-78773809D01*
X104952380Y-78773809D01*
X104952380Y-78297619D02*
X103952380Y-78297619D01*
X103952380Y-78059523D01*
X104000000Y-77916666D01*
X104095238Y-77821428D01*
X104190476Y-77773809D01*
X104380952Y-77726190D01*
X104523809Y-77726190D01*
X104714285Y-77773809D01*
X104809523Y-77821428D01*
X104904761Y-77916666D01*
X104952380Y-78059523D01*
X104952380Y-78297619D01*
X104428571Y-76964285D02*
X104476190Y-76821428D01*
X104523809Y-76773809D01*
X104619047Y-76726190D01*
X104761904Y-76726190D01*
X104857142Y-76773809D01*
X104904761Y-76821428D01*
X104952380Y-76916666D01*
X104952380Y-77297619D01*
X103952380Y-77297619D01*
X103952380Y-76964285D01*
X104000000Y-76869047D01*
X104047619Y-76821428D01*
X104142857Y-76773809D01*
X104238095Y-76773809D01*
X104333333Y-76821428D01*
X104380952Y-76869047D01*
X104428571Y-76964285D01*
X104428571Y-77297619D01*
X103952380Y-76440476D02*
X103952380Y-75869047D01*
X104952380Y-76154761D02*
X103952380Y-76154761D01*
X104285714Y-75107142D02*
X104952380Y-75107142D01*
X103904761Y-75345238D02*
X104619047Y-75583333D01*
X104619047Y-74964285D01*
X104047619Y-74630952D02*
X104000000Y-74583333D01*
X103952380Y-74488095D01*
X103952380Y-74250000D01*
X104000000Y-74154761D01*
X104047619Y-74107142D01*
X104142857Y-74059523D01*
X104238095Y-74059523D01*
X104380952Y-74107142D01*
X104952380Y-74678571D01*
X104952380Y-74059523D01*
X105047619Y-72964285D02*
X105000000Y-73059523D01*
X104904761Y-73154761D01*
X104761904Y-73297619D01*
X104714285Y-73392857D01*
X104714285Y-73488095D01*
X104952380Y-73440476D02*
X104904761Y-73535714D01*
X104809523Y-73630952D01*
X104619047Y-73678571D01*
X104285714Y-73678571D01*
X104095238Y-73630952D01*
X104000000Y-73535714D01*
X103952380Y-73440476D01*
X103952380Y-73250000D01*
X104000000Y-73154761D01*
X104095238Y-73059523D01*
X104285714Y-73011904D01*
X104619047Y-73011904D01*
X104809523Y-73059523D01*
X104904761Y-73154761D01*
X104952380Y-73250000D01*
X104952380Y-73440476D01*
X120166666Y-67952380D02*
X120166666Y-68666666D01*
X120119047Y-68809523D01*
X120023809Y-68904761D01*
X119880952Y-68952380D01*
X119785714Y-68952380D01*
X121071428Y-68285714D02*
X121071428Y-68952380D01*
X120833333Y-67904761D02*
X120595238Y-68619047D01*
X121214285Y-68619047D01*
X114066666Y-69198571D02*
X113733333Y-69198571D01*
X113733333Y-69722380D02*
X113733333Y-68722380D01*
X114209523Y-68722380D01*
X115114285Y-69722380D02*
X114542857Y-69722380D01*
X114828571Y-69722380D02*
X114828571Y-68722380D01*
X114733333Y-68865238D01*
X114638095Y-68960476D01*
X114542857Y-69008095D01*
X109666666Y-68452380D02*
X109666666Y-69166666D01*
X109619047Y-69309523D01*
X109523809Y-69404761D01*
X109380952Y-69452380D01*
X109285714Y-69452380D01*
X110666666Y-69452380D02*
X110095238Y-69452380D01*
X110380952Y-69452380D02*
X110380952Y-68452380D01*
X110285714Y-68595238D01*
X110190476Y-68690476D01*
X110095238Y-68738095D01*
X110638095Y-70552380D02*
X110638095Y-71361904D01*
X110685714Y-71457142D01*
X110733333Y-71504761D01*
X110828571Y-71552380D01*
X111019047Y-71552380D01*
X111114285Y-71504761D01*
X111161904Y-71457142D01*
X111209523Y-71361904D01*
X111209523Y-70552380D01*
X111638095Y-70647619D02*
X111685714Y-70600000D01*
X111780952Y-70552380D01*
X112019047Y-70552380D01*
X112114285Y-70600000D01*
X112161904Y-70647619D01*
X112209523Y-70742857D01*
X112209523Y-70838095D01*
X112161904Y-70980952D01*
X111590476Y-71552380D01*
X112209523Y-71552380D01*
X98457142Y-88266666D02*
X98504761Y-88314285D01*
X98552380Y-88457142D01*
X98552380Y-88552380D01*
X98504761Y-88695238D01*
X98409523Y-88790476D01*
X98314285Y-88838095D01*
X98123809Y-88885714D01*
X97980952Y-88885714D01*
X97790476Y-88838095D01*
X97695238Y-88790476D01*
X97600000Y-88695238D01*
X97552380Y-88552380D01*
X97552380Y-88457142D01*
X97600000Y-88314285D01*
X97647619Y-88266666D01*
X97647619Y-87885714D02*
X97600000Y-87838095D01*
X97552380Y-87742857D01*
X97552380Y-87504761D01*
X97600000Y-87409523D01*
X97647619Y-87361904D01*
X97742857Y-87314285D01*
X97838095Y-87314285D01*
X97980952Y-87361904D01*
X98552380Y-87933333D01*
X98552380Y-87314285D01*
X108857142Y-73666666D02*
X108904761Y-73714285D01*
X108952380Y-73857142D01*
X108952380Y-73952380D01*
X108904761Y-74095238D01*
X108809523Y-74190476D01*
X108714285Y-74238095D01*
X108523809Y-74285714D01*
X108380952Y-74285714D01*
X108190476Y-74238095D01*
X108095238Y-74190476D01*
X108000000Y-74095238D01*
X107952380Y-73952380D01*
X107952380Y-73857142D01*
X108000000Y-73714285D01*
X108047619Y-73666666D01*
X108285714Y-72809523D02*
X108952380Y-72809523D01*
X107904761Y-73047619D02*
X108619047Y-73285714D01*
X108619047Y-72666666D01*
X116957142Y-73666666D02*
X117004761Y-73714285D01*
X117052380Y-73857142D01*
X117052380Y-73952380D01*
X117004761Y-74095238D01*
X116909523Y-74190476D01*
X116814285Y-74238095D01*
X116623809Y-74285714D01*
X116480952Y-74285714D01*
X116290476Y-74238095D01*
X116195238Y-74190476D01*
X116100000Y-74095238D01*
X116052380Y-73952380D01*
X116052380Y-73857142D01*
X116100000Y-73714285D01*
X116147619Y-73666666D01*
X116052380Y-73333333D02*
X116052380Y-72714285D01*
X116433333Y-73047619D01*
X116433333Y-72904761D01*
X116480952Y-72809523D01*
X116528571Y-72761904D01*
X116623809Y-72714285D01*
X116861904Y-72714285D01*
X116957142Y-72761904D01*
X117004761Y-72809523D01*
X117052380Y-72904761D01*
X117052380Y-73190476D01*
X117004761Y-73285714D01*
X116957142Y-73333333D01*
X113933333Y-91552380D02*
X113600000Y-91076190D01*
X113361904Y-91552380D02*
X113361904Y-90552380D01*
X113742857Y-90552380D01*
X113838095Y-90600000D01*
X113885714Y-90647619D01*
X113933333Y-90742857D01*
X113933333Y-90885714D01*
X113885714Y-90980952D01*
X113838095Y-91028571D01*
X113742857Y-91076190D01*
X113361904Y-91076190D01*
X114790476Y-90552380D02*
X114600000Y-90552380D01*
X114504761Y-90600000D01*
X114457142Y-90647619D01*
X114361904Y-90790476D01*
X114314285Y-90980952D01*
X114314285Y-91361904D01*
X114361904Y-91457142D01*
X114409523Y-91504761D01*
X114504761Y-91552380D01*
X114695238Y-91552380D01*
X114790476Y-91504761D01*
X114838095Y-91457142D01*
X114885714Y-91361904D01*
X114885714Y-91123809D01*
X114838095Y-91028571D01*
X114790476Y-90980952D01*
X114695238Y-90933333D01*
X114504761Y-90933333D01*
X114409523Y-90980952D01*
X114361904Y-91028571D01*
X114314285Y-91123809D01*
X113933333Y-90152380D02*
X113600000Y-89676190D01*
X113361904Y-90152380D02*
X113361904Y-89152380D01*
X113742857Y-89152380D01*
X113838095Y-89200000D01*
X113885714Y-89247619D01*
X113933333Y-89342857D01*
X113933333Y-89485714D01*
X113885714Y-89580952D01*
X113838095Y-89628571D01*
X113742857Y-89676190D01*
X113361904Y-89676190D01*
X114838095Y-89152380D02*
X114361904Y-89152380D01*
X114314285Y-89628571D01*
X114361904Y-89580952D01*
X114457142Y-89533333D01*
X114695238Y-89533333D01*
X114790476Y-89580952D01*
X114838095Y-89628571D01*
X114885714Y-89723809D01*
X114885714Y-89961904D01*
X114838095Y-90057142D01*
X114790476Y-90104761D01*
X114695238Y-90152380D01*
X114457142Y-90152380D01*
X114361904Y-90104761D01*
X114314285Y-90057142D01*
X113933333Y-88752380D02*
X113600000Y-88276190D01*
X113361904Y-88752380D02*
X113361904Y-87752380D01*
X113742857Y-87752380D01*
X113838095Y-87800000D01*
X113885714Y-87847619D01*
X113933333Y-87942857D01*
X113933333Y-88085714D01*
X113885714Y-88180952D01*
X113838095Y-88228571D01*
X113742857Y-88276190D01*
X113361904Y-88276190D01*
X114790476Y-88085714D02*
X114790476Y-88752380D01*
X114552380Y-87704761D02*
X114314285Y-88419047D01*
X114933333Y-88419047D01*
X108852380Y-85666666D02*
X108376190Y-86000000D01*
X108852380Y-86238095D02*
X107852380Y-86238095D01*
X107852380Y-85857142D01*
X107900000Y-85761904D01*
X107947619Y-85714285D01*
X108042857Y-85666666D01*
X108185714Y-85666666D01*
X108280952Y-85714285D01*
X108328571Y-85761904D01*
X108376190Y-85857142D01*
X108376190Y-86238095D01*
X107852380Y-85333333D02*
X107852380Y-84714285D01*
X108233333Y-85047619D01*
X108233333Y-84904761D01*
X108280952Y-84809523D01*
X108328571Y-84761904D01*
X108423809Y-84714285D01*
X108661904Y-84714285D01*
X108757142Y-84761904D01*
X108804761Y-84809523D01*
X108852380Y-84904761D01*
X108852380Y-85190476D01*
X108804761Y-85285714D01*
X108757142Y-85333333D01*
X108852380Y-81666666D02*
X108376190Y-82000000D01*
X108852380Y-82238095D02*
X107852380Y-82238095D01*
X107852380Y-81857142D01*
X107900000Y-81761904D01*
X107947619Y-81714285D01*
X108042857Y-81666666D01*
X108185714Y-81666666D01*
X108280952Y-81714285D01*
X108328571Y-81761904D01*
X108376190Y-81857142D01*
X108376190Y-82238095D01*
X107947619Y-81285714D02*
X107900000Y-81238095D01*
X107852380Y-81142857D01*
X107852380Y-80904761D01*
X107900000Y-80809523D01*
X107947619Y-80761904D01*
X108042857Y-80714285D01*
X108138095Y-80714285D01*
X108280952Y-80761904D01*
X108852380Y-81333333D01*
X108852380Y-80714285D01*
X108852380Y-77666666D02*
X108376190Y-78000000D01*
X108852380Y-78238095D02*
X107852380Y-78238095D01*
X107852380Y-77857142D01*
X107900000Y-77761904D01*
X107947619Y-77714285D01*
X108042857Y-77666666D01*
X108185714Y-77666666D01*
X108280952Y-77714285D01*
X108328571Y-77761904D01*
X108376190Y-77857142D01*
X108376190Y-78238095D01*
X108852380Y-76714285D02*
X108852380Y-77285714D01*
X108852380Y-77000000D02*
X107852380Y-77000000D01*
X107995238Y-77095238D01*
X108090476Y-77190476D01*
X108138095Y-77285714D01*
X112004761Y-91647619D02*
X111909523Y-91600000D01*
X111814285Y-91504761D01*
X111671428Y-91361904D01*
X111576190Y-91314285D01*
X111480952Y-91314285D01*
X111528571Y-91552380D02*
X111433333Y-91504761D01*
X111338095Y-91409523D01*
X111290476Y-91219047D01*
X111290476Y-90885714D01*
X111338095Y-90695238D01*
X111433333Y-90600000D01*
X111528571Y-90552380D01*
X111719047Y-90552380D01*
X111814285Y-90600000D01*
X111909523Y-90695238D01*
X111957142Y-90885714D01*
X111957142Y-91219047D01*
X111909523Y-91409523D01*
X111814285Y-91504761D01*
X111719047Y-91552380D01*
X111528571Y-91552380D01*
X112290476Y-90552380D02*
X112909523Y-90552380D01*
X112576190Y-90933333D01*
X112719047Y-90933333D01*
X112814285Y-90980952D01*
X112861904Y-91028571D01*
X112909523Y-91123809D01*
X112909523Y-91361904D01*
X112861904Y-91457142D01*
X112814285Y-91504761D01*
X112719047Y-91552380D01*
X112433333Y-91552380D01*
X112338095Y-91504761D01*
X112290476Y-91457142D01*
X112004761Y-90247619D02*
X111909523Y-90200000D01*
X111814285Y-90104761D01*
X111671428Y-89961904D01*
X111576190Y-89914285D01*
X111480952Y-89914285D01*
X111528571Y-90152380D02*
X111433333Y-90104761D01*
X111338095Y-90009523D01*
X111290476Y-89819047D01*
X111290476Y-89485714D01*
X111338095Y-89295238D01*
X111433333Y-89200000D01*
X111528571Y-89152380D01*
X111719047Y-89152380D01*
X111814285Y-89200000D01*
X111909523Y-89295238D01*
X111957142Y-89485714D01*
X111957142Y-89819047D01*
X111909523Y-90009523D01*
X111814285Y-90104761D01*
X111719047Y-90152380D01*
X111528571Y-90152380D01*
X112338095Y-89247619D02*
X112385714Y-89200000D01*
X112480952Y-89152380D01*
X112719047Y-89152380D01*
X112814285Y-89200000D01*
X112861904Y-89247619D01*
X112909523Y-89342857D01*
X112909523Y-89438095D01*
X112861904Y-89580952D01*
X112290476Y-90152380D01*
X112909523Y-90152380D01*
X112004761Y-88847619D02*
X111909523Y-88800000D01*
X111814285Y-88704761D01*
X111671428Y-88561904D01*
X111576190Y-88514285D01*
X111480952Y-88514285D01*
X111528571Y-88752380D02*
X111433333Y-88704761D01*
X111338095Y-88609523D01*
X111290476Y-88419047D01*
X111290476Y-88085714D01*
X111338095Y-87895238D01*
X111433333Y-87800000D01*
X111528571Y-87752380D01*
X111719047Y-87752380D01*
X111814285Y-87800000D01*
X111909523Y-87895238D01*
X111957142Y-88085714D01*
X111957142Y-88419047D01*
X111909523Y-88609523D01*
X111814285Y-88704761D01*
X111719047Y-88752380D01*
X111528571Y-88752380D01*
X112909523Y-88752380D02*
X112338095Y-88752380D01*
X112623809Y-88752380D02*
X112623809Y-87752380D01*
X112528571Y-87895238D01*
X112433333Y-87990476D01*
X112338095Y-88038095D01*
X102452380Y-88266666D02*
X102452380Y-88742857D01*
X101452380Y-88742857D01*
X101547619Y-87980952D02*
X101500000Y-87933333D01*
X101452380Y-87838095D01*
X101452380Y-87600000D01*
X101500000Y-87504761D01*
X101547619Y-87457142D01*
X101642857Y-87409523D01*
X101738095Y-87409523D01*
X101880952Y-87457142D01*
X102452380Y-88028571D01*
X102452380Y-87409523D01*
X100452380Y-88266666D02*
X100452380Y-88742857D01*
X99452380Y-88742857D01*
X100452380Y-87409523D02*
X100452380Y-87980952D01*
X100452380Y-87695238D02*
X99452380Y-87695238D01*
X99595238Y-87790476D01*
X99690476Y-87885714D01*
X99738095Y-87980952D01*
X98017380Y-67133333D02*
X98731666Y-67133333D01*
X98874523Y-67180952D01*
X98969761Y-67276190D01*
X99017380Y-67419047D01*
X99017380Y-67514285D01*
X98017380Y-66752380D02*
X98017380Y-66133333D01*
X98398333Y-66466666D01*
X98398333Y-66323809D01*
X98445952Y-66228571D01*
X98493571Y-66180952D01*
X98588809Y-66133333D01*
X98826904Y-66133333D01*
X98922142Y-66180952D01*
X98969761Y-66228571D01*
X99017380Y-66323809D01*
X99017380Y-66609523D01*
X98969761Y-66704761D01*
X98922142Y-66752380D01*
X94952380Y-61733333D02*
X95666666Y-61733333D01*
X95809523Y-61780952D01*
X95904761Y-61876190D01*
X95952380Y-62019047D01*
X95952380Y-62114285D01*
X95047619Y-61304761D02*
X95000000Y-61257142D01*
X94952380Y-61161904D01*
X94952380Y-60923809D01*
X95000000Y-60828571D01*
X95047619Y-60780952D01*
X95142857Y-60733333D01*
X95238095Y-60733333D01*
X95380952Y-60780952D01*
X95952380Y-61352380D01*
X95952380Y-60733333D01*
X104357142Y-88266666D02*
X104404761Y-88314285D01*
X104452380Y-88457142D01*
X104452380Y-88552380D01*
X104404761Y-88695238D01*
X104309523Y-88790476D01*
X104214285Y-88838095D01*
X104023809Y-88885714D01*
X103880952Y-88885714D01*
X103690476Y-88838095D01*
X103595238Y-88790476D01*
X103500000Y-88695238D01*
X103452380Y-88552380D01*
X103452380Y-88457142D01*
X103500000Y-88314285D01*
X103547619Y-88266666D01*
X104452380Y-87314285D02*
X104452380Y-87885714D01*
X104452380Y-87600000D02*
X103452380Y-87600000D01*
X103595238Y-87695238D01*
X103690476Y-87790476D01*
X103738095Y-87885714D01*
M02*
