G04 #@! TF.GenerationSoftware,KiCad,Pcbnew,(5.1.2-1)-1*
G04 #@! TF.CreationDate,2019-08-31T04:18:35+09:00*
G04 #@! TF.ProjectId,Schematic,53636865-6d61-4746-9963-2e6b69636164,rev?*
G04 #@! TF.SameCoordinates,Original*
G04 #@! TF.FileFunction,Copper,L1,Top*
G04 #@! TF.FilePolarity,Positive*
%FSLAX46Y46*%
G04 Gerber Fmt 4.6, Leading zero omitted, Abs format (unit mm)*
G04 Created by KiCad (PCBNEW (5.1.2-1)-1) date 2019-08-31 04:18:35*
%MOMM*%
%LPD*%
G04 APERTURE LIST*
%ADD10C,1.000000*%
%ADD11R,0.800000X1.600000*%
%ADD12R,1.600000X0.400000*%
%ADD13R,0.400000X1.600000*%
%ADD14R,0.400000X1.000000*%
%ADD15O,1.700000X1.700000*%
%ADD16R,1.700000X1.700000*%
%ADD17C,0.100000*%
%ADD18C,0.950000*%
%ADD19C,1.750000*%
%ADD20R,0.800000X0.900000*%
%ADD21R,0.900000X0.800000*%
%ADD22C,1.150000*%
%ADD23R,0.740000X2.400000*%
%ADD24C,0.800000*%
%ADD25C,0.250000*%
%ADD26C,0.500000*%
%ADD27C,0.254000*%
G04 APERTURE END LIST*
D10*
X118000000Y-62000000D03*
X94500000Y-89500000D03*
D11*
X90700000Y-80950000D03*
D12*
X102200000Y-80450000D03*
D13*
X100700000Y-71550000D03*
D11*
X90700000Y-71550000D03*
D14*
X91250000Y-73350000D03*
X92650000Y-73350000D03*
D12*
X102200000Y-79750000D03*
X102200000Y-79050000D03*
X102200000Y-78350000D03*
X102200000Y-77650000D03*
X102200000Y-76950000D03*
X102200000Y-76250000D03*
X102200000Y-75550000D03*
X102200000Y-74850000D03*
X102200000Y-74150000D03*
X102200000Y-73450000D03*
X102200000Y-72750000D03*
X102200000Y-72050000D03*
D13*
X100000000Y-71550000D03*
X99300000Y-71550000D03*
X98600000Y-71550000D03*
X97900000Y-71550000D03*
X97200000Y-71550000D03*
X96500000Y-71550000D03*
X95800000Y-71550000D03*
X95100000Y-71550000D03*
X94400000Y-71550000D03*
X93700000Y-71550000D03*
X93000000Y-71550000D03*
X92300000Y-71550000D03*
X91600000Y-71550000D03*
X93700000Y-80950000D03*
X94400000Y-80950000D03*
X95100000Y-80950000D03*
X95800000Y-80950000D03*
X96500000Y-80950000D03*
X97200000Y-80950000D03*
X97900000Y-80950000D03*
X98600000Y-80950000D03*
X99300000Y-80950000D03*
X100000000Y-80950000D03*
D15*
X120500000Y-81330000D03*
X120500000Y-78790000D03*
X120500000Y-76250000D03*
X120500000Y-73710000D03*
D16*
X120500000Y-71170000D03*
D17*
G36*
X115585779Y-70226144D02*
G01*
X115608834Y-70229563D01*
X115631443Y-70235227D01*
X115653387Y-70243079D01*
X115674457Y-70253044D01*
X115694448Y-70265026D01*
X115713168Y-70278910D01*
X115730438Y-70294562D01*
X115746090Y-70311832D01*
X115759974Y-70330552D01*
X115771956Y-70350543D01*
X115781921Y-70371613D01*
X115789773Y-70393557D01*
X115795437Y-70416166D01*
X115798856Y-70439221D01*
X115800000Y-70462500D01*
X115800000Y-70937500D01*
X115798856Y-70960779D01*
X115795437Y-70983834D01*
X115789773Y-71006443D01*
X115781921Y-71028387D01*
X115771956Y-71049457D01*
X115759974Y-71069448D01*
X115746090Y-71088168D01*
X115730438Y-71105438D01*
X115713168Y-71121090D01*
X115694448Y-71134974D01*
X115674457Y-71146956D01*
X115653387Y-71156921D01*
X115631443Y-71164773D01*
X115608834Y-71170437D01*
X115585779Y-71173856D01*
X115562500Y-71175000D01*
X114987500Y-71175000D01*
X114964221Y-71173856D01*
X114941166Y-71170437D01*
X114918557Y-71164773D01*
X114896613Y-71156921D01*
X114875543Y-71146956D01*
X114855552Y-71134974D01*
X114836832Y-71121090D01*
X114819562Y-71105438D01*
X114803910Y-71088168D01*
X114790026Y-71069448D01*
X114778044Y-71049457D01*
X114768079Y-71028387D01*
X114760227Y-71006443D01*
X114754563Y-70983834D01*
X114751144Y-70960779D01*
X114750000Y-70937500D01*
X114750000Y-70462500D01*
X114751144Y-70439221D01*
X114754563Y-70416166D01*
X114760227Y-70393557D01*
X114768079Y-70371613D01*
X114778044Y-70350543D01*
X114790026Y-70330552D01*
X114803910Y-70311832D01*
X114819562Y-70294562D01*
X114836832Y-70278910D01*
X114855552Y-70265026D01*
X114875543Y-70253044D01*
X114896613Y-70243079D01*
X114918557Y-70235227D01*
X114941166Y-70229563D01*
X114964221Y-70226144D01*
X114987500Y-70225000D01*
X115562500Y-70225000D01*
X115585779Y-70226144D01*
X115585779Y-70226144D01*
G37*
D18*
X115275000Y-70700000D03*
D17*
G36*
X113835779Y-70226144D02*
G01*
X113858834Y-70229563D01*
X113881443Y-70235227D01*
X113903387Y-70243079D01*
X113924457Y-70253044D01*
X113944448Y-70265026D01*
X113963168Y-70278910D01*
X113980438Y-70294562D01*
X113996090Y-70311832D01*
X114009974Y-70330552D01*
X114021956Y-70350543D01*
X114031921Y-70371613D01*
X114039773Y-70393557D01*
X114045437Y-70416166D01*
X114048856Y-70439221D01*
X114050000Y-70462500D01*
X114050000Y-70937500D01*
X114048856Y-70960779D01*
X114045437Y-70983834D01*
X114039773Y-71006443D01*
X114031921Y-71028387D01*
X114021956Y-71049457D01*
X114009974Y-71069448D01*
X113996090Y-71088168D01*
X113980438Y-71105438D01*
X113963168Y-71121090D01*
X113944448Y-71134974D01*
X113924457Y-71146956D01*
X113903387Y-71156921D01*
X113881443Y-71164773D01*
X113858834Y-71170437D01*
X113835779Y-71173856D01*
X113812500Y-71175000D01*
X113237500Y-71175000D01*
X113214221Y-71173856D01*
X113191166Y-71170437D01*
X113168557Y-71164773D01*
X113146613Y-71156921D01*
X113125543Y-71146956D01*
X113105552Y-71134974D01*
X113086832Y-71121090D01*
X113069562Y-71105438D01*
X113053910Y-71088168D01*
X113040026Y-71069448D01*
X113028044Y-71049457D01*
X113018079Y-71028387D01*
X113010227Y-71006443D01*
X113004563Y-70983834D01*
X113001144Y-70960779D01*
X113000000Y-70937500D01*
X113000000Y-70462500D01*
X113001144Y-70439221D01*
X113004563Y-70416166D01*
X113010227Y-70393557D01*
X113018079Y-70371613D01*
X113028044Y-70350543D01*
X113040026Y-70330552D01*
X113053910Y-70311832D01*
X113069562Y-70294562D01*
X113086832Y-70278910D01*
X113105552Y-70265026D01*
X113125543Y-70253044D01*
X113146613Y-70243079D01*
X113168557Y-70235227D01*
X113191166Y-70229563D01*
X113214221Y-70226144D01*
X113237500Y-70225000D01*
X113812500Y-70225000D01*
X113835779Y-70226144D01*
X113835779Y-70226144D01*
G37*
D18*
X113525000Y-70700000D03*
D19*
X113300000Y-66500000D03*
X111300000Y-66500000D03*
D20*
X112600000Y-74600000D03*
X111650000Y-72600000D03*
X113550000Y-72600000D03*
D17*
G36*
X98260779Y-85351144D02*
G01*
X98283834Y-85354563D01*
X98306443Y-85360227D01*
X98328387Y-85368079D01*
X98349457Y-85378044D01*
X98369448Y-85390026D01*
X98388168Y-85403910D01*
X98405438Y-85419562D01*
X98421090Y-85436832D01*
X98434974Y-85455552D01*
X98446956Y-85475543D01*
X98456921Y-85496613D01*
X98464773Y-85518557D01*
X98470437Y-85541166D01*
X98473856Y-85564221D01*
X98475000Y-85587500D01*
X98475000Y-86162500D01*
X98473856Y-86185779D01*
X98470437Y-86208834D01*
X98464773Y-86231443D01*
X98456921Y-86253387D01*
X98446956Y-86274457D01*
X98434974Y-86294448D01*
X98421090Y-86313168D01*
X98405438Y-86330438D01*
X98388168Y-86346090D01*
X98369448Y-86359974D01*
X98349457Y-86371956D01*
X98328387Y-86381921D01*
X98306443Y-86389773D01*
X98283834Y-86395437D01*
X98260779Y-86398856D01*
X98237500Y-86400000D01*
X97762500Y-86400000D01*
X97739221Y-86398856D01*
X97716166Y-86395437D01*
X97693557Y-86389773D01*
X97671613Y-86381921D01*
X97650543Y-86371956D01*
X97630552Y-86359974D01*
X97611832Y-86346090D01*
X97594562Y-86330438D01*
X97578910Y-86313168D01*
X97565026Y-86294448D01*
X97553044Y-86274457D01*
X97543079Y-86253387D01*
X97535227Y-86231443D01*
X97529563Y-86208834D01*
X97526144Y-86185779D01*
X97525000Y-86162500D01*
X97525000Y-85587500D01*
X97526144Y-85564221D01*
X97529563Y-85541166D01*
X97535227Y-85518557D01*
X97543079Y-85496613D01*
X97553044Y-85475543D01*
X97565026Y-85455552D01*
X97578910Y-85436832D01*
X97594562Y-85419562D01*
X97611832Y-85403910D01*
X97630552Y-85390026D01*
X97650543Y-85378044D01*
X97671613Y-85368079D01*
X97693557Y-85360227D01*
X97716166Y-85354563D01*
X97739221Y-85351144D01*
X97762500Y-85350000D01*
X98237500Y-85350000D01*
X98260779Y-85351144D01*
X98260779Y-85351144D01*
G37*
D18*
X98000000Y-85875000D03*
D17*
G36*
X98260779Y-83601144D02*
G01*
X98283834Y-83604563D01*
X98306443Y-83610227D01*
X98328387Y-83618079D01*
X98349457Y-83628044D01*
X98369448Y-83640026D01*
X98388168Y-83653910D01*
X98405438Y-83669562D01*
X98421090Y-83686832D01*
X98434974Y-83705552D01*
X98446956Y-83725543D01*
X98456921Y-83746613D01*
X98464773Y-83768557D01*
X98470437Y-83791166D01*
X98473856Y-83814221D01*
X98475000Y-83837500D01*
X98475000Y-84412500D01*
X98473856Y-84435779D01*
X98470437Y-84458834D01*
X98464773Y-84481443D01*
X98456921Y-84503387D01*
X98446956Y-84524457D01*
X98434974Y-84544448D01*
X98421090Y-84563168D01*
X98405438Y-84580438D01*
X98388168Y-84596090D01*
X98369448Y-84609974D01*
X98349457Y-84621956D01*
X98328387Y-84631921D01*
X98306443Y-84639773D01*
X98283834Y-84645437D01*
X98260779Y-84648856D01*
X98237500Y-84650000D01*
X97762500Y-84650000D01*
X97739221Y-84648856D01*
X97716166Y-84645437D01*
X97693557Y-84639773D01*
X97671613Y-84631921D01*
X97650543Y-84621956D01*
X97630552Y-84609974D01*
X97611832Y-84596090D01*
X97594562Y-84580438D01*
X97578910Y-84563168D01*
X97565026Y-84544448D01*
X97553044Y-84524457D01*
X97543079Y-84503387D01*
X97535227Y-84481443D01*
X97529563Y-84458834D01*
X97526144Y-84435779D01*
X97525000Y-84412500D01*
X97525000Y-83837500D01*
X97526144Y-83814221D01*
X97529563Y-83791166D01*
X97535227Y-83768557D01*
X97543079Y-83746613D01*
X97553044Y-83725543D01*
X97565026Y-83705552D01*
X97578910Y-83686832D01*
X97594562Y-83669562D01*
X97611832Y-83653910D01*
X97630552Y-83640026D01*
X97650543Y-83628044D01*
X97671613Y-83618079D01*
X97693557Y-83610227D01*
X97716166Y-83604563D01*
X97739221Y-83601144D01*
X97762500Y-83600000D01*
X98237500Y-83600000D01*
X98260779Y-83601144D01*
X98260779Y-83601144D01*
G37*
D18*
X98000000Y-84125000D03*
D17*
G36*
X110260779Y-73851144D02*
G01*
X110283834Y-73854563D01*
X110306443Y-73860227D01*
X110328387Y-73868079D01*
X110349457Y-73878044D01*
X110369448Y-73890026D01*
X110388168Y-73903910D01*
X110405438Y-73919562D01*
X110421090Y-73936832D01*
X110434974Y-73955552D01*
X110446956Y-73975543D01*
X110456921Y-73996613D01*
X110464773Y-74018557D01*
X110470437Y-74041166D01*
X110473856Y-74064221D01*
X110475000Y-74087500D01*
X110475000Y-74662500D01*
X110473856Y-74685779D01*
X110470437Y-74708834D01*
X110464773Y-74731443D01*
X110456921Y-74753387D01*
X110446956Y-74774457D01*
X110434974Y-74794448D01*
X110421090Y-74813168D01*
X110405438Y-74830438D01*
X110388168Y-74846090D01*
X110369448Y-74859974D01*
X110349457Y-74871956D01*
X110328387Y-74881921D01*
X110306443Y-74889773D01*
X110283834Y-74895437D01*
X110260779Y-74898856D01*
X110237500Y-74900000D01*
X109762500Y-74900000D01*
X109739221Y-74898856D01*
X109716166Y-74895437D01*
X109693557Y-74889773D01*
X109671613Y-74881921D01*
X109650543Y-74871956D01*
X109630552Y-74859974D01*
X109611832Y-74846090D01*
X109594562Y-74830438D01*
X109578910Y-74813168D01*
X109565026Y-74794448D01*
X109553044Y-74774457D01*
X109543079Y-74753387D01*
X109535227Y-74731443D01*
X109529563Y-74708834D01*
X109526144Y-74685779D01*
X109525000Y-74662500D01*
X109525000Y-74087500D01*
X109526144Y-74064221D01*
X109529563Y-74041166D01*
X109535227Y-74018557D01*
X109543079Y-73996613D01*
X109553044Y-73975543D01*
X109565026Y-73955552D01*
X109578910Y-73936832D01*
X109594562Y-73919562D01*
X109611832Y-73903910D01*
X109630552Y-73890026D01*
X109650543Y-73878044D01*
X109671613Y-73868079D01*
X109693557Y-73860227D01*
X109716166Y-73854563D01*
X109739221Y-73851144D01*
X109762500Y-73850000D01*
X110237500Y-73850000D01*
X110260779Y-73851144D01*
X110260779Y-73851144D01*
G37*
D18*
X110000000Y-74375000D03*
D17*
G36*
X110260779Y-72101144D02*
G01*
X110283834Y-72104563D01*
X110306443Y-72110227D01*
X110328387Y-72118079D01*
X110349457Y-72128044D01*
X110369448Y-72140026D01*
X110388168Y-72153910D01*
X110405438Y-72169562D01*
X110421090Y-72186832D01*
X110434974Y-72205552D01*
X110446956Y-72225543D01*
X110456921Y-72246613D01*
X110464773Y-72268557D01*
X110470437Y-72291166D01*
X110473856Y-72314221D01*
X110475000Y-72337500D01*
X110475000Y-72912500D01*
X110473856Y-72935779D01*
X110470437Y-72958834D01*
X110464773Y-72981443D01*
X110456921Y-73003387D01*
X110446956Y-73024457D01*
X110434974Y-73044448D01*
X110421090Y-73063168D01*
X110405438Y-73080438D01*
X110388168Y-73096090D01*
X110369448Y-73109974D01*
X110349457Y-73121956D01*
X110328387Y-73131921D01*
X110306443Y-73139773D01*
X110283834Y-73145437D01*
X110260779Y-73148856D01*
X110237500Y-73150000D01*
X109762500Y-73150000D01*
X109739221Y-73148856D01*
X109716166Y-73145437D01*
X109693557Y-73139773D01*
X109671613Y-73131921D01*
X109650543Y-73121956D01*
X109630552Y-73109974D01*
X109611832Y-73096090D01*
X109594562Y-73080438D01*
X109578910Y-73063168D01*
X109565026Y-73044448D01*
X109553044Y-73024457D01*
X109543079Y-73003387D01*
X109535227Y-72981443D01*
X109529563Y-72958834D01*
X109526144Y-72935779D01*
X109525000Y-72912500D01*
X109525000Y-72337500D01*
X109526144Y-72314221D01*
X109529563Y-72291166D01*
X109535227Y-72268557D01*
X109543079Y-72246613D01*
X109553044Y-72225543D01*
X109565026Y-72205552D01*
X109578910Y-72186832D01*
X109594562Y-72169562D01*
X109611832Y-72153910D01*
X109630552Y-72140026D01*
X109650543Y-72128044D01*
X109671613Y-72118079D01*
X109693557Y-72110227D01*
X109716166Y-72104563D01*
X109739221Y-72101144D01*
X109762500Y-72100000D01*
X110237500Y-72100000D01*
X110260779Y-72101144D01*
X110260779Y-72101144D01*
G37*
D18*
X110000000Y-72625000D03*
D17*
G36*
X115460779Y-73851144D02*
G01*
X115483834Y-73854563D01*
X115506443Y-73860227D01*
X115528387Y-73868079D01*
X115549457Y-73878044D01*
X115569448Y-73890026D01*
X115588168Y-73903910D01*
X115605438Y-73919562D01*
X115621090Y-73936832D01*
X115634974Y-73955552D01*
X115646956Y-73975543D01*
X115656921Y-73996613D01*
X115664773Y-74018557D01*
X115670437Y-74041166D01*
X115673856Y-74064221D01*
X115675000Y-74087500D01*
X115675000Y-74662500D01*
X115673856Y-74685779D01*
X115670437Y-74708834D01*
X115664773Y-74731443D01*
X115656921Y-74753387D01*
X115646956Y-74774457D01*
X115634974Y-74794448D01*
X115621090Y-74813168D01*
X115605438Y-74830438D01*
X115588168Y-74846090D01*
X115569448Y-74859974D01*
X115549457Y-74871956D01*
X115528387Y-74881921D01*
X115506443Y-74889773D01*
X115483834Y-74895437D01*
X115460779Y-74898856D01*
X115437500Y-74900000D01*
X114962500Y-74900000D01*
X114939221Y-74898856D01*
X114916166Y-74895437D01*
X114893557Y-74889773D01*
X114871613Y-74881921D01*
X114850543Y-74871956D01*
X114830552Y-74859974D01*
X114811832Y-74846090D01*
X114794562Y-74830438D01*
X114778910Y-74813168D01*
X114765026Y-74794448D01*
X114753044Y-74774457D01*
X114743079Y-74753387D01*
X114735227Y-74731443D01*
X114729563Y-74708834D01*
X114726144Y-74685779D01*
X114725000Y-74662500D01*
X114725000Y-74087500D01*
X114726144Y-74064221D01*
X114729563Y-74041166D01*
X114735227Y-74018557D01*
X114743079Y-73996613D01*
X114753044Y-73975543D01*
X114765026Y-73955552D01*
X114778910Y-73936832D01*
X114794562Y-73919562D01*
X114811832Y-73903910D01*
X114830552Y-73890026D01*
X114850543Y-73878044D01*
X114871613Y-73868079D01*
X114893557Y-73860227D01*
X114916166Y-73854563D01*
X114939221Y-73851144D01*
X114962500Y-73850000D01*
X115437500Y-73850000D01*
X115460779Y-73851144D01*
X115460779Y-73851144D01*
G37*
D18*
X115200000Y-74375000D03*
D17*
G36*
X115460779Y-72101144D02*
G01*
X115483834Y-72104563D01*
X115506443Y-72110227D01*
X115528387Y-72118079D01*
X115549457Y-72128044D01*
X115569448Y-72140026D01*
X115588168Y-72153910D01*
X115605438Y-72169562D01*
X115621090Y-72186832D01*
X115634974Y-72205552D01*
X115646956Y-72225543D01*
X115656921Y-72246613D01*
X115664773Y-72268557D01*
X115670437Y-72291166D01*
X115673856Y-72314221D01*
X115675000Y-72337500D01*
X115675000Y-72912500D01*
X115673856Y-72935779D01*
X115670437Y-72958834D01*
X115664773Y-72981443D01*
X115656921Y-73003387D01*
X115646956Y-73024457D01*
X115634974Y-73044448D01*
X115621090Y-73063168D01*
X115605438Y-73080438D01*
X115588168Y-73096090D01*
X115569448Y-73109974D01*
X115549457Y-73121956D01*
X115528387Y-73131921D01*
X115506443Y-73139773D01*
X115483834Y-73145437D01*
X115460779Y-73148856D01*
X115437500Y-73150000D01*
X114962500Y-73150000D01*
X114939221Y-73148856D01*
X114916166Y-73145437D01*
X114893557Y-73139773D01*
X114871613Y-73131921D01*
X114850543Y-73121956D01*
X114830552Y-73109974D01*
X114811832Y-73096090D01*
X114794562Y-73080438D01*
X114778910Y-73063168D01*
X114765026Y-73044448D01*
X114753044Y-73024457D01*
X114743079Y-73003387D01*
X114735227Y-72981443D01*
X114729563Y-72958834D01*
X114726144Y-72935779D01*
X114725000Y-72912500D01*
X114725000Y-72337500D01*
X114726144Y-72314221D01*
X114729563Y-72291166D01*
X114735227Y-72268557D01*
X114743079Y-72246613D01*
X114753044Y-72225543D01*
X114765026Y-72205552D01*
X114778910Y-72186832D01*
X114794562Y-72169562D01*
X114811832Y-72153910D01*
X114830552Y-72140026D01*
X114850543Y-72128044D01*
X114871613Y-72118079D01*
X114893557Y-72110227D01*
X114916166Y-72104563D01*
X114939221Y-72101144D01*
X114962500Y-72100000D01*
X115437500Y-72100000D01*
X115460779Y-72101144D01*
X115460779Y-72101144D01*
G37*
D18*
X115200000Y-72625000D03*
D17*
G36*
X118185779Y-81026144D02*
G01*
X118208834Y-81029563D01*
X118231443Y-81035227D01*
X118253387Y-81043079D01*
X118274457Y-81053044D01*
X118294448Y-81065026D01*
X118313168Y-81078910D01*
X118330438Y-81094562D01*
X118346090Y-81111832D01*
X118359974Y-81130552D01*
X118371956Y-81150543D01*
X118381921Y-81171613D01*
X118389773Y-81193557D01*
X118395437Y-81216166D01*
X118398856Y-81239221D01*
X118400000Y-81262500D01*
X118400000Y-81737500D01*
X118398856Y-81760779D01*
X118395437Y-81783834D01*
X118389773Y-81806443D01*
X118381921Y-81828387D01*
X118371956Y-81849457D01*
X118359974Y-81869448D01*
X118346090Y-81888168D01*
X118330438Y-81905438D01*
X118313168Y-81921090D01*
X118294448Y-81934974D01*
X118274457Y-81946956D01*
X118253387Y-81956921D01*
X118231443Y-81964773D01*
X118208834Y-81970437D01*
X118185779Y-81973856D01*
X118162500Y-81975000D01*
X117587500Y-81975000D01*
X117564221Y-81973856D01*
X117541166Y-81970437D01*
X117518557Y-81964773D01*
X117496613Y-81956921D01*
X117475543Y-81946956D01*
X117455552Y-81934974D01*
X117436832Y-81921090D01*
X117419562Y-81905438D01*
X117403910Y-81888168D01*
X117390026Y-81869448D01*
X117378044Y-81849457D01*
X117368079Y-81828387D01*
X117360227Y-81806443D01*
X117354563Y-81783834D01*
X117351144Y-81760779D01*
X117350000Y-81737500D01*
X117350000Y-81262500D01*
X117351144Y-81239221D01*
X117354563Y-81216166D01*
X117360227Y-81193557D01*
X117368079Y-81171613D01*
X117378044Y-81150543D01*
X117390026Y-81130552D01*
X117403910Y-81111832D01*
X117419562Y-81094562D01*
X117436832Y-81078910D01*
X117455552Y-81065026D01*
X117475543Y-81053044D01*
X117496613Y-81043079D01*
X117518557Y-81035227D01*
X117541166Y-81029563D01*
X117564221Y-81026144D01*
X117587500Y-81025000D01*
X118162500Y-81025000D01*
X118185779Y-81026144D01*
X118185779Y-81026144D01*
G37*
D18*
X117875000Y-81500000D03*
D17*
G36*
X116435779Y-81026144D02*
G01*
X116458834Y-81029563D01*
X116481443Y-81035227D01*
X116503387Y-81043079D01*
X116524457Y-81053044D01*
X116544448Y-81065026D01*
X116563168Y-81078910D01*
X116580438Y-81094562D01*
X116596090Y-81111832D01*
X116609974Y-81130552D01*
X116621956Y-81150543D01*
X116631921Y-81171613D01*
X116639773Y-81193557D01*
X116645437Y-81216166D01*
X116648856Y-81239221D01*
X116650000Y-81262500D01*
X116650000Y-81737500D01*
X116648856Y-81760779D01*
X116645437Y-81783834D01*
X116639773Y-81806443D01*
X116631921Y-81828387D01*
X116621956Y-81849457D01*
X116609974Y-81869448D01*
X116596090Y-81888168D01*
X116580438Y-81905438D01*
X116563168Y-81921090D01*
X116544448Y-81934974D01*
X116524457Y-81946956D01*
X116503387Y-81956921D01*
X116481443Y-81964773D01*
X116458834Y-81970437D01*
X116435779Y-81973856D01*
X116412500Y-81975000D01*
X115837500Y-81975000D01*
X115814221Y-81973856D01*
X115791166Y-81970437D01*
X115768557Y-81964773D01*
X115746613Y-81956921D01*
X115725543Y-81946956D01*
X115705552Y-81934974D01*
X115686832Y-81921090D01*
X115669562Y-81905438D01*
X115653910Y-81888168D01*
X115640026Y-81869448D01*
X115628044Y-81849457D01*
X115618079Y-81828387D01*
X115610227Y-81806443D01*
X115604563Y-81783834D01*
X115601144Y-81760779D01*
X115600000Y-81737500D01*
X115600000Y-81262500D01*
X115601144Y-81239221D01*
X115604563Y-81216166D01*
X115610227Y-81193557D01*
X115618079Y-81171613D01*
X115628044Y-81150543D01*
X115640026Y-81130552D01*
X115653910Y-81111832D01*
X115669562Y-81094562D01*
X115686832Y-81078910D01*
X115705552Y-81065026D01*
X115725543Y-81053044D01*
X115746613Y-81043079D01*
X115768557Y-81035227D01*
X115791166Y-81029563D01*
X115814221Y-81026144D01*
X115837500Y-81025000D01*
X116412500Y-81025000D01*
X116435779Y-81026144D01*
X116435779Y-81026144D01*
G37*
D18*
X116125000Y-81500000D03*
D17*
G36*
X118185779Y-78526144D02*
G01*
X118208834Y-78529563D01*
X118231443Y-78535227D01*
X118253387Y-78543079D01*
X118274457Y-78553044D01*
X118294448Y-78565026D01*
X118313168Y-78578910D01*
X118330438Y-78594562D01*
X118346090Y-78611832D01*
X118359974Y-78630552D01*
X118371956Y-78650543D01*
X118381921Y-78671613D01*
X118389773Y-78693557D01*
X118395437Y-78716166D01*
X118398856Y-78739221D01*
X118400000Y-78762500D01*
X118400000Y-79237500D01*
X118398856Y-79260779D01*
X118395437Y-79283834D01*
X118389773Y-79306443D01*
X118381921Y-79328387D01*
X118371956Y-79349457D01*
X118359974Y-79369448D01*
X118346090Y-79388168D01*
X118330438Y-79405438D01*
X118313168Y-79421090D01*
X118294448Y-79434974D01*
X118274457Y-79446956D01*
X118253387Y-79456921D01*
X118231443Y-79464773D01*
X118208834Y-79470437D01*
X118185779Y-79473856D01*
X118162500Y-79475000D01*
X117587500Y-79475000D01*
X117564221Y-79473856D01*
X117541166Y-79470437D01*
X117518557Y-79464773D01*
X117496613Y-79456921D01*
X117475543Y-79446956D01*
X117455552Y-79434974D01*
X117436832Y-79421090D01*
X117419562Y-79405438D01*
X117403910Y-79388168D01*
X117390026Y-79369448D01*
X117378044Y-79349457D01*
X117368079Y-79328387D01*
X117360227Y-79306443D01*
X117354563Y-79283834D01*
X117351144Y-79260779D01*
X117350000Y-79237500D01*
X117350000Y-78762500D01*
X117351144Y-78739221D01*
X117354563Y-78716166D01*
X117360227Y-78693557D01*
X117368079Y-78671613D01*
X117378044Y-78650543D01*
X117390026Y-78630552D01*
X117403910Y-78611832D01*
X117419562Y-78594562D01*
X117436832Y-78578910D01*
X117455552Y-78565026D01*
X117475543Y-78553044D01*
X117496613Y-78543079D01*
X117518557Y-78535227D01*
X117541166Y-78529563D01*
X117564221Y-78526144D01*
X117587500Y-78525000D01*
X118162500Y-78525000D01*
X118185779Y-78526144D01*
X118185779Y-78526144D01*
G37*
D18*
X117875000Y-79000000D03*
D17*
G36*
X116435779Y-78526144D02*
G01*
X116458834Y-78529563D01*
X116481443Y-78535227D01*
X116503387Y-78543079D01*
X116524457Y-78553044D01*
X116544448Y-78565026D01*
X116563168Y-78578910D01*
X116580438Y-78594562D01*
X116596090Y-78611832D01*
X116609974Y-78630552D01*
X116621956Y-78650543D01*
X116631921Y-78671613D01*
X116639773Y-78693557D01*
X116645437Y-78716166D01*
X116648856Y-78739221D01*
X116650000Y-78762500D01*
X116650000Y-79237500D01*
X116648856Y-79260779D01*
X116645437Y-79283834D01*
X116639773Y-79306443D01*
X116631921Y-79328387D01*
X116621956Y-79349457D01*
X116609974Y-79369448D01*
X116596090Y-79388168D01*
X116580438Y-79405438D01*
X116563168Y-79421090D01*
X116544448Y-79434974D01*
X116524457Y-79446956D01*
X116503387Y-79456921D01*
X116481443Y-79464773D01*
X116458834Y-79470437D01*
X116435779Y-79473856D01*
X116412500Y-79475000D01*
X115837500Y-79475000D01*
X115814221Y-79473856D01*
X115791166Y-79470437D01*
X115768557Y-79464773D01*
X115746613Y-79456921D01*
X115725543Y-79446956D01*
X115705552Y-79434974D01*
X115686832Y-79421090D01*
X115669562Y-79405438D01*
X115653910Y-79388168D01*
X115640026Y-79369448D01*
X115628044Y-79349457D01*
X115618079Y-79328387D01*
X115610227Y-79306443D01*
X115604563Y-79283834D01*
X115601144Y-79260779D01*
X115600000Y-79237500D01*
X115600000Y-78762500D01*
X115601144Y-78739221D01*
X115604563Y-78716166D01*
X115610227Y-78693557D01*
X115618079Y-78671613D01*
X115628044Y-78650543D01*
X115640026Y-78630552D01*
X115653910Y-78611832D01*
X115669562Y-78594562D01*
X115686832Y-78578910D01*
X115705552Y-78565026D01*
X115725543Y-78553044D01*
X115746613Y-78543079D01*
X115768557Y-78535227D01*
X115791166Y-78529563D01*
X115814221Y-78526144D01*
X115837500Y-78525000D01*
X116412500Y-78525000D01*
X116435779Y-78526144D01*
X116435779Y-78526144D01*
G37*
D18*
X116125000Y-79000000D03*
D17*
G36*
X118185779Y-76026144D02*
G01*
X118208834Y-76029563D01*
X118231443Y-76035227D01*
X118253387Y-76043079D01*
X118274457Y-76053044D01*
X118294448Y-76065026D01*
X118313168Y-76078910D01*
X118330438Y-76094562D01*
X118346090Y-76111832D01*
X118359974Y-76130552D01*
X118371956Y-76150543D01*
X118381921Y-76171613D01*
X118389773Y-76193557D01*
X118395437Y-76216166D01*
X118398856Y-76239221D01*
X118400000Y-76262500D01*
X118400000Y-76737500D01*
X118398856Y-76760779D01*
X118395437Y-76783834D01*
X118389773Y-76806443D01*
X118381921Y-76828387D01*
X118371956Y-76849457D01*
X118359974Y-76869448D01*
X118346090Y-76888168D01*
X118330438Y-76905438D01*
X118313168Y-76921090D01*
X118294448Y-76934974D01*
X118274457Y-76946956D01*
X118253387Y-76956921D01*
X118231443Y-76964773D01*
X118208834Y-76970437D01*
X118185779Y-76973856D01*
X118162500Y-76975000D01*
X117587500Y-76975000D01*
X117564221Y-76973856D01*
X117541166Y-76970437D01*
X117518557Y-76964773D01*
X117496613Y-76956921D01*
X117475543Y-76946956D01*
X117455552Y-76934974D01*
X117436832Y-76921090D01*
X117419562Y-76905438D01*
X117403910Y-76888168D01*
X117390026Y-76869448D01*
X117378044Y-76849457D01*
X117368079Y-76828387D01*
X117360227Y-76806443D01*
X117354563Y-76783834D01*
X117351144Y-76760779D01*
X117350000Y-76737500D01*
X117350000Y-76262500D01*
X117351144Y-76239221D01*
X117354563Y-76216166D01*
X117360227Y-76193557D01*
X117368079Y-76171613D01*
X117378044Y-76150543D01*
X117390026Y-76130552D01*
X117403910Y-76111832D01*
X117419562Y-76094562D01*
X117436832Y-76078910D01*
X117455552Y-76065026D01*
X117475543Y-76053044D01*
X117496613Y-76043079D01*
X117518557Y-76035227D01*
X117541166Y-76029563D01*
X117564221Y-76026144D01*
X117587500Y-76025000D01*
X118162500Y-76025000D01*
X118185779Y-76026144D01*
X118185779Y-76026144D01*
G37*
D18*
X117875000Y-76500000D03*
D17*
G36*
X116435779Y-76026144D02*
G01*
X116458834Y-76029563D01*
X116481443Y-76035227D01*
X116503387Y-76043079D01*
X116524457Y-76053044D01*
X116544448Y-76065026D01*
X116563168Y-76078910D01*
X116580438Y-76094562D01*
X116596090Y-76111832D01*
X116609974Y-76130552D01*
X116621956Y-76150543D01*
X116631921Y-76171613D01*
X116639773Y-76193557D01*
X116645437Y-76216166D01*
X116648856Y-76239221D01*
X116650000Y-76262500D01*
X116650000Y-76737500D01*
X116648856Y-76760779D01*
X116645437Y-76783834D01*
X116639773Y-76806443D01*
X116631921Y-76828387D01*
X116621956Y-76849457D01*
X116609974Y-76869448D01*
X116596090Y-76888168D01*
X116580438Y-76905438D01*
X116563168Y-76921090D01*
X116544448Y-76934974D01*
X116524457Y-76946956D01*
X116503387Y-76956921D01*
X116481443Y-76964773D01*
X116458834Y-76970437D01*
X116435779Y-76973856D01*
X116412500Y-76975000D01*
X115837500Y-76975000D01*
X115814221Y-76973856D01*
X115791166Y-76970437D01*
X115768557Y-76964773D01*
X115746613Y-76956921D01*
X115725543Y-76946956D01*
X115705552Y-76934974D01*
X115686832Y-76921090D01*
X115669562Y-76905438D01*
X115653910Y-76888168D01*
X115640026Y-76869448D01*
X115628044Y-76849457D01*
X115618079Y-76828387D01*
X115610227Y-76806443D01*
X115604563Y-76783834D01*
X115601144Y-76760779D01*
X115600000Y-76737500D01*
X115600000Y-76262500D01*
X115601144Y-76239221D01*
X115604563Y-76216166D01*
X115610227Y-76193557D01*
X115618079Y-76171613D01*
X115628044Y-76150543D01*
X115640026Y-76130552D01*
X115653910Y-76111832D01*
X115669562Y-76094562D01*
X115686832Y-76078910D01*
X115705552Y-76065026D01*
X115725543Y-76053044D01*
X115746613Y-76043079D01*
X115768557Y-76035227D01*
X115791166Y-76029563D01*
X115814221Y-76026144D01*
X115837500Y-76025000D01*
X116412500Y-76025000D01*
X116435779Y-76026144D01*
X116435779Y-76026144D01*
G37*
D18*
X116125000Y-76500000D03*
D17*
G36*
X110260779Y-85851144D02*
G01*
X110283834Y-85854563D01*
X110306443Y-85860227D01*
X110328387Y-85868079D01*
X110349457Y-85878044D01*
X110369448Y-85890026D01*
X110388168Y-85903910D01*
X110405438Y-85919562D01*
X110421090Y-85936832D01*
X110434974Y-85955552D01*
X110446956Y-85975543D01*
X110456921Y-85996613D01*
X110464773Y-86018557D01*
X110470437Y-86041166D01*
X110473856Y-86064221D01*
X110475000Y-86087500D01*
X110475000Y-86662500D01*
X110473856Y-86685779D01*
X110470437Y-86708834D01*
X110464773Y-86731443D01*
X110456921Y-86753387D01*
X110446956Y-86774457D01*
X110434974Y-86794448D01*
X110421090Y-86813168D01*
X110405438Y-86830438D01*
X110388168Y-86846090D01*
X110369448Y-86859974D01*
X110349457Y-86871956D01*
X110328387Y-86881921D01*
X110306443Y-86889773D01*
X110283834Y-86895437D01*
X110260779Y-86898856D01*
X110237500Y-86900000D01*
X109762500Y-86900000D01*
X109739221Y-86898856D01*
X109716166Y-86895437D01*
X109693557Y-86889773D01*
X109671613Y-86881921D01*
X109650543Y-86871956D01*
X109630552Y-86859974D01*
X109611832Y-86846090D01*
X109594562Y-86830438D01*
X109578910Y-86813168D01*
X109565026Y-86794448D01*
X109553044Y-86774457D01*
X109543079Y-86753387D01*
X109535227Y-86731443D01*
X109529563Y-86708834D01*
X109526144Y-86685779D01*
X109525000Y-86662500D01*
X109525000Y-86087500D01*
X109526144Y-86064221D01*
X109529563Y-86041166D01*
X109535227Y-86018557D01*
X109543079Y-85996613D01*
X109553044Y-85975543D01*
X109565026Y-85955552D01*
X109578910Y-85936832D01*
X109594562Y-85919562D01*
X109611832Y-85903910D01*
X109630552Y-85890026D01*
X109650543Y-85878044D01*
X109671613Y-85868079D01*
X109693557Y-85860227D01*
X109716166Y-85854563D01*
X109739221Y-85851144D01*
X109762500Y-85850000D01*
X110237500Y-85850000D01*
X110260779Y-85851144D01*
X110260779Y-85851144D01*
G37*
D18*
X110000000Y-86375000D03*
D17*
G36*
X110260779Y-84101144D02*
G01*
X110283834Y-84104563D01*
X110306443Y-84110227D01*
X110328387Y-84118079D01*
X110349457Y-84128044D01*
X110369448Y-84140026D01*
X110388168Y-84153910D01*
X110405438Y-84169562D01*
X110421090Y-84186832D01*
X110434974Y-84205552D01*
X110446956Y-84225543D01*
X110456921Y-84246613D01*
X110464773Y-84268557D01*
X110470437Y-84291166D01*
X110473856Y-84314221D01*
X110475000Y-84337500D01*
X110475000Y-84912500D01*
X110473856Y-84935779D01*
X110470437Y-84958834D01*
X110464773Y-84981443D01*
X110456921Y-85003387D01*
X110446956Y-85024457D01*
X110434974Y-85044448D01*
X110421090Y-85063168D01*
X110405438Y-85080438D01*
X110388168Y-85096090D01*
X110369448Y-85109974D01*
X110349457Y-85121956D01*
X110328387Y-85131921D01*
X110306443Y-85139773D01*
X110283834Y-85145437D01*
X110260779Y-85148856D01*
X110237500Y-85150000D01*
X109762500Y-85150000D01*
X109739221Y-85148856D01*
X109716166Y-85145437D01*
X109693557Y-85139773D01*
X109671613Y-85131921D01*
X109650543Y-85121956D01*
X109630552Y-85109974D01*
X109611832Y-85096090D01*
X109594562Y-85080438D01*
X109578910Y-85063168D01*
X109565026Y-85044448D01*
X109553044Y-85024457D01*
X109543079Y-85003387D01*
X109535227Y-84981443D01*
X109529563Y-84958834D01*
X109526144Y-84935779D01*
X109525000Y-84912500D01*
X109525000Y-84337500D01*
X109526144Y-84314221D01*
X109529563Y-84291166D01*
X109535227Y-84268557D01*
X109543079Y-84246613D01*
X109553044Y-84225543D01*
X109565026Y-84205552D01*
X109578910Y-84186832D01*
X109594562Y-84169562D01*
X109611832Y-84153910D01*
X109630552Y-84140026D01*
X109650543Y-84128044D01*
X109671613Y-84118079D01*
X109693557Y-84110227D01*
X109716166Y-84104563D01*
X109739221Y-84101144D01*
X109762500Y-84100000D01*
X110237500Y-84100000D01*
X110260779Y-84101144D01*
X110260779Y-84101144D01*
G37*
D18*
X110000000Y-84625000D03*
D17*
G36*
X110260779Y-81851144D02*
G01*
X110283834Y-81854563D01*
X110306443Y-81860227D01*
X110328387Y-81868079D01*
X110349457Y-81878044D01*
X110369448Y-81890026D01*
X110388168Y-81903910D01*
X110405438Y-81919562D01*
X110421090Y-81936832D01*
X110434974Y-81955552D01*
X110446956Y-81975543D01*
X110456921Y-81996613D01*
X110464773Y-82018557D01*
X110470437Y-82041166D01*
X110473856Y-82064221D01*
X110475000Y-82087500D01*
X110475000Y-82662500D01*
X110473856Y-82685779D01*
X110470437Y-82708834D01*
X110464773Y-82731443D01*
X110456921Y-82753387D01*
X110446956Y-82774457D01*
X110434974Y-82794448D01*
X110421090Y-82813168D01*
X110405438Y-82830438D01*
X110388168Y-82846090D01*
X110369448Y-82859974D01*
X110349457Y-82871956D01*
X110328387Y-82881921D01*
X110306443Y-82889773D01*
X110283834Y-82895437D01*
X110260779Y-82898856D01*
X110237500Y-82900000D01*
X109762500Y-82900000D01*
X109739221Y-82898856D01*
X109716166Y-82895437D01*
X109693557Y-82889773D01*
X109671613Y-82881921D01*
X109650543Y-82871956D01*
X109630552Y-82859974D01*
X109611832Y-82846090D01*
X109594562Y-82830438D01*
X109578910Y-82813168D01*
X109565026Y-82794448D01*
X109553044Y-82774457D01*
X109543079Y-82753387D01*
X109535227Y-82731443D01*
X109529563Y-82708834D01*
X109526144Y-82685779D01*
X109525000Y-82662500D01*
X109525000Y-82087500D01*
X109526144Y-82064221D01*
X109529563Y-82041166D01*
X109535227Y-82018557D01*
X109543079Y-81996613D01*
X109553044Y-81975543D01*
X109565026Y-81955552D01*
X109578910Y-81936832D01*
X109594562Y-81919562D01*
X109611832Y-81903910D01*
X109630552Y-81890026D01*
X109650543Y-81878044D01*
X109671613Y-81868079D01*
X109693557Y-81860227D01*
X109716166Y-81854563D01*
X109739221Y-81851144D01*
X109762500Y-81850000D01*
X110237500Y-81850000D01*
X110260779Y-81851144D01*
X110260779Y-81851144D01*
G37*
D18*
X110000000Y-82375000D03*
D17*
G36*
X110260779Y-80101144D02*
G01*
X110283834Y-80104563D01*
X110306443Y-80110227D01*
X110328387Y-80118079D01*
X110349457Y-80128044D01*
X110369448Y-80140026D01*
X110388168Y-80153910D01*
X110405438Y-80169562D01*
X110421090Y-80186832D01*
X110434974Y-80205552D01*
X110446956Y-80225543D01*
X110456921Y-80246613D01*
X110464773Y-80268557D01*
X110470437Y-80291166D01*
X110473856Y-80314221D01*
X110475000Y-80337500D01*
X110475000Y-80912500D01*
X110473856Y-80935779D01*
X110470437Y-80958834D01*
X110464773Y-80981443D01*
X110456921Y-81003387D01*
X110446956Y-81024457D01*
X110434974Y-81044448D01*
X110421090Y-81063168D01*
X110405438Y-81080438D01*
X110388168Y-81096090D01*
X110369448Y-81109974D01*
X110349457Y-81121956D01*
X110328387Y-81131921D01*
X110306443Y-81139773D01*
X110283834Y-81145437D01*
X110260779Y-81148856D01*
X110237500Y-81150000D01*
X109762500Y-81150000D01*
X109739221Y-81148856D01*
X109716166Y-81145437D01*
X109693557Y-81139773D01*
X109671613Y-81131921D01*
X109650543Y-81121956D01*
X109630552Y-81109974D01*
X109611832Y-81096090D01*
X109594562Y-81080438D01*
X109578910Y-81063168D01*
X109565026Y-81044448D01*
X109553044Y-81024457D01*
X109543079Y-81003387D01*
X109535227Y-80981443D01*
X109529563Y-80958834D01*
X109526144Y-80935779D01*
X109525000Y-80912500D01*
X109525000Y-80337500D01*
X109526144Y-80314221D01*
X109529563Y-80291166D01*
X109535227Y-80268557D01*
X109543079Y-80246613D01*
X109553044Y-80225543D01*
X109565026Y-80205552D01*
X109578910Y-80186832D01*
X109594562Y-80169562D01*
X109611832Y-80153910D01*
X109630552Y-80140026D01*
X109650543Y-80128044D01*
X109671613Y-80118079D01*
X109693557Y-80110227D01*
X109716166Y-80104563D01*
X109739221Y-80101144D01*
X109762500Y-80100000D01*
X110237500Y-80100000D01*
X110260779Y-80101144D01*
X110260779Y-80101144D01*
G37*
D18*
X110000000Y-80625000D03*
D17*
G36*
X110260779Y-77851144D02*
G01*
X110283834Y-77854563D01*
X110306443Y-77860227D01*
X110328387Y-77868079D01*
X110349457Y-77878044D01*
X110369448Y-77890026D01*
X110388168Y-77903910D01*
X110405438Y-77919562D01*
X110421090Y-77936832D01*
X110434974Y-77955552D01*
X110446956Y-77975543D01*
X110456921Y-77996613D01*
X110464773Y-78018557D01*
X110470437Y-78041166D01*
X110473856Y-78064221D01*
X110475000Y-78087500D01*
X110475000Y-78662500D01*
X110473856Y-78685779D01*
X110470437Y-78708834D01*
X110464773Y-78731443D01*
X110456921Y-78753387D01*
X110446956Y-78774457D01*
X110434974Y-78794448D01*
X110421090Y-78813168D01*
X110405438Y-78830438D01*
X110388168Y-78846090D01*
X110369448Y-78859974D01*
X110349457Y-78871956D01*
X110328387Y-78881921D01*
X110306443Y-78889773D01*
X110283834Y-78895437D01*
X110260779Y-78898856D01*
X110237500Y-78900000D01*
X109762500Y-78900000D01*
X109739221Y-78898856D01*
X109716166Y-78895437D01*
X109693557Y-78889773D01*
X109671613Y-78881921D01*
X109650543Y-78871956D01*
X109630552Y-78859974D01*
X109611832Y-78846090D01*
X109594562Y-78830438D01*
X109578910Y-78813168D01*
X109565026Y-78794448D01*
X109553044Y-78774457D01*
X109543079Y-78753387D01*
X109535227Y-78731443D01*
X109529563Y-78708834D01*
X109526144Y-78685779D01*
X109525000Y-78662500D01*
X109525000Y-78087500D01*
X109526144Y-78064221D01*
X109529563Y-78041166D01*
X109535227Y-78018557D01*
X109543079Y-77996613D01*
X109553044Y-77975543D01*
X109565026Y-77955552D01*
X109578910Y-77936832D01*
X109594562Y-77919562D01*
X109611832Y-77903910D01*
X109630552Y-77890026D01*
X109650543Y-77878044D01*
X109671613Y-77868079D01*
X109693557Y-77860227D01*
X109716166Y-77854563D01*
X109739221Y-77851144D01*
X109762500Y-77850000D01*
X110237500Y-77850000D01*
X110260779Y-77851144D01*
X110260779Y-77851144D01*
G37*
D18*
X110000000Y-78375000D03*
D17*
G36*
X110260779Y-76101144D02*
G01*
X110283834Y-76104563D01*
X110306443Y-76110227D01*
X110328387Y-76118079D01*
X110349457Y-76128044D01*
X110369448Y-76140026D01*
X110388168Y-76153910D01*
X110405438Y-76169562D01*
X110421090Y-76186832D01*
X110434974Y-76205552D01*
X110446956Y-76225543D01*
X110456921Y-76246613D01*
X110464773Y-76268557D01*
X110470437Y-76291166D01*
X110473856Y-76314221D01*
X110475000Y-76337500D01*
X110475000Y-76912500D01*
X110473856Y-76935779D01*
X110470437Y-76958834D01*
X110464773Y-76981443D01*
X110456921Y-77003387D01*
X110446956Y-77024457D01*
X110434974Y-77044448D01*
X110421090Y-77063168D01*
X110405438Y-77080438D01*
X110388168Y-77096090D01*
X110369448Y-77109974D01*
X110349457Y-77121956D01*
X110328387Y-77131921D01*
X110306443Y-77139773D01*
X110283834Y-77145437D01*
X110260779Y-77148856D01*
X110237500Y-77150000D01*
X109762500Y-77150000D01*
X109739221Y-77148856D01*
X109716166Y-77145437D01*
X109693557Y-77139773D01*
X109671613Y-77131921D01*
X109650543Y-77121956D01*
X109630552Y-77109974D01*
X109611832Y-77096090D01*
X109594562Y-77080438D01*
X109578910Y-77063168D01*
X109565026Y-77044448D01*
X109553044Y-77024457D01*
X109543079Y-77003387D01*
X109535227Y-76981443D01*
X109529563Y-76958834D01*
X109526144Y-76935779D01*
X109525000Y-76912500D01*
X109525000Y-76337500D01*
X109526144Y-76314221D01*
X109529563Y-76291166D01*
X109535227Y-76268557D01*
X109543079Y-76246613D01*
X109553044Y-76225543D01*
X109565026Y-76205552D01*
X109578910Y-76186832D01*
X109594562Y-76169562D01*
X109611832Y-76153910D01*
X109630552Y-76140026D01*
X109650543Y-76128044D01*
X109671613Y-76118079D01*
X109693557Y-76110227D01*
X109716166Y-76104563D01*
X109739221Y-76101144D01*
X109762500Y-76100000D01*
X110237500Y-76100000D01*
X110260779Y-76101144D01*
X110260779Y-76101144D01*
G37*
D18*
X110000000Y-76625000D03*
D21*
X114000000Y-85500000D03*
X112000000Y-86450000D03*
X112000000Y-84550000D03*
X114000000Y-81500000D03*
X112000000Y-82450000D03*
X112000000Y-80550000D03*
X114000000Y-77500000D03*
X112000000Y-78450000D03*
X112000000Y-76550000D03*
D17*
G36*
X102474505Y-83401204D02*
G01*
X102498773Y-83404804D01*
X102522572Y-83410765D01*
X102545671Y-83419030D01*
X102567850Y-83429520D01*
X102588893Y-83442132D01*
X102608599Y-83456747D01*
X102626777Y-83473223D01*
X102643253Y-83491401D01*
X102657868Y-83511107D01*
X102670480Y-83532150D01*
X102680970Y-83554329D01*
X102689235Y-83577428D01*
X102695196Y-83601227D01*
X102698796Y-83625495D01*
X102700000Y-83649999D01*
X102700000Y-84300001D01*
X102698796Y-84324505D01*
X102695196Y-84348773D01*
X102689235Y-84372572D01*
X102680970Y-84395671D01*
X102670480Y-84417850D01*
X102657868Y-84438893D01*
X102643253Y-84458599D01*
X102626777Y-84476777D01*
X102608599Y-84493253D01*
X102588893Y-84507868D01*
X102567850Y-84520480D01*
X102545671Y-84530970D01*
X102522572Y-84539235D01*
X102498773Y-84545196D01*
X102474505Y-84548796D01*
X102450001Y-84550000D01*
X101549999Y-84550000D01*
X101525495Y-84548796D01*
X101501227Y-84545196D01*
X101477428Y-84539235D01*
X101454329Y-84530970D01*
X101432150Y-84520480D01*
X101411107Y-84507868D01*
X101391401Y-84493253D01*
X101373223Y-84476777D01*
X101356747Y-84458599D01*
X101342132Y-84438893D01*
X101329520Y-84417850D01*
X101319030Y-84395671D01*
X101310765Y-84372572D01*
X101304804Y-84348773D01*
X101301204Y-84324505D01*
X101300000Y-84300001D01*
X101300000Y-83649999D01*
X101301204Y-83625495D01*
X101304804Y-83601227D01*
X101310765Y-83577428D01*
X101319030Y-83554329D01*
X101329520Y-83532150D01*
X101342132Y-83511107D01*
X101356747Y-83491401D01*
X101373223Y-83473223D01*
X101391401Y-83456747D01*
X101411107Y-83442132D01*
X101432150Y-83429520D01*
X101454329Y-83419030D01*
X101477428Y-83410765D01*
X101501227Y-83404804D01*
X101525495Y-83401204D01*
X101549999Y-83400000D01*
X102450001Y-83400000D01*
X102474505Y-83401204D01*
X102474505Y-83401204D01*
G37*
D22*
X102000000Y-83975000D03*
D17*
G36*
X102474505Y-85451204D02*
G01*
X102498773Y-85454804D01*
X102522572Y-85460765D01*
X102545671Y-85469030D01*
X102567850Y-85479520D01*
X102588893Y-85492132D01*
X102608599Y-85506747D01*
X102626777Y-85523223D01*
X102643253Y-85541401D01*
X102657868Y-85561107D01*
X102670480Y-85582150D01*
X102680970Y-85604329D01*
X102689235Y-85627428D01*
X102695196Y-85651227D01*
X102698796Y-85675495D01*
X102700000Y-85699999D01*
X102700000Y-86350001D01*
X102698796Y-86374505D01*
X102695196Y-86398773D01*
X102689235Y-86422572D01*
X102680970Y-86445671D01*
X102670480Y-86467850D01*
X102657868Y-86488893D01*
X102643253Y-86508599D01*
X102626777Y-86526777D01*
X102608599Y-86543253D01*
X102588893Y-86557868D01*
X102567850Y-86570480D01*
X102545671Y-86580970D01*
X102522572Y-86589235D01*
X102498773Y-86595196D01*
X102474505Y-86598796D01*
X102450001Y-86600000D01*
X101549999Y-86600000D01*
X101525495Y-86598796D01*
X101501227Y-86595196D01*
X101477428Y-86589235D01*
X101454329Y-86580970D01*
X101432150Y-86570480D01*
X101411107Y-86557868D01*
X101391401Y-86543253D01*
X101373223Y-86526777D01*
X101356747Y-86508599D01*
X101342132Y-86488893D01*
X101329520Y-86467850D01*
X101319030Y-86445671D01*
X101310765Y-86422572D01*
X101304804Y-86398773D01*
X101301204Y-86374505D01*
X101300000Y-86350001D01*
X101300000Y-85699999D01*
X101301204Y-85675495D01*
X101304804Y-85651227D01*
X101310765Y-85627428D01*
X101319030Y-85604329D01*
X101329520Y-85582150D01*
X101342132Y-85561107D01*
X101356747Y-85541401D01*
X101373223Y-85523223D01*
X101391401Y-85506747D01*
X101411107Y-85492132D01*
X101432150Y-85479520D01*
X101454329Y-85469030D01*
X101477428Y-85460765D01*
X101501227Y-85454804D01*
X101525495Y-85451204D01*
X101549999Y-85450000D01*
X102450001Y-85450000D01*
X102474505Y-85451204D01*
X102474505Y-85451204D01*
G37*
D22*
X102000000Y-86025000D03*
D17*
G36*
X100260779Y-85351144D02*
G01*
X100283834Y-85354563D01*
X100306443Y-85360227D01*
X100328387Y-85368079D01*
X100349457Y-85378044D01*
X100369448Y-85390026D01*
X100388168Y-85403910D01*
X100405438Y-85419562D01*
X100421090Y-85436832D01*
X100434974Y-85455552D01*
X100446956Y-85475543D01*
X100456921Y-85496613D01*
X100464773Y-85518557D01*
X100470437Y-85541166D01*
X100473856Y-85564221D01*
X100475000Y-85587500D01*
X100475000Y-86162500D01*
X100473856Y-86185779D01*
X100470437Y-86208834D01*
X100464773Y-86231443D01*
X100456921Y-86253387D01*
X100446956Y-86274457D01*
X100434974Y-86294448D01*
X100421090Y-86313168D01*
X100405438Y-86330438D01*
X100388168Y-86346090D01*
X100369448Y-86359974D01*
X100349457Y-86371956D01*
X100328387Y-86381921D01*
X100306443Y-86389773D01*
X100283834Y-86395437D01*
X100260779Y-86398856D01*
X100237500Y-86400000D01*
X99762500Y-86400000D01*
X99739221Y-86398856D01*
X99716166Y-86395437D01*
X99693557Y-86389773D01*
X99671613Y-86381921D01*
X99650543Y-86371956D01*
X99630552Y-86359974D01*
X99611832Y-86346090D01*
X99594562Y-86330438D01*
X99578910Y-86313168D01*
X99565026Y-86294448D01*
X99553044Y-86274457D01*
X99543079Y-86253387D01*
X99535227Y-86231443D01*
X99529563Y-86208834D01*
X99526144Y-86185779D01*
X99525000Y-86162500D01*
X99525000Y-85587500D01*
X99526144Y-85564221D01*
X99529563Y-85541166D01*
X99535227Y-85518557D01*
X99543079Y-85496613D01*
X99553044Y-85475543D01*
X99565026Y-85455552D01*
X99578910Y-85436832D01*
X99594562Y-85419562D01*
X99611832Y-85403910D01*
X99630552Y-85390026D01*
X99650543Y-85378044D01*
X99671613Y-85368079D01*
X99693557Y-85360227D01*
X99716166Y-85354563D01*
X99739221Y-85351144D01*
X99762500Y-85350000D01*
X100237500Y-85350000D01*
X100260779Y-85351144D01*
X100260779Y-85351144D01*
G37*
D18*
X100000000Y-85875000D03*
D17*
G36*
X100260779Y-83601144D02*
G01*
X100283834Y-83604563D01*
X100306443Y-83610227D01*
X100328387Y-83618079D01*
X100349457Y-83628044D01*
X100369448Y-83640026D01*
X100388168Y-83653910D01*
X100405438Y-83669562D01*
X100421090Y-83686832D01*
X100434974Y-83705552D01*
X100446956Y-83725543D01*
X100456921Y-83746613D01*
X100464773Y-83768557D01*
X100470437Y-83791166D01*
X100473856Y-83814221D01*
X100475000Y-83837500D01*
X100475000Y-84412500D01*
X100473856Y-84435779D01*
X100470437Y-84458834D01*
X100464773Y-84481443D01*
X100456921Y-84503387D01*
X100446956Y-84524457D01*
X100434974Y-84544448D01*
X100421090Y-84563168D01*
X100405438Y-84580438D01*
X100388168Y-84596090D01*
X100369448Y-84609974D01*
X100349457Y-84621956D01*
X100328387Y-84631921D01*
X100306443Y-84639773D01*
X100283834Y-84645437D01*
X100260779Y-84648856D01*
X100237500Y-84650000D01*
X99762500Y-84650000D01*
X99739221Y-84648856D01*
X99716166Y-84645437D01*
X99693557Y-84639773D01*
X99671613Y-84631921D01*
X99650543Y-84621956D01*
X99630552Y-84609974D01*
X99611832Y-84596090D01*
X99594562Y-84580438D01*
X99578910Y-84563168D01*
X99565026Y-84544448D01*
X99553044Y-84524457D01*
X99543079Y-84503387D01*
X99535227Y-84481443D01*
X99529563Y-84458834D01*
X99526144Y-84435779D01*
X99525000Y-84412500D01*
X99525000Y-83837500D01*
X99526144Y-83814221D01*
X99529563Y-83791166D01*
X99535227Y-83768557D01*
X99543079Y-83746613D01*
X99553044Y-83725543D01*
X99565026Y-83705552D01*
X99578910Y-83686832D01*
X99594562Y-83669562D01*
X99611832Y-83653910D01*
X99630552Y-83640026D01*
X99650543Y-83628044D01*
X99671613Y-83618079D01*
X99693557Y-83610227D01*
X99716166Y-83604563D01*
X99739221Y-83601144D01*
X99762500Y-83600000D01*
X100237500Y-83600000D01*
X100260779Y-83601144D01*
X100260779Y-83601144D01*
G37*
D18*
X100000000Y-84125000D03*
D23*
X105340000Y-64850000D03*
X105340000Y-68750000D03*
X104070000Y-64850000D03*
X104070000Y-68750000D03*
X102800000Y-64850000D03*
X102800000Y-68750000D03*
X101530000Y-64850000D03*
X101530000Y-68750000D03*
X100260000Y-64850000D03*
X100260000Y-68750000D03*
D15*
X105620000Y-61400000D03*
X103080000Y-61400000D03*
X100540000Y-61400000D03*
D16*
X98000000Y-61400000D03*
D17*
G36*
X104474505Y-85451204D02*
G01*
X104498773Y-85454804D01*
X104522572Y-85460765D01*
X104545671Y-85469030D01*
X104567850Y-85479520D01*
X104588893Y-85492132D01*
X104608599Y-85506747D01*
X104626777Y-85523223D01*
X104643253Y-85541401D01*
X104657868Y-85561107D01*
X104670480Y-85582150D01*
X104680970Y-85604329D01*
X104689235Y-85627428D01*
X104695196Y-85651227D01*
X104698796Y-85675495D01*
X104700000Y-85699999D01*
X104700000Y-86350001D01*
X104698796Y-86374505D01*
X104695196Y-86398773D01*
X104689235Y-86422572D01*
X104680970Y-86445671D01*
X104670480Y-86467850D01*
X104657868Y-86488893D01*
X104643253Y-86508599D01*
X104626777Y-86526777D01*
X104608599Y-86543253D01*
X104588893Y-86557868D01*
X104567850Y-86570480D01*
X104545671Y-86580970D01*
X104522572Y-86589235D01*
X104498773Y-86595196D01*
X104474505Y-86598796D01*
X104450001Y-86600000D01*
X103549999Y-86600000D01*
X103525495Y-86598796D01*
X103501227Y-86595196D01*
X103477428Y-86589235D01*
X103454329Y-86580970D01*
X103432150Y-86570480D01*
X103411107Y-86557868D01*
X103391401Y-86543253D01*
X103373223Y-86526777D01*
X103356747Y-86508599D01*
X103342132Y-86488893D01*
X103329520Y-86467850D01*
X103319030Y-86445671D01*
X103310765Y-86422572D01*
X103304804Y-86398773D01*
X103301204Y-86374505D01*
X103300000Y-86350001D01*
X103300000Y-85699999D01*
X103301204Y-85675495D01*
X103304804Y-85651227D01*
X103310765Y-85627428D01*
X103319030Y-85604329D01*
X103329520Y-85582150D01*
X103342132Y-85561107D01*
X103356747Y-85541401D01*
X103373223Y-85523223D01*
X103391401Y-85506747D01*
X103411107Y-85492132D01*
X103432150Y-85479520D01*
X103454329Y-85469030D01*
X103477428Y-85460765D01*
X103501227Y-85454804D01*
X103525495Y-85451204D01*
X103549999Y-85450000D01*
X104450001Y-85450000D01*
X104474505Y-85451204D01*
X104474505Y-85451204D01*
G37*
D22*
X104000000Y-86025000D03*
D17*
G36*
X104474505Y-83401204D02*
G01*
X104498773Y-83404804D01*
X104522572Y-83410765D01*
X104545671Y-83419030D01*
X104567850Y-83429520D01*
X104588893Y-83442132D01*
X104608599Y-83456747D01*
X104626777Y-83473223D01*
X104643253Y-83491401D01*
X104657868Y-83511107D01*
X104670480Y-83532150D01*
X104680970Y-83554329D01*
X104689235Y-83577428D01*
X104695196Y-83601227D01*
X104698796Y-83625495D01*
X104700000Y-83649999D01*
X104700000Y-84300001D01*
X104698796Y-84324505D01*
X104695196Y-84348773D01*
X104689235Y-84372572D01*
X104680970Y-84395671D01*
X104670480Y-84417850D01*
X104657868Y-84438893D01*
X104643253Y-84458599D01*
X104626777Y-84476777D01*
X104608599Y-84493253D01*
X104588893Y-84507868D01*
X104567850Y-84520480D01*
X104545671Y-84530970D01*
X104522572Y-84539235D01*
X104498773Y-84545196D01*
X104474505Y-84548796D01*
X104450001Y-84550000D01*
X103549999Y-84550000D01*
X103525495Y-84548796D01*
X103501227Y-84545196D01*
X103477428Y-84539235D01*
X103454329Y-84530970D01*
X103432150Y-84520480D01*
X103411107Y-84507868D01*
X103391401Y-84493253D01*
X103373223Y-84476777D01*
X103356747Y-84458599D01*
X103342132Y-84438893D01*
X103329520Y-84417850D01*
X103319030Y-84395671D01*
X103310765Y-84372572D01*
X103304804Y-84348773D01*
X103301204Y-84324505D01*
X103300000Y-84300001D01*
X103300000Y-83649999D01*
X103301204Y-83625495D01*
X103304804Y-83601227D01*
X103310765Y-83577428D01*
X103319030Y-83554329D01*
X103329520Y-83532150D01*
X103342132Y-83511107D01*
X103356747Y-83491401D01*
X103373223Y-83473223D01*
X103391401Y-83456747D01*
X103411107Y-83442132D01*
X103432150Y-83429520D01*
X103454329Y-83419030D01*
X103477428Y-83410765D01*
X103501227Y-83404804D01*
X103525495Y-83401204D01*
X103549999Y-83400000D01*
X104450001Y-83400000D01*
X104474505Y-83401204D01*
X104474505Y-83401204D01*
G37*
D22*
X104000000Y-83975000D03*
D24*
X94400000Y-69900000D03*
X96700000Y-68800000D03*
X98000000Y-68800000D03*
X98900000Y-69500000D03*
X115000000Y-62500000D03*
X106000000Y-80500000D03*
X104000000Y-82250000D03*
X106000000Y-82250000D03*
X92500000Y-90000000D03*
X97500000Y-90000000D03*
X102500000Y-90000000D03*
X107500000Y-90000000D03*
X112500000Y-90000000D03*
X117500000Y-90000000D03*
X120000000Y-90000000D03*
X92500000Y-62500000D03*
X95000000Y-62500000D03*
X107500000Y-62500000D03*
X112000000Y-62500000D03*
X120000000Y-62500000D03*
X107500000Y-70000000D03*
X108500000Y-74500000D03*
X117000000Y-72500000D03*
X118500000Y-75000000D03*
X120500000Y-83500000D03*
X120500000Y-69000000D03*
X106000000Y-86000000D03*
X107500000Y-86000000D03*
X98000000Y-87500000D03*
X92500000Y-83000000D03*
X91500000Y-69500000D03*
X111500000Y-70000000D03*
X98000000Y-67600000D03*
X106000000Y-72600000D03*
X105800000Y-83975000D03*
X109100000Y-83500000D03*
X109100000Y-79500000D03*
X108300000Y-76625000D03*
X114500000Y-83000000D03*
X114500000Y-79000000D03*
D25*
X100000000Y-82000000D02*
X100500000Y-82500000D01*
X100000000Y-80950000D02*
X100000000Y-82000000D01*
X102525000Y-82500000D02*
X104000000Y-83975000D01*
X100500000Y-82500000D02*
X102525000Y-82500000D01*
X111925000Y-84625000D02*
X112000000Y-84550000D01*
X110000000Y-84625000D02*
X111925000Y-84625000D01*
X111925000Y-80625000D02*
X112000000Y-80550000D01*
X110000000Y-80625000D02*
X111925000Y-80625000D01*
X111925000Y-76625000D02*
X112000000Y-76550000D01*
X110000000Y-76625000D02*
X111925000Y-76625000D01*
D26*
X105800000Y-83975000D02*
X104000000Y-83975000D01*
D25*
X110000000Y-84400000D02*
X110000000Y-84625000D01*
X109100000Y-83500000D02*
X110000000Y-84400000D01*
X110000000Y-80400000D02*
X110000000Y-80625000D01*
X109100000Y-79500000D02*
X110000000Y-80400000D01*
X108300000Y-76625000D02*
X110000000Y-76625000D01*
X110025000Y-72600000D02*
X110000000Y-72625000D01*
D26*
X111650000Y-72600000D02*
X110025000Y-72600000D01*
D25*
X109975000Y-72600000D02*
X110000000Y-72625000D01*
D26*
X106000000Y-72600000D02*
X109975000Y-72600000D01*
D25*
X100210000Y-68800000D02*
X100260000Y-68750000D01*
X98565685Y-67600000D02*
X98000000Y-67600000D01*
X99900000Y-67600000D02*
X98565685Y-67600000D01*
X100260000Y-67960000D02*
X99900000Y-67600000D01*
X100260000Y-68750000D02*
X100260000Y-67960000D01*
X98600000Y-80950000D02*
X98600000Y-82400000D01*
X98600000Y-82400000D02*
X98000000Y-83000000D01*
X98000000Y-83000000D02*
X98000000Y-84125000D01*
X98000000Y-84125000D02*
X100000000Y-84125000D01*
X116125000Y-81500000D02*
X116125000Y-76500000D01*
X115275000Y-72550000D02*
X115200000Y-72625000D01*
D26*
X115275000Y-70700000D02*
X115275000Y-72550000D01*
D25*
X113575000Y-72625000D02*
X113550000Y-72600000D01*
D26*
X115200000Y-72625000D02*
X113575000Y-72625000D01*
X115275000Y-70700000D02*
X117000000Y-70700000D01*
X117470000Y-71170000D02*
X120500000Y-71170000D01*
X117000000Y-70700000D02*
X117470000Y-71170000D01*
D25*
X116125000Y-76500000D02*
X116900000Y-75725000D01*
X116900000Y-74325000D02*
X115200000Y-72625000D01*
X116900000Y-75725000D02*
X116900000Y-74325000D01*
X115275000Y-62775000D02*
X115000000Y-62500000D01*
X115275000Y-70700000D02*
X115275000Y-62775000D01*
X93000000Y-70176410D02*
X93000000Y-71550000D01*
X93000000Y-70176410D02*
X93023590Y-70176410D01*
X93023590Y-70176410D02*
X96400000Y-66800000D01*
X96400000Y-66800000D02*
X101200000Y-66800000D01*
X101530000Y-66470000D02*
X101530000Y-64850000D01*
X101200000Y-66800000D02*
X101530000Y-66470000D01*
X101530000Y-62950000D02*
X103080000Y-61400000D01*
X101530000Y-64850000D02*
X101530000Y-62950000D01*
X100260000Y-65680000D02*
X100260000Y-64850000D01*
X99590010Y-66349990D02*
X100260000Y-65680000D01*
X96190010Y-66349990D02*
X99590010Y-66349990D01*
X92300000Y-70240000D02*
X96190010Y-66349990D01*
X92300000Y-71550000D02*
X92300000Y-70240000D01*
X100260000Y-61680000D02*
X100540000Y-61400000D01*
X100260000Y-64850000D02*
X100260000Y-61680000D01*
X120330000Y-81500000D02*
X120500000Y-81330000D01*
X117875000Y-81500000D02*
X120330000Y-81500000D01*
X117875000Y-81675000D02*
X117875000Y-81500000D01*
X114050000Y-85500000D02*
X117875000Y-81675000D01*
X114000000Y-85500000D02*
X114050000Y-85500000D01*
X120290000Y-79000000D02*
X120500000Y-78790000D01*
X117875000Y-79000000D02*
X120290000Y-79000000D01*
X114000000Y-82500000D02*
X114500000Y-83000000D01*
X114000000Y-81500000D02*
X114000000Y-82500000D01*
X120250000Y-76500000D02*
X120500000Y-76250000D01*
X117875000Y-76500000D02*
X120250000Y-76500000D01*
X114000000Y-78500000D02*
X114500000Y-79000000D01*
X114000000Y-77500000D02*
X114000000Y-78500000D01*
X101850000Y-85875000D02*
X102000000Y-86025000D01*
X100000000Y-85875000D02*
X101850000Y-85875000D01*
X99300000Y-80950000D02*
X99300000Y-82400000D01*
X101376628Y-83351628D02*
X102000000Y-83975000D01*
X101299990Y-83274990D02*
X101376628Y-83351628D01*
X100174990Y-83274990D02*
X101299990Y-83274990D01*
X99300000Y-82400000D02*
X100174990Y-83274990D01*
X108575000Y-78375000D02*
X110000000Y-78375000D01*
X105750000Y-75550000D02*
X108575000Y-78375000D01*
X102200000Y-75550000D02*
X105750000Y-75550000D01*
X111925000Y-78375000D02*
X112000000Y-78450000D01*
X110000000Y-78375000D02*
X111925000Y-78375000D01*
X102200000Y-76250000D02*
X105250000Y-76250000D01*
X105250000Y-76250000D02*
X108200000Y-79200000D01*
X108200000Y-80575000D02*
X110000000Y-82375000D01*
X108200000Y-79200000D02*
X108200000Y-80575000D01*
X111925000Y-82375000D02*
X112000000Y-82450000D01*
X110000000Y-82375000D02*
X111925000Y-82375000D01*
X102200000Y-76950000D02*
X104950000Y-76950000D01*
X104950000Y-76950000D02*
X107500000Y-79500000D01*
X107500000Y-83875000D02*
X110000000Y-86375000D01*
X107500000Y-79500000D02*
X107500000Y-83875000D01*
X111925000Y-86375000D02*
X112000000Y-86450000D01*
X110000000Y-86375000D02*
X111925000Y-86375000D01*
X96500000Y-70500000D02*
X96900000Y-70100000D01*
X96500000Y-71550000D02*
X96500000Y-70500000D01*
X98300000Y-70100000D02*
X98900000Y-69500000D01*
X96900000Y-70100000D02*
X98300000Y-70100000D01*
X95800000Y-70500000D02*
X96700000Y-69600000D01*
X95800000Y-71550000D02*
X95800000Y-70500000D01*
X97200000Y-69600000D02*
X98000000Y-68800000D01*
X96700000Y-69600000D02*
X97200000Y-69600000D01*
X95100000Y-70400000D02*
X96700000Y-68800000D01*
X95100000Y-71550000D02*
X95100000Y-70400000D01*
X93700000Y-70600000D02*
X94400000Y-69900000D01*
X93700000Y-71550000D02*
X93700000Y-70600000D01*
X113525000Y-66725000D02*
X113300000Y-66500000D01*
D26*
X113525000Y-70700000D02*
X113525000Y-66725000D01*
D27*
G36*
X100375518Y-72975812D02*
G01*
X100500000Y-72988072D01*
X100765678Y-72988072D01*
X100774188Y-73074482D01*
X100781929Y-73100000D01*
X100774188Y-73125518D01*
X100761928Y-73250000D01*
X100761928Y-73650000D01*
X100774188Y-73774482D01*
X100781929Y-73800000D01*
X100774188Y-73825518D01*
X100761928Y-73950000D01*
X100761928Y-74350000D01*
X100774188Y-74474482D01*
X100781929Y-74500000D01*
X100774188Y-74525518D01*
X100761928Y-74650000D01*
X100761928Y-75050000D01*
X100774188Y-75174482D01*
X100781929Y-75200000D01*
X100774188Y-75225518D01*
X100761928Y-75350000D01*
X100761928Y-75750000D01*
X100774188Y-75874482D01*
X100781929Y-75900000D01*
X100774188Y-75925518D01*
X100761928Y-76050000D01*
X100761928Y-76450000D01*
X100774188Y-76574482D01*
X100781929Y-76600000D01*
X100774188Y-76625518D01*
X100761928Y-76750000D01*
X100761928Y-77150000D01*
X100774188Y-77274482D01*
X100781929Y-77300000D01*
X100774188Y-77325518D01*
X100761928Y-77450000D01*
X100761928Y-77850000D01*
X100774188Y-77974482D01*
X100781929Y-78000000D01*
X100774188Y-78025518D01*
X100761928Y-78150000D01*
X100761928Y-78550000D01*
X100774188Y-78674482D01*
X100781929Y-78700000D01*
X100774188Y-78725518D01*
X100761928Y-78850000D01*
X100761928Y-79250000D01*
X100774188Y-79374482D01*
X100781929Y-79400000D01*
X100774188Y-79425518D01*
X100761928Y-79550000D01*
X100761928Y-79854233D01*
X100730537Y-79795506D01*
X100651185Y-79698815D01*
X100554494Y-79619463D01*
X100444180Y-79560498D01*
X100324482Y-79524188D01*
X100200000Y-79511928D01*
X99800000Y-79511928D01*
X99675518Y-79524188D01*
X99650000Y-79531929D01*
X99624482Y-79524188D01*
X99500000Y-79511928D01*
X99100000Y-79511928D01*
X98975518Y-79524188D01*
X98950000Y-79531929D01*
X98924482Y-79524188D01*
X98800000Y-79511928D01*
X98400000Y-79511928D01*
X98275518Y-79524188D01*
X98250000Y-79531929D01*
X98224482Y-79524188D01*
X98100000Y-79511928D01*
X97700000Y-79511928D01*
X97575518Y-79524188D01*
X97550000Y-79531929D01*
X97524482Y-79524188D01*
X97400000Y-79511928D01*
X97000000Y-79511928D01*
X96875518Y-79524188D01*
X96850000Y-79531929D01*
X96824482Y-79524188D01*
X96700000Y-79511928D01*
X96300000Y-79511928D01*
X96175518Y-79524188D01*
X96150000Y-79531929D01*
X96124482Y-79524188D01*
X96000000Y-79511928D01*
X95600000Y-79511928D01*
X95475518Y-79524188D01*
X95450000Y-79531929D01*
X95424482Y-79524188D01*
X95300000Y-79511928D01*
X94900000Y-79511928D01*
X94775518Y-79524188D01*
X94750000Y-79531929D01*
X94724482Y-79524188D01*
X94600000Y-79511928D01*
X94200000Y-79511928D01*
X94075518Y-79524188D01*
X94050000Y-79531929D01*
X94024482Y-79524188D01*
X93900000Y-79511928D01*
X93500000Y-79511928D01*
X93375518Y-79524188D01*
X93255820Y-79560498D01*
X93145506Y-79619463D01*
X93048815Y-79698815D01*
X92969463Y-79795506D01*
X92910498Y-79905820D01*
X92874188Y-80025518D01*
X92861928Y-80150000D01*
X92861928Y-81750000D01*
X92874188Y-81874482D01*
X92910498Y-81994180D01*
X92969463Y-82104494D01*
X93048815Y-82201185D01*
X93145506Y-82280537D01*
X93255820Y-82339502D01*
X93375518Y-82375812D01*
X93500000Y-82388072D01*
X93900000Y-82388072D01*
X94024482Y-82375812D01*
X94050000Y-82368071D01*
X94075518Y-82375812D01*
X94200000Y-82388072D01*
X94600000Y-82388072D01*
X94724482Y-82375812D01*
X94750000Y-82368071D01*
X94775518Y-82375812D01*
X94900000Y-82388072D01*
X95300000Y-82388072D01*
X95424482Y-82375812D01*
X95450000Y-82368071D01*
X95475518Y-82375812D01*
X95600000Y-82388072D01*
X96000000Y-82388072D01*
X96124482Y-82375812D01*
X96150000Y-82368071D01*
X96175518Y-82375812D01*
X96300000Y-82388072D01*
X96700000Y-82388072D01*
X96824482Y-82375812D01*
X96850000Y-82368071D01*
X96875518Y-82375812D01*
X97000000Y-82388072D01*
X97400000Y-82388072D01*
X97524482Y-82375812D01*
X97550000Y-82368071D01*
X97555469Y-82369730D01*
X97489002Y-82436197D01*
X97459999Y-82459999D01*
X97407488Y-82523985D01*
X97365026Y-82575724D01*
X97318643Y-82662500D01*
X97294454Y-82707754D01*
X97250997Y-82851015D01*
X97240000Y-82962668D01*
X97240000Y-82962678D01*
X97236324Y-83000000D01*
X97240000Y-83037323D01*
X97240000Y-83139080D01*
X97143377Y-83218377D01*
X97034488Y-83351058D01*
X96953577Y-83502433D01*
X96903752Y-83666684D01*
X96886928Y-83837500D01*
X96886928Y-84412500D01*
X96903752Y-84583316D01*
X96953577Y-84747567D01*
X97034488Y-84898942D01*
X97054099Y-84922839D01*
X96994463Y-84995506D01*
X96935498Y-85105820D01*
X96899188Y-85225518D01*
X96886928Y-85350000D01*
X96890000Y-85589250D01*
X97048750Y-85748000D01*
X97873000Y-85748000D01*
X97873000Y-85728000D01*
X98127000Y-85728000D01*
X98127000Y-85748000D01*
X98147000Y-85748000D01*
X98147000Y-86002000D01*
X98127000Y-86002000D01*
X98127000Y-86876250D01*
X98285750Y-87035000D01*
X98475000Y-87038072D01*
X98599482Y-87025812D01*
X98719180Y-86989502D01*
X98829494Y-86930537D01*
X98926185Y-86851185D01*
X99005537Y-86754494D01*
X99051122Y-86669211D01*
X99143377Y-86781623D01*
X99276058Y-86890512D01*
X99427433Y-86971423D01*
X99591684Y-87021248D01*
X99762500Y-87038072D01*
X100237500Y-87038072D01*
X100408316Y-87021248D01*
X100572567Y-86971423D01*
X100723942Y-86890512D01*
X100802377Y-86826142D01*
X100811595Y-86843387D01*
X100922038Y-86977962D01*
X101056613Y-87088405D01*
X101210149Y-87170472D01*
X101376745Y-87221008D01*
X101549999Y-87238072D01*
X102450001Y-87238072D01*
X102623255Y-87221008D01*
X102789851Y-87170472D01*
X102913581Y-87104337D01*
X102945506Y-87130537D01*
X103055820Y-87189502D01*
X103175518Y-87225812D01*
X103300000Y-87238072D01*
X103714250Y-87235000D01*
X103873000Y-87076250D01*
X103873000Y-86152000D01*
X104127000Y-86152000D01*
X104127000Y-87076250D01*
X104285750Y-87235000D01*
X104700000Y-87238072D01*
X104824482Y-87225812D01*
X104944180Y-87189502D01*
X105054494Y-87130537D01*
X105151185Y-87051185D01*
X105230537Y-86954494D01*
X105289502Y-86844180D01*
X105325812Y-86724482D01*
X105338072Y-86600000D01*
X105335000Y-86310750D01*
X105176250Y-86152000D01*
X104127000Y-86152000D01*
X103873000Y-86152000D01*
X103853000Y-86152000D01*
X103853000Y-85898000D01*
X103873000Y-85898000D01*
X103873000Y-85878000D01*
X104127000Y-85878000D01*
X104127000Y-85898000D01*
X105176250Y-85898000D01*
X105335000Y-85739250D01*
X105338072Y-85450000D01*
X105325812Y-85325518D01*
X105289502Y-85205820D01*
X105230537Y-85095506D01*
X105151185Y-84998815D01*
X105071406Y-84933342D01*
X105077962Y-84927962D01*
X105133737Y-84860000D01*
X105261546Y-84860000D01*
X105309744Y-84892205D01*
X105498102Y-84970226D01*
X105698061Y-85010000D01*
X105901939Y-85010000D01*
X106101898Y-84970226D01*
X106290256Y-84892205D01*
X106459774Y-84778937D01*
X106603937Y-84634774D01*
X106717205Y-84465256D01*
X106795226Y-84276898D01*
X106810912Y-84198037D01*
X106865026Y-84299276D01*
X106917051Y-84362668D01*
X106960000Y-84415001D01*
X106988998Y-84438799D01*
X108886928Y-86336730D01*
X108886928Y-86662500D01*
X108903752Y-86833316D01*
X108953577Y-86997567D01*
X109034488Y-87148942D01*
X109143377Y-87281623D01*
X109276058Y-87390512D01*
X109427433Y-87471423D01*
X109591684Y-87521248D01*
X109762500Y-87538072D01*
X110237500Y-87538072D01*
X110408316Y-87521248D01*
X110572567Y-87471423D01*
X110723942Y-87390512D01*
X110856623Y-87281623D01*
X110965512Y-87148942D01*
X110972964Y-87135000D01*
X110982317Y-87135000D01*
X111019463Y-87204494D01*
X111098815Y-87301185D01*
X111195506Y-87380537D01*
X111305820Y-87439502D01*
X111425518Y-87475812D01*
X111550000Y-87488072D01*
X112450000Y-87488072D01*
X112574482Y-87475812D01*
X112694180Y-87439502D01*
X112804494Y-87380537D01*
X112901185Y-87301185D01*
X112980537Y-87204494D01*
X113039502Y-87094180D01*
X113075812Y-86974482D01*
X113088072Y-86850000D01*
X113088072Y-86338095D01*
X113098815Y-86351185D01*
X113195506Y-86430537D01*
X113305820Y-86489502D01*
X113425518Y-86525812D01*
X113550000Y-86538072D01*
X114450000Y-86538072D01*
X114574482Y-86525812D01*
X114694180Y-86489502D01*
X114804494Y-86430537D01*
X114901185Y-86351185D01*
X114959709Y-86279872D01*
X116765000Y-86279872D01*
X116765000Y-86720128D01*
X116850890Y-87151925D01*
X117019369Y-87558669D01*
X117263962Y-87924729D01*
X117575271Y-88236038D01*
X117941331Y-88480631D01*
X118348075Y-88649110D01*
X118779872Y-88735000D01*
X119220128Y-88735000D01*
X119651925Y-88649110D01*
X120058669Y-88480631D01*
X120424729Y-88236038D01*
X120736038Y-87924729D01*
X120980631Y-87558669D01*
X121149110Y-87151925D01*
X121235000Y-86720128D01*
X121235000Y-86279872D01*
X121149110Y-85848075D01*
X120980631Y-85441331D01*
X120736038Y-85075271D01*
X120424729Y-84763962D01*
X120058669Y-84519369D01*
X119651925Y-84350890D01*
X119220128Y-84265000D01*
X118779872Y-84265000D01*
X118348075Y-84350890D01*
X117941331Y-84519369D01*
X117575271Y-84763962D01*
X117263962Y-85075271D01*
X117019369Y-85441331D01*
X116850890Y-85848075D01*
X116765000Y-86279872D01*
X114959709Y-86279872D01*
X114980537Y-86254494D01*
X115039502Y-86144180D01*
X115075812Y-86024482D01*
X115088072Y-85900000D01*
X115088072Y-85536729D01*
X118011730Y-82613072D01*
X118162500Y-82613072D01*
X118333316Y-82596248D01*
X118497567Y-82546423D01*
X118648942Y-82465512D01*
X118781623Y-82356623D01*
X118860920Y-82260000D01*
X119342171Y-82260000D01*
X119444866Y-82385134D01*
X119670986Y-82570706D01*
X119928966Y-82708599D01*
X120208889Y-82793513D01*
X120427050Y-82815000D01*
X120572950Y-82815000D01*
X120791111Y-82793513D01*
X121071034Y-82708599D01*
X121329014Y-82570706D01*
X121340001Y-82561689D01*
X121340001Y-91340000D01*
X90660000Y-91340000D01*
X90660000Y-89388212D01*
X93365000Y-89388212D01*
X93365000Y-89611788D01*
X93408617Y-89831067D01*
X93494176Y-90037624D01*
X93618388Y-90223520D01*
X93776480Y-90381612D01*
X93962376Y-90505824D01*
X94168933Y-90591383D01*
X94388212Y-90635000D01*
X94611788Y-90635000D01*
X94831067Y-90591383D01*
X95037624Y-90505824D01*
X95223520Y-90381612D01*
X95381612Y-90223520D01*
X95505824Y-90037624D01*
X95591383Y-89831067D01*
X95635000Y-89611788D01*
X95635000Y-89388212D01*
X95591383Y-89168933D01*
X95505824Y-88962376D01*
X95381612Y-88776480D01*
X95223520Y-88618388D01*
X95037624Y-88494176D01*
X94831067Y-88408617D01*
X94611788Y-88365000D01*
X94388212Y-88365000D01*
X94168933Y-88408617D01*
X93962376Y-88494176D01*
X93776480Y-88618388D01*
X93618388Y-88776480D01*
X93494176Y-88962376D01*
X93408617Y-89168933D01*
X93365000Y-89388212D01*
X90660000Y-89388212D01*
X90660000Y-85779872D01*
X90765000Y-85779872D01*
X90765000Y-86220128D01*
X90850890Y-86651925D01*
X91019369Y-87058669D01*
X91263962Y-87424729D01*
X91575271Y-87736038D01*
X91941331Y-87980631D01*
X92348075Y-88149110D01*
X92779872Y-88235000D01*
X93220128Y-88235000D01*
X93651925Y-88149110D01*
X94058669Y-87980631D01*
X94424729Y-87736038D01*
X94736038Y-87424729D01*
X94980631Y-87058669D01*
X95149110Y-86651925D01*
X95199221Y-86400000D01*
X96886928Y-86400000D01*
X96899188Y-86524482D01*
X96935498Y-86644180D01*
X96994463Y-86754494D01*
X97073815Y-86851185D01*
X97170506Y-86930537D01*
X97280820Y-86989502D01*
X97400518Y-87025812D01*
X97525000Y-87038072D01*
X97714250Y-87035000D01*
X97873000Y-86876250D01*
X97873000Y-86002000D01*
X97048750Y-86002000D01*
X96890000Y-86160750D01*
X96886928Y-86400000D01*
X95199221Y-86400000D01*
X95235000Y-86220128D01*
X95235000Y-85779872D01*
X95149110Y-85348075D01*
X94980631Y-84941331D01*
X94736038Y-84575271D01*
X94424729Y-84263962D01*
X94058669Y-84019369D01*
X93651925Y-83850890D01*
X93220128Y-83765000D01*
X92779872Y-83765000D01*
X92348075Y-83850890D01*
X91941331Y-84019369D01*
X91575271Y-84263962D01*
X91263962Y-84575271D01*
X91019369Y-84941331D01*
X90850890Y-85348075D01*
X90765000Y-85779872D01*
X90660000Y-85779872D01*
X90660000Y-81077000D01*
X90827000Y-81077000D01*
X90827000Y-82226250D01*
X90985750Y-82385000D01*
X91100000Y-82388072D01*
X91224482Y-82375812D01*
X91344180Y-82339502D01*
X91454494Y-82280537D01*
X91551185Y-82201185D01*
X91630537Y-82104494D01*
X91689502Y-81994180D01*
X91725812Y-81874482D01*
X91738072Y-81750000D01*
X91735000Y-81235750D01*
X91576250Y-81077000D01*
X90827000Y-81077000D01*
X90660000Y-81077000D01*
X90660000Y-79673750D01*
X90827000Y-79673750D01*
X90827000Y-80823000D01*
X91576250Y-80823000D01*
X91735000Y-80664250D01*
X91738072Y-80150000D01*
X91725812Y-80025518D01*
X91689502Y-79905820D01*
X91630537Y-79795506D01*
X91551185Y-79698815D01*
X91454494Y-79619463D01*
X91344180Y-79560498D01*
X91224482Y-79524188D01*
X91100000Y-79511928D01*
X90985750Y-79515000D01*
X90827000Y-79673750D01*
X90660000Y-79673750D01*
X90660000Y-76827000D01*
X93400000Y-76827000D01*
X93424776Y-76824560D01*
X93448601Y-76817333D01*
X93470557Y-76805597D01*
X93489803Y-76789803D01*
X93505597Y-76770557D01*
X93517333Y-76748601D01*
X93524560Y-76724776D01*
X93527000Y-76700000D01*
X93527000Y-72988072D01*
X93900000Y-72988072D01*
X94024482Y-72975812D01*
X94050000Y-72968071D01*
X94075518Y-72975812D01*
X94200000Y-72988072D01*
X94600000Y-72988072D01*
X94724482Y-72975812D01*
X94750000Y-72968071D01*
X94775518Y-72975812D01*
X94900000Y-72988072D01*
X95300000Y-72988072D01*
X95424482Y-72975812D01*
X95450000Y-72968071D01*
X95475518Y-72975812D01*
X95600000Y-72988072D01*
X96000000Y-72988072D01*
X96124482Y-72975812D01*
X96150000Y-72968071D01*
X96175518Y-72975812D01*
X96300000Y-72988072D01*
X96700000Y-72988072D01*
X96824482Y-72975812D01*
X96850000Y-72968071D01*
X96875518Y-72975812D01*
X97000000Y-72988072D01*
X97400000Y-72988072D01*
X97524482Y-72975812D01*
X97550000Y-72968071D01*
X97575518Y-72975812D01*
X97700000Y-72988072D01*
X98100000Y-72988072D01*
X98224482Y-72975812D01*
X98250000Y-72968071D01*
X98275518Y-72975812D01*
X98400000Y-72988072D01*
X98800000Y-72988072D01*
X98924482Y-72975812D01*
X98950000Y-72968071D01*
X98975518Y-72975812D01*
X99100000Y-72988072D01*
X99500000Y-72988072D01*
X99624482Y-72975812D01*
X99650000Y-72968071D01*
X99675518Y-72975812D01*
X99800000Y-72988072D01*
X100200000Y-72988072D01*
X100324482Y-72975812D01*
X100350000Y-72968071D01*
X100375518Y-72975812D01*
X100375518Y-72975812D01*
G37*
X100375518Y-72975812D02*
X100500000Y-72988072D01*
X100765678Y-72988072D01*
X100774188Y-73074482D01*
X100781929Y-73100000D01*
X100774188Y-73125518D01*
X100761928Y-73250000D01*
X100761928Y-73650000D01*
X100774188Y-73774482D01*
X100781929Y-73800000D01*
X100774188Y-73825518D01*
X100761928Y-73950000D01*
X100761928Y-74350000D01*
X100774188Y-74474482D01*
X100781929Y-74500000D01*
X100774188Y-74525518D01*
X100761928Y-74650000D01*
X100761928Y-75050000D01*
X100774188Y-75174482D01*
X100781929Y-75200000D01*
X100774188Y-75225518D01*
X100761928Y-75350000D01*
X100761928Y-75750000D01*
X100774188Y-75874482D01*
X100781929Y-75900000D01*
X100774188Y-75925518D01*
X100761928Y-76050000D01*
X100761928Y-76450000D01*
X100774188Y-76574482D01*
X100781929Y-76600000D01*
X100774188Y-76625518D01*
X100761928Y-76750000D01*
X100761928Y-77150000D01*
X100774188Y-77274482D01*
X100781929Y-77300000D01*
X100774188Y-77325518D01*
X100761928Y-77450000D01*
X100761928Y-77850000D01*
X100774188Y-77974482D01*
X100781929Y-78000000D01*
X100774188Y-78025518D01*
X100761928Y-78150000D01*
X100761928Y-78550000D01*
X100774188Y-78674482D01*
X100781929Y-78700000D01*
X100774188Y-78725518D01*
X100761928Y-78850000D01*
X100761928Y-79250000D01*
X100774188Y-79374482D01*
X100781929Y-79400000D01*
X100774188Y-79425518D01*
X100761928Y-79550000D01*
X100761928Y-79854233D01*
X100730537Y-79795506D01*
X100651185Y-79698815D01*
X100554494Y-79619463D01*
X100444180Y-79560498D01*
X100324482Y-79524188D01*
X100200000Y-79511928D01*
X99800000Y-79511928D01*
X99675518Y-79524188D01*
X99650000Y-79531929D01*
X99624482Y-79524188D01*
X99500000Y-79511928D01*
X99100000Y-79511928D01*
X98975518Y-79524188D01*
X98950000Y-79531929D01*
X98924482Y-79524188D01*
X98800000Y-79511928D01*
X98400000Y-79511928D01*
X98275518Y-79524188D01*
X98250000Y-79531929D01*
X98224482Y-79524188D01*
X98100000Y-79511928D01*
X97700000Y-79511928D01*
X97575518Y-79524188D01*
X97550000Y-79531929D01*
X97524482Y-79524188D01*
X97400000Y-79511928D01*
X97000000Y-79511928D01*
X96875518Y-79524188D01*
X96850000Y-79531929D01*
X96824482Y-79524188D01*
X96700000Y-79511928D01*
X96300000Y-79511928D01*
X96175518Y-79524188D01*
X96150000Y-79531929D01*
X96124482Y-79524188D01*
X96000000Y-79511928D01*
X95600000Y-79511928D01*
X95475518Y-79524188D01*
X95450000Y-79531929D01*
X95424482Y-79524188D01*
X95300000Y-79511928D01*
X94900000Y-79511928D01*
X94775518Y-79524188D01*
X94750000Y-79531929D01*
X94724482Y-79524188D01*
X94600000Y-79511928D01*
X94200000Y-79511928D01*
X94075518Y-79524188D01*
X94050000Y-79531929D01*
X94024482Y-79524188D01*
X93900000Y-79511928D01*
X93500000Y-79511928D01*
X93375518Y-79524188D01*
X93255820Y-79560498D01*
X93145506Y-79619463D01*
X93048815Y-79698815D01*
X92969463Y-79795506D01*
X92910498Y-79905820D01*
X92874188Y-80025518D01*
X92861928Y-80150000D01*
X92861928Y-81750000D01*
X92874188Y-81874482D01*
X92910498Y-81994180D01*
X92969463Y-82104494D01*
X93048815Y-82201185D01*
X93145506Y-82280537D01*
X93255820Y-82339502D01*
X93375518Y-82375812D01*
X93500000Y-82388072D01*
X93900000Y-82388072D01*
X94024482Y-82375812D01*
X94050000Y-82368071D01*
X94075518Y-82375812D01*
X94200000Y-82388072D01*
X94600000Y-82388072D01*
X94724482Y-82375812D01*
X94750000Y-82368071D01*
X94775518Y-82375812D01*
X94900000Y-82388072D01*
X95300000Y-82388072D01*
X95424482Y-82375812D01*
X95450000Y-82368071D01*
X95475518Y-82375812D01*
X95600000Y-82388072D01*
X96000000Y-82388072D01*
X96124482Y-82375812D01*
X96150000Y-82368071D01*
X96175518Y-82375812D01*
X96300000Y-82388072D01*
X96700000Y-82388072D01*
X96824482Y-82375812D01*
X96850000Y-82368071D01*
X96875518Y-82375812D01*
X97000000Y-82388072D01*
X97400000Y-82388072D01*
X97524482Y-82375812D01*
X97550000Y-82368071D01*
X97555469Y-82369730D01*
X97489002Y-82436197D01*
X97459999Y-82459999D01*
X97407488Y-82523985D01*
X97365026Y-82575724D01*
X97318643Y-82662500D01*
X97294454Y-82707754D01*
X97250997Y-82851015D01*
X97240000Y-82962668D01*
X97240000Y-82962678D01*
X97236324Y-83000000D01*
X97240000Y-83037323D01*
X97240000Y-83139080D01*
X97143377Y-83218377D01*
X97034488Y-83351058D01*
X96953577Y-83502433D01*
X96903752Y-83666684D01*
X96886928Y-83837500D01*
X96886928Y-84412500D01*
X96903752Y-84583316D01*
X96953577Y-84747567D01*
X97034488Y-84898942D01*
X97054099Y-84922839D01*
X96994463Y-84995506D01*
X96935498Y-85105820D01*
X96899188Y-85225518D01*
X96886928Y-85350000D01*
X96890000Y-85589250D01*
X97048750Y-85748000D01*
X97873000Y-85748000D01*
X97873000Y-85728000D01*
X98127000Y-85728000D01*
X98127000Y-85748000D01*
X98147000Y-85748000D01*
X98147000Y-86002000D01*
X98127000Y-86002000D01*
X98127000Y-86876250D01*
X98285750Y-87035000D01*
X98475000Y-87038072D01*
X98599482Y-87025812D01*
X98719180Y-86989502D01*
X98829494Y-86930537D01*
X98926185Y-86851185D01*
X99005537Y-86754494D01*
X99051122Y-86669211D01*
X99143377Y-86781623D01*
X99276058Y-86890512D01*
X99427433Y-86971423D01*
X99591684Y-87021248D01*
X99762500Y-87038072D01*
X100237500Y-87038072D01*
X100408316Y-87021248D01*
X100572567Y-86971423D01*
X100723942Y-86890512D01*
X100802377Y-86826142D01*
X100811595Y-86843387D01*
X100922038Y-86977962D01*
X101056613Y-87088405D01*
X101210149Y-87170472D01*
X101376745Y-87221008D01*
X101549999Y-87238072D01*
X102450001Y-87238072D01*
X102623255Y-87221008D01*
X102789851Y-87170472D01*
X102913581Y-87104337D01*
X102945506Y-87130537D01*
X103055820Y-87189502D01*
X103175518Y-87225812D01*
X103300000Y-87238072D01*
X103714250Y-87235000D01*
X103873000Y-87076250D01*
X103873000Y-86152000D01*
X104127000Y-86152000D01*
X104127000Y-87076250D01*
X104285750Y-87235000D01*
X104700000Y-87238072D01*
X104824482Y-87225812D01*
X104944180Y-87189502D01*
X105054494Y-87130537D01*
X105151185Y-87051185D01*
X105230537Y-86954494D01*
X105289502Y-86844180D01*
X105325812Y-86724482D01*
X105338072Y-86600000D01*
X105335000Y-86310750D01*
X105176250Y-86152000D01*
X104127000Y-86152000D01*
X103873000Y-86152000D01*
X103853000Y-86152000D01*
X103853000Y-85898000D01*
X103873000Y-85898000D01*
X103873000Y-85878000D01*
X104127000Y-85878000D01*
X104127000Y-85898000D01*
X105176250Y-85898000D01*
X105335000Y-85739250D01*
X105338072Y-85450000D01*
X105325812Y-85325518D01*
X105289502Y-85205820D01*
X105230537Y-85095506D01*
X105151185Y-84998815D01*
X105071406Y-84933342D01*
X105077962Y-84927962D01*
X105133737Y-84860000D01*
X105261546Y-84860000D01*
X105309744Y-84892205D01*
X105498102Y-84970226D01*
X105698061Y-85010000D01*
X105901939Y-85010000D01*
X106101898Y-84970226D01*
X106290256Y-84892205D01*
X106459774Y-84778937D01*
X106603937Y-84634774D01*
X106717205Y-84465256D01*
X106795226Y-84276898D01*
X106810912Y-84198037D01*
X106865026Y-84299276D01*
X106917051Y-84362668D01*
X106960000Y-84415001D01*
X106988998Y-84438799D01*
X108886928Y-86336730D01*
X108886928Y-86662500D01*
X108903752Y-86833316D01*
X108953577Y-86997567D01*
X109034488Y-87148942D01*
X109143377Y-87281623D01*
X109276058Y-87390512D01*
X109427433Y-87471423D01*
X109591684Y-87521248D01*
X109762500Y-87538072D01*
X110237500Y-87538072D01*
X110408316Y-87521248D01*
X110572567Y-87471423D01*
X110723942Y-87390512D01*
X110856623Y-87281623D01*
X110965512Y-87148942D01*
X110972964Y-87135000D01*
X110982317Y-87135000D01*
X111019463Y-87204494D01*
X111098815Y-87301185D01*
X111195506Y-87380537D01*
X111305820Y-87439502D01*
X111425518Y-87475812D01*
X111550000Y-87488072D01*
X112450000Y-87488072D01*
X112574482Y-87475812D01*
X112694180Y-87439502D01*
X112804494Y-87380537D01*
X112901185Y-87301185D01*
X112980537Y-87204494D01*
X113039502Y-87094180D01*
X113075812Y-86974482D01*
X113088072Y-86850000D01*
X113088072Y-86338095D01*
X113098815Y-86351185D01*
X113195506Y-86430537D01*
X113305820Y-86489502D01*
X113425518Y-86525812D01*
X113550000Y-86538072D01*
X114450000Y-86538072D01*
X114574482Y-86525812D01*
X114694180Y-86489502D01*
X114804494Y-86430537D01*
X114901185Y-86351185D01*
X114959709Y-86279872D01*
X116765000Y-86279872D01*
X116765000Y-86720128D01*
X116850890Y-87151925D01*
X117019369Y-87558669D01*
X117263962Y-87924729D01*
X117575271Y-88236038D01*
X117941331Y-88480631D01*
X118348075Y-88649110D01*
X118779872Y-88735000D01*
X119220128Y-88735000D01*
X119651925Y-88649110D01*
X120058669Y-88480631D01*
X120424729Y-88236038D01*
X120736038Y-87924729D01*
X120980631Y-87558669D01*
X121149110Y-87151925D01*
X121235000Y-86720128D01*
X121235000Y-86279872D01*
X121149110Y-85848075D01*
X120980631Y-85441331D01*
X120736038Y-85075271D01*
X120424729Y-84763962D01*
X120058669Y-84519369D01*
X119651925Y-84350890D01*
X119220128Y-84265000D01*
X118779872Y-84265000D01*
X118348075Y-84350890D01*
X117941331Y-84519369D01*
X117575271Y-84763962D01*
X117263962Y-85075271D01*
X117019369Y-85441331D01*
X116850890Y-85848075D01*
X116765000Y-86279872D01*
X114959709Y-86279872D01*
X114980537Y-86254494D01*
X115039502Y-86144180D01*
X115075812Y-86024482D01*
X115088072Y-85900000D01*
X115088072Y-85536729D01*
X118011730Y-82613072D01*
X118162500Y-82613072D01*
X118333316Y-82596248D01*
X118497567Y-82546423D01*
X118648942Y-82465512D01*
X118781623Y-82356623D01*
X118860920Y-82260000D01*
X119342171Y-82260000D01*
X119444866Y-82385134D01*
X119670986Y-82570706D01*
X119928966Y-82708599D01*
X120208889Y-82793513D01*
X120427050Y-82815000D01*
X120572950Y-82815000D01*
X120791111Y-82793513D01*
X121071034Y-82708599D01*
X121329014Y-82570706D01*
X121340001Y-82561689D01*
X121340001Y-91340000D01*
X90660000Y-91340000D01*
X90660000Y-89388212D01*
X93365000Y-89388212D01*
X93365000Y-89611788D01*
X93408617Y-89831067D01*
X93494176Y-90037624D01*
X93618388Y-90223520D01*
X93776480Y-90381612D01*
X93962376Y-90505824D01*
X94168933Y-90591383D01*
X94388212Y-90635000D01*
X94611788Y-90635000D01*
X94831067Y-90591383D01*
X95037624Y-90505824D01*
X95223520Y-90381612D01*
X95381612Y-90223520D01*
X95505824Y-90037624D01*
X95591383Y-89831067D01*
X95635000Y-89611788D01*
X95635000Y-89388212D01*
X95591383Y-89168933D01*
X95505824Y-88962376D01*
X95381612Y-88776480D01*
X95223520Y-88618388D01*
X95037624Y-88494176D01*
X94831067Y-88408617D01*
X94611788Y-88365000D01*
X94388212Y-88365000D01*
X94168933Y-88408617D01*
X93962376Y-88494176D01*
X93776480Y-88618388D01*
X93618388Y-88776480D01*
X93494176Y-88962376D01*
X93408617Y-89168933D01*
X93365000Y-89388212D01*
X90660000Y-89388212D01*
X90660000Y-85779872D01*
X90765000Y-85779872D01*
X90765000Y-86220128D01*
X90850890Y-86651925D01*
X91019369Y-87058669D01*
X91263962Y-87424729D01*
X91575271Y-87736038D01*
X91941331Y-87980631D01*
X92348075Y-88149110D01*
X92779872Y-88235000D01*
X93220128Y-88235000D01*
X93651925Y-88149110D01*
X94058669Y-87980631D01*
X94424729Y-87736038D01*
X94736038Y-87424729D01*
X94980631Y-87058669D01*
X95149110Y-86651925D01*
X95199221Y-86400000D01*
X96886928Y-86400000D01*
X96899188Y-86524482D01*
X96935498Y-86644180D01*
X96994463Y-86754494D01*
X97073815Y-86851185D01*
X97170506Y-86930537D01*
X97280820Y-86989502D01*
X97400518Y-87025812D01*
X97525000Y-87038072D01*
X97714250Y-87035000D01*
X97873000Y-86876250D01*
X97873000Y-86002000D01*
X97048750Y-86002000D01*
X96890000Y-86160750D01*
X96886928Y-86400000D01*
X95199221Y-86400000D01*
X95235000Y-86220128D01*
X95235000Y-85779872D01*
X95149110Y-85348075D01*
X94980631Y-84941331D01*
X94736038Y-84575271D01*
X94424729Y-84263962D01*
X94058669Y-84019369D01*
X93651925Y-83850890D01*
X93220128Y-83765000D01*
X92779872Y-83765000D01*
X92348075Y-83850890D01*
X91941331Y-84019369D01*
X91575271Y-84263962D01*
X91263962Y-84575271D01*
X91019369Y-84941331D01*
X90850890Y-85348075D01*
X90765000Y-85779872D01*
X90660000Y-85779872D01*
X90660000Y-81077000D01*
X90827000Y-81077000D01*
X90827000Y-82226250D01*
X90985750Y-82385000D01*
X91100000Y-82388072D01*
X91224482Y-82375812D01*
X91344180Y-82339502D01*
X91454494Y-82280537D01*
X91551185Y-82201185D01*
X91630537Y-82104494D01*
X91689502Y-81994180D01*
X91725812Y-81874482D01*
X91738072Y-81750000D01*
X91735000Y-81235750D01*
X91576250Y-81077000D01*
X90827000Y-81077000D01*
X90660000Y-81077000D01*
X90660000Y-79673750D01*
X90827000Y-79673750D01*
X90827000Y-80823000D01*
X91576250Y-80823000D01*
X91735000Y-80664250D01*
X91738072Y-80150000D01*
X91725812Y-80025518D01*
X91689502Y-79905820D01*
X91630537Y-79795506D01*
X91551185Y-79698815D01*
X91454494Y-79619463D01*
X91344180Y-79560498D01*
X91224482Y-79524188D01*
X91100000Y-79511928D01*
X90985750Y-79515000D01*
X90827000Y-79673750D01*
X90660000Y-79673750D01*
X90660000Y-76827000D01*
X93400000Y-76827000D01*
X93424776Y-76824560D01*
X93448601Y-76817333D01*
X93470557Y-76805597D01*
X93489803Y-76789803D01*
X93505597Y-76770557D01*
X93517333Y-76748601D01*
X93524560Y-76724776D01*
X93527000Y-76700000D01*
X93527000Y-72988072D01*
X93900000Y-72988072D01*
X94024482Y-72975812D01*
X94050000Y-72968071D01*
X94075518Y-72975812D01*
X94200000Y-72988072D01*
X94600000Y-72988072D01*
X94724482Y-72975812D01*
X94750000Y-72968071D01*
X94775518Y-72975812D01*
X94900000Y-72988072D01*
X95300000Y-72988072D01*
X95424482Y-72975812D01*
X95450000Y-72968071D01*
X95475518Y-72975812D01*
X95600000Y-72988072D01*
X96000000Y-72988072D01*
X96124482Y-72975812D01*
X96150000Y-72968071D01*
X96175518Y-72975812D01*
X96300000Y-72988072D01*
X96700000Y-72988072D01*
X96824482Y-72975812D01*
X96850000Y-72968071D01*
X96875518Y-72975812D01*
X97000000Y-72988072D01*
X97400000Y-72988072D01*
X97524482Y-72975812D01*
X97550000Y-72968071D01*
X97575518Y-72975812D01*
X97700000Y-72988072D01*
X98100000Y-72988072D01*
X98224482Y-72975812D01*
X98250000Y-72968071D01*
X98275518Y-72975812D01*
X98400000Y-72988072D01*
X98800000Y-72988072D01*
X98924482Y-72975812D01*
X98950000Y-72968071D01*
X98975518Y-72975812D01*
X99100000Y-72988072D01*
X99500000Y-72988072D01*
X99624482Y-72975812D01*
X99650000Y-72968071D01*
X99675518Y-72975812D01*
X99800000Y-72988072D01*
X100200000Y-72988072D01*
X100324482Y-72975812D01*
X100350000Y-72968071D01*
X100375518Y-72975812D01*
G36*
X106740000Y-79814802D02*
G01*
X106740001Y-83539778D01*
X106717205Y-83484744D01*
X106603937Y-83315226D01*
X106459774Y-83171063D01*
X106290256Y-83057795D01*
X106101898Y-82979774D01*
X105901939Y-82940000D01*
X105698061Y-82940000D01*
X105498102Y-82979774D01*
X105309744Y-83057795D01*
X105261546Y-83090000D01*
X105133737Y-83090000D01*
X105077962Y-83022038D01*
X104943387Y-82911595D01*
X104789851Y-82829528D01*
X104623255Y-82778992D01*
X104450001Y-82761928D01*
X103861730Y-82761928D01*
X103088804Y-81989003D01*
X103065001Y-81959999D01*
X102949276Y-81865026D01*
X102817247Y-81794454D01*
X102673986Y-81750997D01*
X102562333Y-81740000D01*
X102562322Y-81740000D01*
X102525000Y-81736324D01*
X102487678Y-81740000D01*
X100838072Y-81740000D01*
X100838072Y-80946018D01*
X100874551Y-81011994D01*
X100955269Y-81107548D01*
X101053078Y-81185519D01*
X101164219Y-81242911D01*
X101284420Y-81277517D01*
X101409063Y-81288008D01*
X101914250Y-81285000D01*
X102073000Y-81126250D01*
X102073000Y-80588072D01*
X102327000Y-80588072D01*
X102327000Y-81126250D01*
X102485750Y-81285000D01*
X102990937Y-81288008D01*
X103115580Y-81277517D01*
X103235781Y-81242911D01*
X103346922Y-81185519D01*
X103444731Y-81107548D01*
X103525449Y-81011994D01*
X103585974Y-80902528D01*
X103623980Y-80783358D01*
X103635000Y-80681750D01*
X103476250Y-80523000D01*
X103275053Y-80523000D01*
X103354494Y-80480537D01*
X103451185Y-80401185D01*
X103471033Y-80377000D01*
X103476250Y-80377000D01*
X103635000Y-80218250D01*
X103623980Y-80116642D01*
X103618364Y-80099034D01*
X103625812Y-80074482D01*
X103638072Y-79950000D01*
X103638072Y-79550000D01*
X103625812Y-79425518D01*
X103618071Y-79400000D01*
X103625812Y-79374482D01*
X103638072Y-79250000D01*
X103638072Y-78850000D01*
X103625812Y-78725518D01*
X103618071Y-78700000D01*
X103625812Y-78674482D01*
X103638072Y-78550000D01*
X103638072Y-78150000D01*
X103625812Y-78025518D01*
X103618071Y-78000000D01*
X103625812Y-77974482D01*
X103638072Y-77850000D01*
X103638072Y-77710000D01*
X104635199Y-77710000D01*
X106740000Y-79814802D01*
X106740000Y-79814802D01*
G37*
X106740000Y-79814802D02*
X106740001Y-83539778D01*
X106717205Y-83484744D01*
X106603937Y-83315226D01*
X106459774Y-83171063D01*
X106290256Y-83057795D01*
X106101898Y-82979774D01*
X105901939Y-82940000D01*
X105698061Y-82940000D01*
X105498102Y-82979774D01*
X105309744Y-83057795D01*
X105261546Y-83090000D01*
X105133737Y-83090000D01*
X105077962Y-83022038D01*
X104943387Y-82911595D01*
X104789851Y-82829528D01*
X104623255Y-82778992D01*
X104450001Y-82761928D01*
X103861730Y-82761928D01*
X103088804Y-81989003D01*
X103065001Y-81959999D01*
X102949276Y-81865026D01*
X102817247Y-81794454D01*
X102673986Y-81750997D01*
X102562333Y-81740000D01*
X102562322Y-81740000D01*
X102525000Y-81736324D01*
X102487678Y-81740000D01*
X100838072Y-81740000D01*
X100838072Y-80946018D01*
X100874551Y-81011994D01*
X100955269Y-81107548D01*
X101053078Y-81185519D01*
X101164219Y-81242911D01*
X101284420Y-81277517D01*
X101409063Y-81288008D01*
X101914250Y-81285000D01*
X102073000Y-81126250D01*
X102073000Y-80588072D01*
X102327000Y-80588072D01*
X102327000Y-81126250D01*
X102485750Y-81285000D01*
X102990937Y-81288008D01*
X103115580Y-81277517D01*
X103235781Y-81242911D01*
X103346922Y-81185519D01*
X103444731Y-81107548D01*
X103525449Y-81011994D01*
X103585974Y-80902528D01*
X103623980Y-80783358D01*
X103635000Y-80681750D01*
X103476250Y-80523000D01*
X103275053Y-80523000D01*
X103354494Y-80480537D01*
X103451185Y-80401185D01*
X103471033Y-80377000D01*
X103476250Y-80377000D01*
X103635000Y-80218250D01*
X103623980Y-80116642D01*
X103618364Y-80099034D01*
X103625812Y-80074482D01*
X103638072Y-79950000D01*
X103638072Y-79550000D01*
X103625812Y-79425518D01*
X103618071Y-79400000D01*
X103625812Y-79374482D01*
X103638072Y-79250000D01*
X103638072Y-78850000D01*
X103625812Y-78725518D01*
X103618071Y-78700000D01*
X103625812Y-78674482D01*
X103638072Y-78550000D01*
X103638072Y-78150000D01*
X103625812Y-78025518D01*
X103618071Y-78000000D01*
X103625812Y-77974482D01*
X103638072Y-77850000D01*
X103638072Y-77710000D01*
X104635199Y-77710000D01*
X106740000Y-79814802D01*
G36*
X121340000Y-69681928D02*
G01*
X119650000Y-69681928D01*
X119525518Y-69694188D01*
X119405820Y-69730498D01*
X119295506Y-69789463D01*
X119198815Y-69868815D01*
X119119463Y-69965506D01*
X119060498Y-70075820D01*
X119024188Y-70195518D01*
X119015375Y-70285000D01*
X117836578Y-70285000D01*
X117656534Y-70104956D01*
X117628817Y-70071183D01*
X117494059Y-69960589D01*
X117340313Y-69878411D01*
X117173490Y-69827805D01*
X117043477Y-69815000D01*
X117043469Y-69815000D01*
X117000000Y-69810719D01*
X116956531Y-69815000D01*
X116147046Y-69815000D01*
X116048942Y-69734488D01*
X116035000Y-69727036D01*
X116035000Y-65779872D01*
X116765000Y-65779872D01*
X116765000Y-66220128D01*
X116850890Y-66651925D01*
X117019369Y-67058669D01*
X117263962Y-67424729D01*
X117575271Y-67736038D01*
X117941331Y-67980631D01*
X118348075Y-68149110D01*
X118779872Y-68235000D01*
X119220128Y-68235000D01*
X119651925Y-68149110D01*
X120058669Y-67980631D01*
X120424729Y-67736038D01*
X120736038Y-67424729D01*
X120980631Y-67058669D01*
X121149110Y-66651925D01*
X121235000Y-66220128D01*
X121235000Y-65779872D01*
X121149110Y-65348075D01*
X120980631Y-64941331D01*
X120736038Y-64575271D01*
X120424729Y-64263962D01*
X120058669Y-64019369D01*
X119651925Y-63850890D01*
X119220128Y-63765000D01*
X118779872Y-63765000D01*
X118348075Y-63850890D01*
X117941331Y-64019369D01*
X117575271Y-64263962D01*
X117263962Y-64575271D01*
X117019369Y-64941331D01*
X116850890Y-65348075D01*
X116765000Y-65779872D01*
X116035000Y-65779872D01*
X116035000Y-62812325D01*
X116038676Y-62775000D01*
X116035000Y-62737675D01*
X116035000Y-62737667D01*
X116026059Y-62646889D01*
X116035000Y-62601939D01*
X116035000Y-62398061D01*
X115995226Y-62198102D01*
X115917205Y-62009744D01*
X115836001Y-61888212D01*
X116865000Y-61888212D01*
X116865000Y-62111788D01*
X116908617Y-62331067D01*
X116994176Y-62537624D01*
X117118388Y-62723520D01*
X117276480Y-62881612D01*
X117462376Y-63005824D01*
X117668933Y-63091383D01*
X117888212Y-63135000D01*
X118111788Y-63135000D01*
X118331067Y-63091383D01*
X118537624Y-63005824D01*
X118723520Y-62881612D01*
X118881612Y-62723520D01*
X119005824Y-62537624D01*
X119091383Y-62331067D01*
X119135000Y-62111788D01*
X119135000Y-61888212D01*
X119091383Y-61668933D01*
X119005824Y-61462376D01*
X118881612Y-61276480D01*
X118723520Y-61118388D01*
X118537624Y-60994176D01*
X118331067Y-60908617D01*
X118111788Y-60865000D01*
X117888212Y-60865000D01*
X117668933Y-60908617D01*
X117462376Y-60994176D01*
X117276480Y-61118388D01*
X117118388Y-61276480D01*
X116994176Y-61462376D01*
X116908617Y-61668933D01*
X116865000Y-61888212D01*
X115836001Y-61888212D01*
X115803937Y-61840226D01*
X115659774Y-61696063D01*
X115490256Y-61582795D01*
X115301898Y-61504774D01*
X115101939Y-61465000D01*
X114898061Y-61465000D01*
X114698102Y-61504774D01*
X114509744Y-61582795D01*
X114340226Y-61696063D01*
X114196063Y-61840226D01*
X114082795Y-62009744D01*
X114004774Y-62198102D01*
X113965000Y-62398061D01*
X113965000Y-62601939D01*
X114004774Y-62801898D01*
X114082795Y-62990256D01*
X114196063Y-63159774D01*
X114340226Y-63303937D01*
X114509744Y-63417205D01*
X114515001Y-63419383D01*
X114515001Y-65600450D01*
X114472893Y-65537431D01*
X114262569Y-65327107D01*
X114015253Y-65161856D01*
X113740451Y-65048029D01*
X113448722Y-64990000D01*
X113151278Y-64990000D01*
X112859549Y-65048029D01*
X112584747Y-65161856D01*
X112337431Y-65327107D01*
X112304732Y-65359806D01*
X112282659Y-65337733D01*
X112166634Y-65453758D01*
X112085975Y-65202132D01*
X111817671Y-65073733D01*
X111529474Y-65000145D01*
X111232457Y-64984196D01*
X110938037Y-65026499D01*
X110657526Y-65125428D01*
X110514025Y-65202132D01*
X110433365Y-65453760D01*
X111300000Y-66320395D01*
X111314143Y-66306253D01*
X111493748Y-66485858D01*
X111479605Y-66500000D01*
X111493748Y-66514143D01*
X111314143Y-66693748D01*
X111300000Y-66679605D01*
X110433365Y-67546240D01*
X110514025Y-67797868D01*
X110782329Y-67926267D01*
X111070526Y-67999855D01*
X111367543Y-68015804D01*
X111661963Y-67973501D01*
X111942474Y-67874572D01*
X112085975Y-67797868D01*
X112166634Y-67546242D01*
X112282659Y-67662267D01*
X112304732Y-67640194D01*
X112337431Y-67672893D01*
X112584747Y-67838144D01*
X112640001Y-67861031D01*
X112640000Y-69825631D01*
X112618377Y-69843377D01*
X112509488Y-69976058D01*
X112428577Y-70127433D01*
X112378752Y-70291684D01*
X112361928Y-70462500D01*
X112361928Y-70937500D01*
X112378752Y-71108316D01*
X112428577Y-71272567D01*
X112509488Y-71423942D01*
X112618377Y-71556623D01*
X112745226Y-71660726D01*
X112698815Y-71698815D01*
X112619463Y-71795506D01*
X112600000Y-71831918D01*
X112580537Y-71795506D01*
X112501185Y-71698815D01*
X112404494Y-71619463D01*
X112294180Y-71560498D01*
X112174482Y-71524188D01*
X112050000Y-71511928D01*
X111250000Y-71511928D01*
X111125518Y-71524188D01*
X111005820Y-71560498D01*
X110895506Y-71619463D01*
X110815801Y-71684875D01*
X110723942Y-71609488D01*
X110572567Y-71528577D01*
X110408316Y-71478752D01*
X110237500Y-71461928D01*
X109762500Y-71461928D01*
X109591684Y-71478752D01*
X109427433Y-71528577D01*
X109276058Y-71609488D01*
X109147492Y-71715000D01*
X106538454Y-71715000D01*
X106490256Y-71682795D01*
X106301898Y-71604774D01*
X106101939Y-71565000D01*
X105898061Y-71565000D01*
X105698102Y-71604774D01*
X105509744Y-71682795D01*
X105340226Y-71796063D01*
X105196063Y-71940226D01*
X105082795Y-72109744D01*
X105004774Y-72298102D01*
X104965000Y-72498061D01*
X104965000Y-72701939D01*
X105004774Y-72901898D01*
X105082795Y-73090256D01*
X105196063Y-73259774D01*
X105340226Y-73403937D01*
X105509744Y-73517205D01*
X105698102Y-73595226D01*
X105898061Y-73635000D01*
X106101939Y-73635000D01*
X106301898Y-73595226D01*
X106490256Y-73517205D01*
X106538454Y-73485000D01*
X109003085Y-73485000D01*
X108994463Y-73495506D01*
X108935498Y-73605820D01*
X108899188Y-73725518D01*
X108886928Y-73850000D01*
X108890000Y-74089250D01*
X109048750Y-74248000D01*
X109873000Y-74248000D01*
X109873000Y-74228000D01*
X110127000Y-74228000D01*
X110127000Y-74248000D01*
X110951250Y-74248000D01*
X111110000Y-74089250D01*
X111113072Y-73850000D01*
X111100812Y-73725518D01*
X111081702Y-73662521D01*
X111125518Y-73675812D01*
X111250000Y-73688072D01*
X111761905Y-73688072D01*
X111748815Y-73698815D01*
X111669463Y-73795506D01*
X111610498Y-73905820D01*
X111574188Y-74025518D01*
X111561928Y-74150000D01*
X111565000Y-74314250D01*
X111723750Y-74473000D01*
X112473000Y-74473000D01*
X112473000Y-73673750D01*
X112388393Y-73589143D01*
X112404494Y-73580537D01*
X112501185Y-73501185D01*
X112580537Y-73404494D01*
X112600000Y-73368082D01*
X112619463Y-73404494D01*
X112698815Y-73501185D01*
X112795506Y-73580537D01*
X112811607Y-73589143D01*
X112727000Y-73673750D01*
X112727000Y-74473000D01*
X113476250Y-74473000D01*
X113635000Y-74314250D01*
X113638072Y-74150000D01*
X113625812Y-74025518D01*
X113589502Y-73905820D01*
X113530537Y-73795506D01*
X113451185Y-73698815D01*
X113438095Y-73688072D01*
X113950000Y-73688072D01*
X114074482Y-73675812D01*
X114118298Y-73662521D01*
X114099188Y-73725518D01*
X114086928Y-73850000D01*
X114090000Y-74089250D01*
X114248750Y-74248000D01*
X115073000Y-74248000D01*
X115073000Y-74228000D01*
X115327000Y-74228000D01*
X115327000Y-74248000D01*
X115347000Y-74248000D01*
X115347000Y-74502000D01*
X115327000Y-74502000D01*
X115327000Y-75376250D01*
X115438500Y-75487750D01*
X115351058Y-75534488D01*
X115218377Y-75643377D01*
X115109488Y-75776058D01*
X115028577Y-75927433D01*
X114978752Y-76091684D01*
X114961928Y-76262500D01*
X114961928Y-76722831D01*
X114901185Y-76648815D01*
X114804494Y-76569463D01*
X114694180Y-76510498D01*
X114574482Y-76474188D01*
X114450000Y-76461928D01*
X113550000Y-76461928D01*
X113425518Y-76474188D01*
X113305820Y-76510498D01*
X113195506Y-76569463D01*
X113098815Y-76648815D01*
X113088072Y-76661905D01*
X113088072Y-76150000D01*
X113075812Y-76025518D01*
X113039502Y-75905820D01*
X112980537Y-75795506D01*
X112901185Y-75698815D01*
X112804494Y-75619463D01*
X112727002Y-75578042D01*
X112727002Y-75526252D01*
X112885750Y-75685000D01*
X113000000Y-75688072D01*
X113124482Y-75675812D01*
X113244180Y-75639502D01*
X113354494Y-75580537D01*
X113451185Y-75501185D01*
X113530537Y-75404494D01*
X113589502Y-75294180D01*
X113625812Y-75174482D01*
X113638072Y-75050000D01*
X113635267Y-74900000D01*
X114086928Y-74900000D01*
X114099188Y-75024482D01*
X114135498Y-75144180D01*
X114194463Y-75254494D01*
X114273815Y-75351185D01*
X114370506Y-75430537D01*
X114480820Y-75489502D01*
X114600518Y-75525812D01*
X114725000Y-75538072D01*
X114914250Y-75535000D01*
X115073000Y-75376250D01*
X115073000Y-74502000D01*
X114248750Y-74502000D01*
X114090000Y-74660750D01*
X114086928Y-74900000D01*
X113635267Y-74900000D01*
X113635000Y-74885750D01*
X113476250Y-74727000D01*
X112727000Y-74727000D01*
X112727000Y-74747000D01*
X112473000Y-74747000D01*
X112473000Y-74727000D01*
X111723750Y-74727000D01*
X111565000Y-74885750D01*
X111561928Y-75050000D01*
X111574188Y-75174482D01*
X111610498Y-75294180D01*
X111669463Y-75404494D01*
X111748815Y-75501185D01*
X111761905Y-75511928D01*
X111550000Y-75511928D01*
X111425518Y-75524188D01*
X111305820Y-75560498D01*
X111195506Y-75619463D01*
X111098815Y-75698815D01*
X111019463Y-75795506D01*
X110982317Y-75865000D01*
X110972964Y-75865000D01*
X110965512Y-75851058D01*
X110856623Y-75718377D01*
X110723942Y-75609488D01*
X110572567Y-75528577D01*
X110572283Y-75528491D01*
X110599482Y-75525812D01*
X110719180Y-75489502D01*
X110829494Y-75430537D01*
X110926185Y-75351185D01*
X111005537Y-75254494D01*
X111064502Y-75144180D01*
X111100812Y-75024482D01*
X111113072Y-74900000D01*
X111110000Y-74660750D01*
X110951250Y-74502000D01*
X110127000Y-74502000D01*
X110127000Y-74522000D01*
X109873000Y-74522000D01*
X109873000Y-74502000D01*
X109048750Y-74502000D01*
X108890000Y-74660750D01*
X108886928Y-74900000D01*
X108899188Y-75024482D01*
X108935498Y-75144180D01*
X108994463Y-75254494D01*
X109073815Y-75351185D01*
X109170506Y-75430537D01*
X109280820Y-75489502D01*
X109400518Y-75525812D01*
X109427717Y-75528491D01*
X109427433Y-75528577D01*
X109276058Y-75609488D01*
X109143377Y-75718377D01*
X109034488Y-75851058D01*
X109027036Y-75865000D01*
X109003711Y-75865000D01*
X108959774Y-75821063D01*
X108790256Y-75707795D01*
X108601898Y-75629774D01*
X108401939Y-75590000D01*
X108198061Y-75590000D01*
X107998102Y-75629774D01*
X107809744Y-75707795D01*
X107640226Y-75821063D01*
X107496063Y-75965226D01*
X107393510Y-76118708D01*
X106313804Y-75039003D01*
X106290001Y-75009999D01*
X106174276Y-74915026D01*
X106042247Y-74844454D01*
X105898986Y-74800997D01*
X105787333Y-74790000D01*
X105787322Y-74790000D01*
X105750000Y-74786324D01*
X105712678Y-74790000D01*
X103638072Y-74790000D01*
X103638072Y-74650000D01*
X103625812Y-74525518D01*
X103618071Y-74500000D01*
X103625812Y-74474482D01*
X103638072Y-74350000D01*
X103638072Y-73950000D01*
X103625812Y-73825518D01*
X103618071Y-73800000D01*
X103625812Y-73774482D01*
X103638072Y-73650000D01*
X103638072Y-73250000D01*
X103625812Y-73125518D01*
X103618071Y-73100000D01*
X103625812Y-73074482D01*
X103638072Y-72950000D01*
X103638072Y-72550000D01*
X103625812Y-72425518D01*
X103618364Y-72400966D01*
X103623980Y-72383358D01*
X103635000Y-72281750D01*
X103476250Y-72123000D01*
X103471033Y-72123000D01*
X103451185Y-72098815D01*
X103354494Y-72019463D01*
X103275053Y-71977000D01*
X103476250Y-71977000D01*
X103635000Y-71818250D01*
X103623980Y-71716642D01*
X103585974Y-71597472D01*
X103525449Y-71488006D01*
X103444731Y-71392452D01*
X103346922Y-71314481D01*
X103235781Y-71257089D01*
X103115580Y-71222483D01*
X102990937Y-71211992D01*
X102485750Y-71215000D01*
X102327000Y-71373750D01*
X102327000Y-71911928D01*
X102073000Y-71911928D01*
X102073000Y-71373750D01*
X101914250Y-71215000D01*
X101538072Y-71212760D01*
X101538072Y-70750000D01*
X101525812Y-70625518D01*
X101489502Y-70505820D01*
X101430537Y-70395506D01*
X101403000Y-70361952D01*
X101403000Y-68877000D01*
X101657000Y-68877000D01*
X101657000Y-70426250D01*
X101815750Y-70585000D01*
X101900000Y-70588072D01*
X102024482Y-70575812D01*
X102144180Y-70539502D01*
X102165000Y-70528373D01*
X102185820Y-70539502D01*
X102305518Y-70575812D01*
X102430000Y-70588072D01*
X102514250Y-70585000D01*
X102673000Y-70426250D01*
X102673000Y-68877000D01*
X101657000Y-68877000D01*
X101403000Y-68877000D01*
X101383000Y-68877000D01*
X101383000Y-68623000D01*
X101403000Y-68623000D01*
X101403000Y-68603000D01*
X101657000Y-68603000D01*
X101657000Y-68623000D01*
X102673000Y-68623000D01*
X102673000Y-67073750D01*
X102927000Y-67073750D01*
X102927000Y-68623000D01*
X102947000Y-68623000D01*
X102947000Y-68877000D01*
X102927000Y-68877000D01*
X102927000Y-70426250D01*
X103085750Y-70585000D01*
X103170000Y-70588072D01*
X103294482Y-70575812D01*
X103414180Y-70539502D01*
X103435000Y-70528373D01*
X103455820Y-70539502D01*
X103575518Y-70575812D01*
X103700000Y-70588072D01*
X104440000Y-70588072D01*
X104564482Y-70575812D01*
X104684180Y-70539502D01*
X104705000Y-70528373D01*
X104725820Y-70539502D01*
X104845518Y-70575812D01*
X104970000Y-70588072D01*
X105054250Y-70585000D01*
X105213000Y-70426250D01*
X105213000Y-68877000D01*
X105467000Y-68877000D01*
X105467000Y-70426250D01*
X105625750Y-70585000D01*
X105710000Y-70588072D01*
X105834482Y-70575812D01*
X105954180Y-70539502D01*
X106064494Y-70480537D01*
X106161185Y-70401185D01*
X106240537Y-70304494D01*
X106299502Y-70194180D01*
X106335812Y-70074482D01*
X106348072Y-69950000D01*
X106345000Y-69035750D01*
X106186250Y-68877000D01*
X105467000Y-68877000D01*
X105213000Y-68877000D01*
X105193000Y-68877000D01*
X105193000Y-68623000D01*
X105213000Y-68623000D01*
X105213000Y-67073750D01*
X105467000Y-67073750D01*
X105467000Y-68623000D01*
X106186250Y-68623000D01*
X106345000Y-68464250D01*
X106348072Y-67550000D01*
X106335812Y-67425518D01*
X106299502Y-67305820D01*
X106240537Y-67195506D01*
X106161185Y-67098815D01*
X106064494Y-67019463D01*
X105954180Y-66960498D01*
X105834482Y-66924188D01*
X105710000Y-66911928D01*
X105625750Y-66915000D01*
X105467000Y-67073750D01*
X105213000Y-67073750D01*
X105054250Y-66915000D01*
X104970000Y-66911928D01*
X104845518Y-66924188D01*
X104725820Y-66960498D01*
X104705000Y-66971627D01*
X104684180Y-66960498D01*
X104564482Y-66924188D01*
X104440000Y-66911928D01*
X103700000Y-66911928D01*
X103575518Y-66924188D01*
X103455820Y-66960498D01*
X103435000Y-66971627D01*
X103414180Y-66960498D01*
X103294482Y-66924188D01*
X103170000Y-66911928D01*
X103085750Y-66915000D01*
X102927000Y-67073750D01*
X102673000Y-67073750D01*
X102514250Y-66915000D01*
X102430000Y-66911928D01*
X102305518Y-66924188D01*
X102185820Y-66960498D01*
X102165000Y-66971627D01*
X102144180Y-66960498D01*
X102117315Y-66952349D01*
X102164974Y-66894276D01*
X102235546Y-66762247D01*
X102265452Y-66663658D01*
X102305518Y-66675812D01*
X102430000Y-66688072D01*
X103170000Y-66688072D01*
X103294482Y-66675812D01*
X103414180Y-66639502D01*
X103435000Y-66628373D01*
X103455820Y-66639502D01*
X103575518Y-66675812D01*
X103700000Y-66688072D01*
X104440000Y-66688072D01*
X104564482Y-66675812D01*
X104684180Y-66639502D01*
X104705000Y-66628373D01*
X104725820Y-66639502D01*
X104845518Y-66675812D01*
X104970000Y-66688072D01*
X105710000Y-66688072D01*
X105834482Y-66675812D01*
X105954180Y-66639502D01*
X106064494Y-66580537D01*
X106080327Y-66567543D01*
X109784196Y-66567543D01*
X109826499Y-66861963D01*
X109925428Y-67142474D01*
X110002132Y-67285975D01*
X110253760Y-67366635D01*
X111120395Y-66500000D01*
X110253760Y-65633365D01*
X110002132Y-65714025D01*
X109873733Y-65982329D01*
X109800145Y-66270526D01*
X109784196Y-66567543D01*
X106080327Y-66567543D01*
X106161185Y-66501185D01*
X106240537Y-66404494D01*
X106299502Y-66294180D01*
X106335812Y-66174482D01*
X106348072Y-66050000D01*
X106348072Y-63650000D01*
X106335812Y-63525518D01*
X106299502Y-63405820D01*
X106240537Y-63295506D01*
X106161185Y-63198815D01*
X106064494Y-63119463D01*
X105954180Y-63060498D01*
X105834482Y-63024188D01*
X105710000Y-63011928D01*
X104970000Y-63011928D01*
X104845518Y-63024188D01*
X104725820Y-63060498D01*
X104705000Y-63071627D01*
X104684180Y-63060498D01*
X104564482Y-63024188D01*
X104440000Y-63011928D01*
X103700000Y-63011928D01*
X103575518Y-63024188D01*
X103455820Y-63060498D01*
X103435000Y-63071627D01*
X103414180Y-63060498D01*
X103294482Y-63024188D01*
X103170000Y-63011928D01*
X102542873Y-63011928D01*
X102714004Y-62840797D01*
X102788889Y-62863513D01*
X103007050Y-62885000D01*
X103152950Y-62885000D01*
X103371111Y-62863513D01*
X103651034Y-62778599D01*
X103909014Y-62640706D01*
X104135134Y-62455134D01*
X104320706Y-62229014D01*
X104355201Y-62164477D01*
X104424822Y-62281355D01*
X104619731Y-62497588D01*
X104853080Y-62671641D01*
X105115901Y-62796825D01*
X105263110Y-62841476D01*
X105493000Y-62720155D01*
X105493000Y-61527000D01*
X105747000Y-61527000D01*
X105747000Y-62720155D01*
X105976890Y-62841476D01*
X106124099Y-62796825D01*
X106386920Y-62671641D01*
X106620269Y-62497588D01*
X106815178Y-62281355D01*
X106964157Y-62031252D01*
X107061481Y-61756891D01*
X106940814Y-61527000D01*
X105747000Y-61527000D01*
X105493000Y-61527000D01*
X105473000Y-61527000D01*
X105473000Y-61273000D01*
X105493000Y-61273000D01*
X105493000Y-61253000D01*
X105747000Y-61253000D01*
X105747000Y-61273000D01*
X106940814Y-61273000D01*
X107061481Y-61043109D01*
X106964157Y-60768748D01*
X106899379Y-60660000D01*
X121340000Y-60660000D01*
X121340000Y-69681928D01*
X121340000Y-69681928D01*
G37*
X121340000Y-69681928D02*
X119650000Y-69681928D01*
X119525518Y-69694188D01*
X119405820Y-69730498D01*
X119295506Y-69789463D01*
X119198815Y-69868815D01*
X119119463Y-69965506D01*
X119060498Y-70075820D01*
X119024188Y-70195518D01*
X119015375Y-70285000D01*
X117836578Y-70285000D01*
X117656534Y-70104956D01*
X117628817Y-70071183D01*
X117494059Y-69960589D01*
X117340313Y-69878411D01*
X117173490Y-69827805D01*
X117043477Y-69815000D01*
X117043469Y-69815000D01*
X117000000Y-69810719D01*
X116956531Y-69815000D01*
X116147046Y-69815000D01*
X116048942Y-69734488D01*
X116035000Y-69727036D01*
X116035000Y-65779872D01*
X116765000Y-65779872D01*
X116765000Y-66220128D01*
X116850890Y-66651925D01*
X117019369Y-67058669D01*
X117263962Y-67424729D01*
X117575271Y-67736038D01*
X117941331Y-67980631D01*
X118348075Y-68149110D01*
X118779872Y-68235000D01*
X119220128Y-68235000D01*
X119651925Y-68149110D01*
X120058669Y-67980631D01*
X120424729Y-67736038D01*
X120736038Y-67424729D01*
X120980631Y-67058669D01*
X121149110Y-66651925D01*
X121235000Y-66220128D01*
X121235000Y-65779872D01*
X121149110Y-65348075D01*
X120980631Y-64941331D01*
X120736038Y-64575271D01*
X120424729Y-64263962D01*
X120058669Y-64019369D01*
X119651925Y-63850890D01*
X119220128Y-63765000D01*
X118779872Y-63765000D01*
X118348075Y-63850890D01*
X117941331Y-64019369D01*
X117575271Y-64263962D01*
X117263962Y-64575271D01*
X117019369Y-64941331D01*
X116850890Y-65348075D01*
X116765000Y-65779872D01*
X116035000Y-65779872D01*
X116035000Y-62812325D01*
X116038676Y-62775000D01*
X116035000Y-62737675D01*
X116035000Y-62737667D01*
X116026059Y-62646889D01*
X116035000Y-62601939D01*
X116035000Y-62398061D01*
X115995226Y-62198102D01*
X115917205Y-62009744D01*
X115836001Y-61888212D01*
X116865000Y-61888212D01*
X116865000Y-62111788D01*
X116908617Y-62331067D01*
X116994176Y-62537624D01*
X117118388Y-62723520D01*
X117276480Y-62881612D01*
X117462376Y-63005824D01*
X117668933Y-63091383D01*
X117888212Y-63135000D01*
X118111788Y-63135000D01*
X118331067Y-63091383D01*
X118537624Y-63005824D01*
X118723520Y-62881612D01*
X118881612Y-62723520D01*
X119005824Y-62537624D01*
X119091383Y-62331067D01*
X119135000Y-62111788D01*
X119135000Y-61888212D01*
X119091383Y-61668933D01*
X119005824Y-61462376D01*
X118881612Y-61276480D01*
X118723520Y-61118388D01*
X118537624Y-60994176D01*
X118331067Y-60908617D01*
X118111788Y-60865000D01*
X117888212Y-60865000D01*
X117668933Y-60908617D01*
X117462376Y-60994176D01*
X117276480Y-61118388D01*
X117118388Y-61276480D01*
X116994176Y-61462376D01*
X116908617Y-61668933D01*
X116865000Y-61888212D01*
X115836001Y-61888212D01*
X115803937Y-61840226D01*
X115659774Y-61696063D01*
X115490256Y-61582795D01*
X115301898Y-61504774D01*
X115101939Y-61465000D01*
X114898061Y-61465000D01*
X114698102Y-61504774D01*
X114509744Y-61582795D01*
X114340226Y-61696063D01*
X114196063Y-61840226D01*
X114082795Y-62009744D01*
X114004774Y-62198102D01*
X113965000Y-62398061D01*
X113965000Y-62601939D01*
X114004774Y-62801898D01*
X114082795Y-62990256D01*
X114196063Y-63159774D01*
X114340226Y-63303937D01*
X114509744Y-63417205D01*
X114515001Y-63419383D01*
X114515001Y-65600450D01*
X114472893Y-65537431D01*
X114262569Y-65327107D01*
X114015253Y-65161856D01*
X113740451Y-65048029D01*
X113448722Y-64990000D01*
X113151278Y-64990000D01*
X112859549Y-65048029D01*
X112584747Y-65161856D01*
X112337431Y-65327107D01*
X112304732Y-65359806D01*
X112282659Y-65337733D01*
X112166634Y-65453758D01*
X112085975Y-65202132D01*
X111817671Y-65073733D01*
X111529474Y-65000145D01*
X111232457Y-64984196D01*
X110938037Y-65026499D01*
X110657526Y-65125428D01*
X110514025Y-65202132D01*
X110433365Y-65453760D01*
X111300000Y-66320395D01*
X111314143Y-66306253D01*
X111493748Y-66485858D01*
X111479605Y-66500000D01*
X111493748Y-66514143D01*
X111314143Y-66693748D01*
X111300000Y-66679605D01*
X110433365Y-67546240D01*
X110514025Y-67797868D01*
X110782329Y-67926267D01*
X111070526Y-67999855D01*
X111367543Y-68015804D01*
X111661963Y-67973501D01*
X111942474Y-67874572D01*
X112085975Y-67797868D01*
X112166634Y-67546242D01*
X112282659Y-67662267D01*
X112304732Y-67640194D01*
X112337431Y-67672893D01*
X112584747Y-67838144D01*
X112640001Y-67861031D01*
X112640000Y-69825631D01*
X112618377Y-69843377D01*
X112509488Y-69976058D01*
X112428577Y-70127433D01*
X112378752Y-70291684D01*
X112361928Y-70462500D01*
X112361928Y-70937500D01*
X112378752Y-71108316D01*
X112428577Y-71272567D01*
X112509488Y-71423942D01*
X112618377Y-71556623D01*
X112745226Y-71660726D01*
X112698815Y-71698815D01*
X112619463Y-71795506D01*
X112600000Y-71831918D01*
X112580537Y-71795506D01*
X112501185Y-71698815D01*
X112404494Y-71619463D01*
X112294180Y-71560498D01*
X112174482Y-71524188D01*
X112050000Y-71511928D01*
X111250000Y-71511928D01*
X111125518Y-71524188D01*
X111005820Y-71560498D01*
X110895506Y-71619463D01*
X110815801Y-71684875D01*
X110723942Y-71609488D01*
X110572567Y-71528577D01*
X110408316Y-71478752D01*
X110237500Y-71461928D01*
X109762500Y-71461928D01*
X109591684Y-71478752D01*
X109427433Y-71528577D01*
X109276058Y-71609488D01*
X109147492Y-71715000D01*
X106538454Y-71715000D01*
X106490256Y-71682795D01*
X106301898Y-71604774D01*
X106101939Y-71565000D01*
X105898061Y-71565000D01*
X105698102Y-71604774D01*
X105509744Y-71682795D01*
X105340226Y-71796063D01*
X105196063Y-71940226D01*
X105082795Y-72109744D01*
X105004774Y-72298102D01*
X104965000Y-72498061D01*
X104965000Y-72701939D01*
X105004774Y-72901898D01*
X105082795Y-73090256D01*
X105196063Y-73259774D01*
X105340226Y-73403937D01*
X105509744Y-73517205D01*
X105698102Y-73595226D01*
X105898061Y-73635000D01*
X106101939Y-73635000D01*
X106301898Y-73595226D01*
X106490256Y-73517205D01*
X106538454Y-73485000D01*
X109003085Y-73485000D01*
X108994463Y-73495506D01*
X108935498Y-73605820D01*
X108899188Y-73725518D01*
X108886928Y-73850000D01*
X108890000Y-74089250D01*
X109048750Y-74248000D01*
X109873000Y-74248000D01*
X109873000Y-74228000D01*
X110127000Y-74228000D01*
X110127000Y-74248000D01*
X110951250Y-74248000D01*
X111110000Y-74089250D01*
X111113072Y-73850000D01*
X111100812Y-73725518D01*
X111081702Y-73662521D01*
X111125518Y-73675812D01*
X111250000Y-73688072D01*
X111761905Y-73688072D01*
X111748815Y-73698815D01*
X111669463Y-73795506D01*
X111610498Y-73905820D01*
X111574188Y-74025518D01*
X111561928Y-74150000D01*
X111565000Y-74314250D01*
X111723750Y-74473000D01*
X112473000Y-74473000D01*
X112473000Y-73673750D01*
X112388393Y-73589143D01*
X112404494Y-73580537D01*
X112501185Y-73501185D01*
X112580537Y-73404494D01*
X112600000Y-73368082D01*
X112619463Y-73404494D01*
X112698815Y-73501185D01*
X112795506Y-73580537D01*
X112811607Y-73589143D01*
X112727000Y-73673750D01*
X112727000Y-74473000D01*
X113476250Y-74473000D01*
X113635000Y-74314250D01*
X113638072Y-74150000D01*
X113625812Y-74025518D01*
X113589502Y-73905820D01*
X113530537Y-73795506D01*
X113451185Y-73698815D01*
X113438095Y-73688072D01*
X113950000Y-73688072D01*
X114074482Y-73675812D01*
X114118298Y-73662521D01*
X114099188Y-73725518D01*
X114086928Y-73850000D01*
X114090000Y-74089250D01*
X114248750Y-74248000D01*
X115073000Y-74248000D01*
X115073000Y-74228000D01*
X115327000Y-74228000D01*
X115327000Y-74248000D01*
X115347000Y-74248000D01*
X115347000Y-74502000D01*
X115327000Y-74502000D01*
X115327000Y-75376250D01*
X115438500Y-75487750D01*
X115351058Y-75534488D01*
X115218377Y-75643377D01*
X115109488Y-75776058D01*
X115028577Y-75927433D01*
X114978752Y-76091684D01*
X114961928Y-76262500D01*
X114961928Y-76722831D01*
X114901185Y-76648815D01*
X114804494Y-76569463D01*
X114694180Y-76510498D01*
X114574482Y-76474188D01*
X114450000Y-76461928D01*
X113550000Y-76461928D01*
X113425518Y-76474188D01*
X113305820Y-76510498D01*
X113195506Y-76569463D01*
X113098815Y-76648815D01*
X113088072Y-76661905D01*
X113088072Y-76150000D01*
X113075812Y-76025518D01*
X113039502Y-75905820D01*
X112980537Y-75795506D01*
X112901185Y-75698815D01*
X112804494Y-75619463D01*
X112727002Y-75578042D01*
X112727002Y-75526252D01*
X112885750Y-75685000D01*
X113000000Y-75688072D01*
X113124482Y-75675812D01*
X113244180Y-75639502D01*
X113354494Y-75580537D01*
X113451185Y-75501185D01*
X113530537Y-75404494D01*
X113589502Y-75294180D01*
X113625812Y-75174482D01*
X113638072Y-75050000D01*
X113635267Y-74900000D01*
X114086928Y-74900000D01*
X114099188Y-75024482D01*
X114135498Y-75144180D01*
X114194463Y-75254494D01*
X114273815Y-75351185D01*
X114370506Y-75430537D01*
X114480820Y-75489502D01*
X114600518Y-75525812D01*
X114725000Y-75538072D01*
X114914250Y-75535000D01*
X115073000Y-75376250D01*
X115073000Y-74502000D01*
X114248750Y-74502000D01*
X114090000Y-74660750D01*
X114086928Y-74900000D01*
X113635267Y-74900000D01*
X113635000Y-74885750D01*
X113476250Y-74727000D01*
X112727000Y-74727000D01*
X112727000Y-74747000D01*
X112473000Y-74747000D01*
X112473000Y-74727000D01*
X111723750Y-74727000D01*
X111565000Y-74885750D01*
X111561928Y-75050000D01*
X111574188Y-75174482D01*
X111610498Y-75294180D01*
X111669463Y-75404494D01*
X111748815Y-75501185D01*
X111761905Y-75511928D01*
X111550000Y-75511928D01*
X111425518Y-75524188D01*
X111305820Y-75560498D01*
X111195506Y-75619463D01*
X111098815Y-75698815D01*
X111019463Y-75795506D01*
X110982317Y-75865000D01*
X110972964Y-75865000D01*
X110965512Y-75851058D01*
X110856623Y-75718377D01*
X110723942Y-75609488D01*
X110572567Y-75528577D01*
X110572283Y-75528491D01*
X110599482Y-75525812D01*
X110719180Y-75489502D01*
X110829494Y-75430537D01*
X110926185Y-75351185D01*
X111005537Y-75254494D01*
X111064502Y-75144180D01*
X111100812Y-75024482D01*
X111113072Y-74900000D01*
X111110000Y-74660750D01*
X110951250Y-74502000D01*
X110127000Y-74502000D01*
X110127000Y-74522000D01*
X109873000Y-74522000D01*
X109873000Y-74502000D01*
X109048750Y-74502000D01*
X108890000Y-74660750D01*
X108886928Y-74900000D01*
X108899188Y-75024482D01*
X108935498Y-75144180D01*
X108994463Y-75254494D01*
X109073815Y-75351185D01*
X109170506Y-75430537D01*
X109280820Y-75489502D01*
X109400518Y-75525812D01*
X109427717Y-75528491D01*
X109427433Y-75528577D01*
X109276058Y-75609488D01*
X109143377Y-75718377D01*
X109034488Y-75851058D01*
X109027036Y-75865000D01*
X109003711Y-75865000D01*
X108959774Y-75821063D01*
X108790256Y-75707795D01*
X108601898Y-75629774D01*
X108401939Y-75590000D01*
X108198061Y-75590000D01*
X107998102Y-75629774D01*
X107809744Y-75707795D01*
X107640226Y-75821063D01*
X107496063Y-75965226D01*
X107393510Y-76118708D01*
X106313804Y-75039003D01*
X106290001Y-75009999D01*
X106174276Y-74915026D01*
X106042247Y-74844454D01*
X105898986Y-74800997D01*
X105787333Y-74790000D01*
X105787322Y-74790000D01*
X105750000Y-74786324D01*
X105712678Y-74790000D01*
X103638072Y-74790000D01*
X103638072Y-74650000D01*
X103625812Y-74525518D01*
X103618071Y-74500000D01*
X103625812Y-74474482D01*
X103638072Y-74350000D01*
X103638072Y-73950000D01*
X103625812Y-73825518D01*
X103618071Y-73800000D01*
X103625812Y-73774482D01*
X103638072Y-73650000D01*
X103638072Y-73250000D01*
X103625812Y-73125518D01*
X103618071Y-73100000D01*
X103625812Y-73074482D01*
X103638072Y-72950000D01*
X103638072Y-72550000D01*
X103625812Y-72425518D01*
X103618364Y-72400966D01*
X103623980Y-72383358D01*
X103635000Y-72281750D01*
X103476250Y-72123000D01*
X103471033Y-72123000D01*
X103451185Y-72098815D01*
X103354494Y-72019463D01*
X103275053Y-71977000D01*
X103476250Y-71977000D01*
X103635000Y-71818250D01*
X103623980Y-71716642D01*
X103585974Y-71597472D01*
X103525449Y-71488006D01*
X103444731Y-71392452D01*
X103346922Y-71314481D01*
X103235781Y-71257089D01*
X103115580Y-71222483D01*
X102990937Y-71211992D01*
X102485750Y-71215000D01*
X102327000Y-71373750D01*
X102327000Y-71911928D01*
X102073000Y-71911928D01*
X102073000Y-71373750D01*
X101914250Y-71215000D01*
X101538072Y-71212760D01*
X101538072Y-70750000D01*
X101525812Y-70625518D01*
X101489502Y-70505820D01*
X101430537Y-70395506D01*
X101403000Y-70361952D01*
X101403000Y-68877000D01*
X101657000Y-68877000D01*
X101657000Y-70426250D01*
X101815750Y-70585000D01*
X101900000Y-70588072D01*
X102024482Y-70575812D01*
X102144180Y-70539502D01*
X102165000Y-70528373D01*
X102185820Y-70539502D01*
X102305518Y-70575812D01*
X102430000Y-70588072D01*
X102514250Y-70585000D01*
X102673000Y-70426250D01*
X102673000Y-68877000D01*
X101657000Y-68877000D01*
X101403000Y-68877000D01*
X101383000Y-68877000D01*
X101383000Y-68623000D01*
X101403000Y-68623000D01*
X101403000Y-68603000D01*
X101657000Y-68603000D01*
X101657000Y-68623000D01*
X102673000Y-68623000D01*
X102673000Y-67073750D01*
X102927000Y-67073750D01*
X102927000Y-68623000D01*
X102947000Y-68623000D01*
X102947000Y-68877000D01*
X102927000Y-68877000D01*
X102927000Y-70426250D01*
X103085750Y-70585000D01*
X103170000Y-70588072D01*
X103294482Y-70575812D01*
X103414180Y-70539502D01*
X103435000Y-70528373D01*
X103455820Y-70539502D01*
X103575518Y-70575812D01*
X103700000Y-70588072D01*
X104440000Y-70588072D01*
X104564482Y-70575812D01*
X104684180Y-70539502D01*
X104705000Y-70528373D01*
X104725820Y-70539502D01*
X104845518Y-70575812D01*
X104970000Y-70588072D01*
X105054250Y-70585000D01*
X105213000Y-70426250D01*
X105213000Y-68877000D01*
X105467000Y-68877000D01*
X105467000Y-70426250D01*
X105625750Y-70585000D01*
X105710000Y-70588072D01*
X105834482Y-70575812D01*
X105954180Y-70539502D01*
X106064494Y-70480537D01*
X106161185Y-70401185D01*
X106240537Y-70304494D01*
X106299502Y-70194180D01*
X106335812Y-70074482D01*
X106348072Y-69950000D01*
X106345000Y-69035750D01*
X106186250Y-68877000D01*
X105467000Y-68877000D01*
X105213000Y-68877000D01*
X105193000Y-68877000D01*
X105193000Y-68623000D01*
X105213000Y-68623000D01*
X105213000Y-67073750D01*
X105467000Y-67073750D01*
X105467000Y-68623000D01*
X106186250Y-68623000D01*
X106345000Y-68464250D01*
X106348072Y-67550000D01*
X106335812Y-67425518D01*
X106299502Y-67305820D01*
X106240537Y-67195506D01*
X106161185Y-67098815D01*
X106064494Y-67019463D01*
X105954180Y-66960498D01*
X105834482Y-66924188D01*
X105710000Y-66911928D01*
X105625750Y-66915000D01*
X105467000Y-67073750D01*
X105213000Y-67073750D01*
X105054250Y-66915000D01*
X104970000Y-66911928D01*
X104845518Y-66924188D01*
X104725820Y-66960498D01*
X104705000Y-66971627D01*
X104684180Y-66960498D01*
X104564482Y-66924188D01*
X104440000Y-66911928D01*
X103700000Y-66911928D01*
X103575518Y-66924188D01*
X103455820Y-66960498D01*
X103435000Y-66971627D01*
X103414180Y-66960498D01*
X103294482Y-66924188D01*
X103170000Y-66911928D01*
X103085750Y-66915000D01*
X102927000Y-67073750D01*
X102673000Y-67073750D01*
X102514250Y-66915000D01*
X102430000Y-66911928D01*
X102305518Y-66924188D01*
X102185820Y-66960498D01*
X102165000Y-66971627D01*
X102144180Y-66960498D01*
X102117315Y-66952349D01*
X102164974Y-66894276D01*
X102235546Y-66762247D01*
X102265452Y-66663658D01*
X102305518Y-66675812D01*
X102430000Y-66688072D01*
X103170000Y-66688072D01*
X103294482Y-66675812D01*
X103414180Y-66639502D01*
X103435000Y-66628373D01*
X103455820Y-66639502D01*
X103575518Y-66675812D01*
X103700000Y-66688072D01*
X104440000Y-66688072D01*
X104564482Y-66675812D01*
X104684180Y-66639502D01*
X104705000Y-66628373D01*
X104725820Y-66639502D01*
X104845518Y-66675812D01*
X104970000Y-66688072D01*
X105710000Y-66688072D01*
X105834482Y-66675812D01*
X105954180Y-66639502D01*
X106064494Y-66580537D01*
X106080327Y-66567543D01*
X109784196Y-66567543D01*
X109826499Y-66861963D01*
X109925428Y-67142474D01*
X110002132Y-67285975D01*
X110253760Y-67366635D01*
X111120395Y-66500000D01*
X110253760Y-65633365D01*
X110002132Y-65714025D01*
X109873733Y-65982329D01*
X109800145Y-66270526D01*
X109784196Y-66567543D01*
X106080327Y-66567543D01*
X106161185Y-66501185D01*
X106240537Y-66404494D01*
X106299502Y-66294180D01*
X106335812Y-66174482D01*
X106348072Y-66050000D01*
X106348072Y-63650000D01*
X106335812Y-63525518D01*
X106299502Y-63405820D01*
X106240537Y-63295506D01*
X106161185Y-63198815D01*
X106064494Y-63119463D01*
X105954180Y-63060498D01*
X105834482Y-63024188D01*
X105710000Y-63011928D01*
X104970000Y-63011928D01*
X104845518Y-63024188D01*
X104725820Y-63060498D01*
X104705000Y-63071627D01*
X104684180Y-63060498D01*
X104564482Y-63024188D01*
X104440000Y-63011928D01*
X103700000Y-63011928D01*
X103575518Y-63024188D01*
X103455820Y-63060498D01*
X103435000Y-63071627D01*
X103414180Y-63060498D01*
X103294482Y-63024188D01*
X103170000Y-63011928D01*
X102542873Y-63011928D01*
X102714004Y-62840797D01*
X102788889Y-62863513D01*
X103007050Y-62885000D01*
X103152950Y-62885000D01*
X103371111Y-62863513D01*
X103651034Y-62778599D01*
X103909014Y-62640706D01*
X104135134Y-62455134D01*
X104320706Y-62229014D01*
X104355201Y-62164477D01*
X104424822Y-62281355D01*
X104619731Y-62497588D01*
X104853080Y-62671641D01*
X105115901Y-62796825D01*
X105263110Y-62841476D01*
X105493000Y-62720155D01*
X105493000Y-61527000D01*
X105747000Y-61527000D01*
X105747000Y-62720155D01*
X105976890Y-62841476D01*
X106124099Y-62796825D01*
X106386920Y-62671641D01*
X106620269Y-62497588D01*
X106815178Y-62281355D01*
X106964157Y-62031252D01*
X107061481Y-61756891D01*
X106940814Y-61527000D01*
X105747000Y-61527000D01*
X105493000Y-61527000D01*
X105473000Y-61527000D01*
X105473000Y-61273000D01*
X105493000Y-61273000D01*
X105493000Y-61253000D01*
X105747000Y-61253000D01*
X105747000Y-61273000D01*
X106940814Y-61273000D01*
X107061481Y-61043109D01*
X106964157Y-60768748D01*
X106899379Y-60660000D01*
X121340000Y-60660000D01*
X121340000Y-69681928D01*
G36*
X116813466Y-71765044D02*
G01*
X116841183Y-71798817D01*
X116975941Y-71909411D01*
X117129687Y-71991589D01*
X117296510Y-72042195D01*
X117426523Y-72055000D01*
X117426533Y-72055000D01*
X117469999Y-72059281D01*
X117513465Y-72055000D01*
X119015375Y-72055000D01*
X119024188Y-72144482D01*
X119060498Y-72264180D01*
X119119463Y-72374494D01*
X119198815Y-72471185D01*
X119295506Y-72550537D01*
X119405820Y-72609502D01*
X119486466Y-72633966D01*
X119402412Y-72709731D01*
X119228359Y-72943080D01*
X119103175Y-73205901D01*
X119058524Y-73353110D01*
X119179845Y-73583000D01*
X120373000Y-73583000D01*
X120373000Y-73563000D01*
X120627000Y-73563000D01*
X120627000Y-73583000D01*
X120647000Y-73583000D01*
X120647000Y-73837000D01*
X120627000Y-73837000D01*
X120627000Y-73857000D01*
X120373000Y-73857000D01*
X120373000Y-73837000D01*
X119179845Y-73837000D01*
X119058524Y-74066890D01*
X119103175Y-74214099D01*
X119228359Y-74476920D01*
X119402412Y-74710269D01*
X119618645Y-74905178D01*
X119735523Y-74974799D01*
X119670986Y-75009294D01*
X119444866Y-75194866D01*
X119259294Y-75420986D01*
X119121401Y-75678966D01*
X119102886Y-75740000D01*
X118860920Y-75740000D01*
X118781623Y-75643377D01*
X118648942Y-75534488D01*
X118497567Y-75453577D01*
X118333316Y-75403752D01*
X118162500Y-75386928D01*
X117660000Y-75386928D01*
X117660000Y-74362322D01*
X117663676Y-74324999D01*
X117660000Y-74287676D01*
X117660000Y-74287667D01*
X117649003Y-74176014D01*
X117605546Y-74032753D01*
X117537698Y-73905820D01*
X117534974Y-73900723D01*
X117463799Y-73813997D01*
X117440001Y-73784999D01*
X117411003Y-73761201D01*
X116313072Y-72663271D01*
X116313072Y-72337500D01*
X116296248Y-72166684D01*
X116246423Y-72002433D01*
X116165512Y-71851058D01*
X116160000Y-71844342D01*
X116160000Y-71585000D01*
X116633422Y-71585000D01*
X116813466Y-71765044D01*
X116813466Y-71765044D01*
G37*
X116813466Y-71765044D02*
X116841183Y-71798817D01*
X116975941Y-71909411D01*
X117129687Y-71991589D01*
X117296510Y-72042195D01*
X117426523Y-72055000D01*
X117426533Y-72055000D01*
X117469999Y-72059281D01*
X117513465Y-72055000D01*
X119015375Y-72055000D01*
X119024188Y-72144482D01*
X119060498Y-72264180D01*
X119119463Y-72374494D01*
X119198815Y-72471185D01*
X119295506Y-72550537D01*
X119405820Y-72609502D01*
X119486466Y-72633966D01*
X119402412Y-72709731D01*
X119228359Y-72943080D01*
X119103175Y-73205901D01*
X119058524Y-73353110D01*
X119179845Y-73583000D01*
X120373000Y-73583000D01*
X120373000Y-73563000D01*
X120627000Y-73563000D01*
X120627000Y-73583000D01*
X120647000Y-73583000D01*
X120647000Y-73837000D01*
X120627000Y-73837000D01*
X120627000Y-73857000D01*
X120373000Y-73857000D01*
X120373000Y-73837000D01*
X119179845Y-73837000D01*
X119058524Y-74066890D01*
X119103175Y-74214099D01*
X119228359Y-74476920D01*
X119402412Y-74710269D01*
X119618645Y-74905178D01*
X119735523Y-74974799D01*
X119670986Y-75009294D01*
X119444866Y-75194866D01*
X119259294Y-75420986D01*
X119121401Y-75678966D01*
X119102886Y-75740000D01*
X118860920Y-75740000D01*
X118781623Y-75643377D01*
X118648942Y-75534488D01*
X118497567Y-75453577D01*
X118333316Y-75403752D01*
X118162500Y-75386928D01*
X117660000Y-75386928D01*
X117660000Y-74362322D01*
X117663676Y-74324999D01*
X117660000Y-74287676D01*
X117660000Y-74287667D01*
X117649003Y-74176014D01*
X117605546Y-74032753D01*
X117537698Y-73905820D01*
X117534974Y-73900723D01*
X117463799Y-73813997D01*
X117440001Y-73784999D01*
X117411003Y-73761201D01*
X116313072Y-72663271D01*
X116313072Y-72337500D01*
X116296248Y-72166684D01*
X116246423Y-72002433D01*
X116165512Y-71851058D01*
X116160000Y-71844342D01*
X116160000Y-71585000D01*
X116633422Y-71585000D01*
X116813466Y-71765044D01*
G36*
X96511928Y-62250000D02*
G01*
X96524188Y-62374482D01*
X96560498Y-62494180D01*
X96619463Y-62604494D01*
X96698815Y-62701185D01*
X96795506Y-62780537D01*
X96905820Y-62839502D01*
X97025518Y-62875812D01*
X97150000Y-62888072D01*
X98850000Y-62888072D01*
X98974482Y-62875812D01*
X99094180Y-62839502D01*
X99204494Y-62780537D01*
X99301185Y-62701185D01*
X99380537Y-62604494D01*
X99439502Y-62494180D01*
X99460393Y-62425313D01*
X99484866Y-62455134D01*
X99500001Y-62467555D01*
X99500001Y-63148601D01*
X99438815Y-63198815D01*
X99359463Y-63295506D01*
X99300498Y-63405820D01*
X99264188Y-63525518D01*
X99251928Y-63650000D01*
X99251928Y-65589990D01*
X96227333Y-65589990D01*
X96190010Y-65586314D01*
X96152687Y-65589990D01*
X96152677Y-65589990D01*
X96041024Y-65600987D01*
X95897763Y-65644444D01*
X95765733Y-65715016D01*
X95705492Y-65764455D01*
X95650009Y-65809989D01*
X95626211Y-65838987D01*
X95232500Y-66232699D01*
X95235000Y-66220128D01*
X95235000Y-65779872D01*
X95149110Y-65348075D01*
X94980631Y-64941331D01*
X94736038Y-64575271D01*
X94424729Y-64263962D01*
X94058669Y-64019369D01*
X93651925Y-63850890D01*
X93220128Y-63765000D01*
X92779872Y-63765000D01*
X92348075Y-63850890D01*
X91941331Y-64019369D01*
X91575271Y-64263962D01*
X91263962Y-64575271D01*
X91019369Y-64941331D01*
X90850890Y-65348075D01*
X90765000Y-65779872D01*
X90765000Y-66220128D01*
X90850890Y-66651925D01*
X91019369Y-67058669D01*
X91263962Y-67424729D01*
X91575271Y-67736038D01*
X91941331Y-67980631D01*
X92348075Y-68149110D01*
X92779872Y-68235000D01*
X93220128Y-68235000D01*
X93232699Y-68232499D01*
X91788998Y-69676201D01*
X91760000Y-69699999D01*
X91736202Y-69728997D01*
X91736201Y-69728998D01*
X91665026Y-69815724D01*
X91594454Y-69947754D01*
X91550998Y-70091015D01*
X91548938Y-70111928D01*
X91400000Y-70111928D01*
X91275518Y-70124188D01*
X91250000Y-70131929D01*
X91224482Y-70124188D01*
X91100000Y-70111928D01*
X90985750Y-70115000D01*
X90827000Y-70273750D01*
X90827000Y-70474947D01*
X90810498Y-70505820D01*
X90774188Y-70625518D01*
X90761928Y-70750000D01*
X90761928Y-71697000D01*
X90660000Y-71697000D01*
X90660000Y-60660000D01*
X96511928Y-60660000D01*
X96511928Y-62250000D01*
X96511928Y-62250000D01*
G37*
X96511928Y-62250000D02*
X96524188Y-62374482D01*
X96560498Y-62494180D01*
X96619463Y-62604494D01*
X96698815Y-62701185D01*
X96795506Y-62780537D01*
X96905820Y-62839502D01*
X97025518Y-62875812D01*
X97150000Y-62888072D01*
X98850000Y-62888072D01*
X98974482Y-62875812D01*
X99094180Y-62839502D01*
X99204494Y-62780537D01*
X99301185Y-62701185D01*
X99380537Y-62604494D01*
X99439502Y-62494180D01*
X99460393Y-62425313D01*
X99484866Y-62455134D01*
X99500001Y-62467555D01*
X99500001Y-63148601D01*
X99438815Y-63198815D01*
X99359463Y-63295506D01*
X99300498Y-63405820D01*
X99264188Y-63525518D01*
X99251928Y-63650000D01*
X99251928Y-65589990D01*
X96227333Y-65589990D01*
X96190010Y-65586314D01*
X96152687Y-65589990D01*
X96152677Y-65589990D01*
X96041024Y-65600987D01*
X95897763Y-65644444D01*
X95765733Y-65715016D01*
X95705492Y-65764455D01*
X95650009Y-65809989D01*
X95626211Y-65838987D01*
X95232500Y-66232699D01*
X95235000Y-66220128D01*
X95235000Y-65779872D01*
X95149110Y-65348075D01*
X94980631Y-64941331D01*
X94736038Y-64575271D01*
X94424729Y-64263962D01*
X94058669Y-64019369D01*
X93651925Y-63850890D01*
X93220128Y-63765000D01*
X92779872Y-63765000D01*
X92348075Y-63850890D01*
X91941331Y-64019369D01*
X91575271Y-64263962D01*
X91263962Y-64575271D01*
X91019369Y-64941331D01*
X90850890Y-65348075D01*
X90765000Y-65779872D01*
X90765000Y-66220128D01*
X90850890Y-66651925D01*
X91019369Y-67058669D01*
X91263962Y-67424729D01*
X91575271Y-67736038D01*
X91941331Y-67980631D01*
X92348075Y-68149110D01*
X92779872Y-68235000D01*
X93220128Y-68235000D01*
X93232699Y-68232499D01*
X91788998Y-69676201D01*
X91760000Y-69699999D01*
X91736202Y-69728997D01*
X91736201Y-69728998D01*
X91665026Y-69815724D01*
X91594454Y-69947754D01*
X91550998Y-70091015D01*
X91548938Y-70111928D01*
X91400000Y-70111928D01*
X91275518Y-70124188D01*
X91250000Y-70131929D01*
X91224482Y-70124188D01*
X91100000Y-70111928D01*
X90985750Y-70115000D01*
X90827000Y-70273750D01*
X90827000Y-70474947D01*
X90810498Y-70505820D01*
X90774188Y-70625518D01*
X90761928Y-70750000D01*
X90761928Y-71697000D01*
X90660000Y-71697000D01*
X90660000Y-60660000D01*
X96511928Y-60660000D01*
X96511928Y-62250000D01*
M02*
