G04 #@! TF.GenerationSoftware,KiCad,Pcbnew,(5.1.2-1)-1*
G04 #@! TF.CreationDate,2019-08-31T04:18:35+09:00*
G04 #@! TF.ProjectId,Schematic,53636865-6d61-4746-9963-2e6b69636164,rev?*
G04 #@! TF.SameCoordinates,Original*
G04 #@! TF.FileFunction,Paste,Top*
G04 #@! TF.FilePolarity,Positive*
%FSLAX46Y46*%
G04 Gerber Fmt 4.6, Leading zero omitted, Abs format (unit mm)*
G04 Created by KiCad (PCBNEW (5.1.2-1)-1) date 2019-08-31 04:18:35*
%MOMM*%
%LPD*%
G04 APERTURE LIST*
%ADD10R,0.800000X1.600000*%
%ADD11R,1.600000X0.400000*%
%ADD12R,0.400000X1.600000*%
%ADD13R,0.400000X1.000000*%
%ADD14C,0.100000*%
%ADD15C,0.950000*%
%ADD16R,0.800000X0.900000*%
%ADD17R,0.900000X0.800000*%
%ADD18C,1.150000*%
%ADD19R,0.740000X2.400000*%
G04 APERTURE END LIST*
D10*
X90700000Y-80950000D03*
D11*
X102200000Y-80450000D03*
D12*
X100700000Y-71550000D03*
D10*
X90700000Y-71550000D03*
D13*
X91250000Y-73350000D03*
X92650000Y-73350000D03*
D11*
X102200000Y-79750000D03*
X102200000Y-79050000D03*
X102200000Y-78350000D03*
X102200000Y-77650000D03*
X102200000Y-76950000D03*
X102200000Y-76250000D03*
X102200000Y-75550000D03*
X102200000Y-74850000D03*
X102200000Y-74150000D03*
X102200000Y-73450000D03*
X102200000Y-72750000D03*
X102200000Y-72050000D03*
D12*
X100000000Y-71550000D03*
X99300000Y-71550000D03*
X98600000Y-71550000D03*
X97900000Y-71550000D03*
X97200000Y-71550000D03*
X96500000Y-71550000D03*
X95800000Y-71550000D03*
X95100000Y-71550000D03*
X94400000Y-71550000D03*
X93700000Y-71550000D03*
X93000000Y-71550000D03*
X92300000Y-71550000D03*
X91600000Y-71550000D03*
X93700000Y-80950000D03*
X94400000Y-80950000D03*
X95100000Y-80950000D03*
X95800000Y-80950000D03*
X96500000Y-80950000D03*
X97200000Y-80950000D03*
X97900000Y-80950000D03*
X98600000Y-80950000D03*
X99300000Y-80950000D03*
X100000000Y-80950000D03*
D14*
G36*
X115585779Y-70226144D02*
G01*
X115608834Y-70229563D01*
X115631443Y-70235227D01*
X115653387Y-70243079D01*
X115674457Y-70253044D01*
X115694448Y-70265026D01*
X115713168Y-70278910D01*
X115730438Y-70294562D01*
X115746090Y-70311832D01*
X115759974Y-70330552D01*
X115771956Y-70350543D01*
X115781921Y-70371613D01*
X115789773Y-70393557D01*
X115795437Y-70416166D01*
X115798856Y-70439221D01*
X115800000Y-70462500D01*
X115800000Y-70937500D01*
X115798856Y-70960779D01*
X115795437Y-70983834D01*
X115789773Y-71006443D01*
X115781921Y-71028387D01*
X115771956Y-71049457D01*
X115759974Y-71069448D01*
X115746090Y-71088168D01*
X115730438Y-71105438D01*
X115713168Y-71121090D01*
X115694448Y-71134974D01*
X115674457Y-71146956D01*
X115653387Y-71156921D01*
X115631443Y-71164773D01*
X115608834Y-71170437D01*
X115585779Y-71173856D01*
X115562500Y-71175000D01*
X114987500Y-71175000D01*
X114964221Y-71173856D01*
X114941166Y-71170437D01*
X114918557Y-71164773D01*
X114896613Y-71156921D01*
X114875543Y-71146956D01*
X114855552Y-71134974D01*
X114836832Y-71121090D01*
X114819562Y-71105438D01*
X114803910Y-71088168D01*
X114790026Y-71069448D01*
X114778044Y-71049457D01*
X114768079Y-71028387D01*
X114760227Y-71006443D01*
X114754563Y-70983834D01*
X114751144Y-70960779D01*
X114750000Y-70937500D01*
X114750000Y-70462500D01*
X114751144Y-70439221D01*
X114754563Y-70416166D01*
X114760227Y-70393557D01*
X114768079Y-70371613D01*
X114778044Y-70350543D01*
X114790026Y-70330552D01*
X114803910Y-70311832D01*
X114819562Y-70294562D01*
X114836832Y-70278910D01*
X114855552Y-70265026D01*
X114875543Y-70253044D01*
X114896613Y-70243079D01*
X114918557Y-70235227D01*
X114941166Y-70229563D01*
X114964221Y-70226144D01*
X114987500Y-70225000D01*
X115562500Y-70225000D01*
X115585779Y-70226144D01*
X115585779Y-70226144D01*
G37*
D15*
X115275000Y-70700000D03*
D14*
G36*
X113835779Y-70226144D02*
G01*
X113858834Y-70229563D01*
X113881443Y-70235227D01*
X113903387Y-70243079D01*
X113924457Y-70253044D01*
X113944448Y-70265026D01*
X113963168Y-70278910D01*
X113980438Y-70294562D01*
X113996090Y-70311832D01*
X114009974Y-70330552D01*
X114021956Y-70350543D01*
X114031921Y-70371613D01*
X114039773Y-70393557D01*
X114045437Y-70416166D01*
X114048856Y-70439221D01*
X114050000Y-70462500D01*
X114050000Y-70937500D01*
X114048856Y-70960779D01*
X114045437Y-70983834D01*
X114039773Y-71006443D01*
X114031921Y-71028387D01*
X114021956Y-71049457D01*
X114009974Y-71069448D01*
X113996090Y-71088168D01*
X113980438Y-71105438D01*
X113963168Y-71121090D01*
X113944448Y-71134974D01*
X113924457Y-71146956D01*
X113903387Y-71156921D01*
X113881443Y-71164773D01*
X113858834Y-71170437D01*
X113835779Y-71173856D01*
X113812500Y-71175000D01*
X113237500Y-71175000D01*
X113214221Y-71173856D01*
X113191166Y-71170437D01*
X113168557Y-71164773D01*
X113146613Y-71156921D01*
X113125543Y-71146956D01*
X113105552Y-71134974D01*
X113086832Y-71121090D01*
X113069562Y-71105438D01*
X113053910Y-71088168D01*
X113040026Y-71069448D01*
X113028044Y-71049457D01*
X113018079Y-71028387D01*
X113010227Y-71006443D01*
X113004563Y-70983834D01*
X113001144Y-70960779D01*
X113000000Y-70937500D01*
X113000000Y-70462500D01*
X113001144Y-70439221D01*
X113004563Y-70416166D01*
X113010227Y-70393557D01*
X113018079Y-70371613D01*
X113028044Y-70350543D01*
X113040026Y-70330552D01*
X113053910Y-70311832D01*
X113069562Y-70294562D01*
X113086832Y-70278910D01*
X113105552Y-70265026D01*
X113125543Y-70253044D01*
X113146613Y-70243079D01*
X113168557Y-70235227D01*
X113191166Y-70229563D01*
X113214221Y-70226144D01*
X113237500Y-70225000D01*
X113812500Y-70225000D01*
X113835779Y-70226144D01*
X113835779Y-70226144D01*
G37*
D15*
X113525000Y-70700000D03*
D16*
X112600000Y-74600000D03*
X111650000Y-72600000D03*
X113550000Y-72600000D03*
D14*
G36*
X98260779Y-85351144D02*
G01*
X98283834Y-85354563D01*
X98306443Y-85360227D01*
X98328387Y-85368079D01*
X98349457Y-85378044D01*
X98369448Y-85390026D01*
X98388168Y-85403910D01*
X98405438Y-85419562D01*
X98421090Y-85436832D01*
X98434974Y-85455552D01*
X98446956Y-85475543D01*
X98456921Y-85496613D01*
X98464773Y-85518557D01*
X98470437Y-85541166D01*
X98473856Y-85564221D01*
X98475000Y-85587500D01*
X98475000Y-86162500D01*
X98473856Y-86185779D01*
X98470437Y-86208834D01*
X98464773Y-86231443D01*
X98456921Y-86253387D01*
X98446956Y-86274457D01*
X98434974Y-86294448D01*
X98421090Y-86313168D01*
X98405438Y-86330438D01*
X98388168Y-86346090D01*
X98369448Y-86359974D01*
X98349457Y-86371956D01*
X98328387Y-86381921D01*
X98306443Y-86389773D01*
X98283834Y-86395437D01*
X98260779Y-86398856D01*
X98237500Y-86400000D01*
X97762500Y-86400000D01*
X97739221Y-86398856D01*
X97716166Y-86395437D01*
X97693557Y-86389773D01*
X97671613Y-86381921D01*
X97650543Y-86371956D01*
X97630552Y-86359974D01*
X97611832Y-86346090D01*
X97594562Y-86330438D01*
X97578910Y-86313168D01*
X97565026Y-86294448D01*
X97553044Y-86274457D01*
X97543079Y-86253387D01*
X97535227Y-86231443D01*
X97529563Y-86208834D01*
X97526144Y-86185779D01*
X97525000Y-86162500D01*
X97525000Y-85587500D01*
X97526144Y-85564221D01*
X97529563Y-85541166D01*
X97535227Y-85518557D01*
X97543079Y-85496613D01*
X97553044Y-85475543D01*
X97565026Y-85455552D01*
X97578910Y-85436832D01*
X97594562Y-85419562D01*
X97611832Y-85403910D01*
X97630552Y-85390026D01*
X97650543Y-85378044D01*
X97671613Y-85368079D01*
X97693557Y-85360227D01*
X97716166Y-85354563D01*
X97739221Y-85351144D01*
X97762500Y-85350000D01*
X98237500Y-85350000D01*
X98260779Y-85351144D01*
X98260779Y-85351144D01*
G37*
D15*
X98000000Y-85875000D03*
D14*
G36*
X98260779Y-83601144D02*
G01*
X98283834Y-83604563D01*
X98306443Y-83610227D01*
X98328387Y-83618079D01*
X98349457Y-83628044D01*
X98369448Y-83640026D01*
X98388168Y-83653910D01*
X98405438Y-83669562D01*
X98421090Y-83686832D01*
X98434974Y-83705552D01*
X98446956Y-83725543D01*
X98456921Y-83746613D01*
X98464773Y-83768557D01*
X98470437Y-83791166D01*
X98473856Y-83814221D01*
X98475000Y-83837500D01*
X98475000Y-84412500D01*
X98473856Y-84435779D01*
X98470437Y-84458834D01*
X98464773Y-84481443D01*
X98456921Y-84503387D01*
X98446956Y-84524457D01*
X98434974Y-84544448D01*
X98421090Y-84563168D01*
X98405438Y-84580438D01*
X98388168Y-84596090D01*
X98369448Y-84609974D01*
X98349457Y-84621956D01*
X98328387Y-84631921D01*
X98306443Y-84639773D01*
X98283834Y-84645437D01*
X98260779Y-84648856D01*
X98237500Y-84650000D01*
X97762500Y-84650000D01*
X97739221Y-84648856D01*
X97716166Y-84645437D01*
X97693557Y-84639773D01*
X97671613Y-84631921D01*
X97650543Y-84621956D01*
X97630552Y-84609974D01*
X97611832Y-84596090D01*
X97594562Y-84580438D01*
X97578910Y-84563168D01*
X97565026Y-84544448D01*
X97553044Y-84524457D01*
X97543079Y-84503387D01*
X97535227Y-84481443D01*
X97529563Y-84458834D01*
X97526144Y-84435779D01*
X97525000Y-84412500D01*
X97525000Y-83837500D01*
X97526144Y-83814221D01*
X97529563Y-83791166D01*
X97535227Y-83768557D01*
X97543079Y-83746613D01*
X97553044Y-83725543D01*
X97565026Y-83705552D01*
X97578910Y-83686832D01*
X97594562Y-83669562D01*
X97611832Y-83653910D01*
X97630552Y-83640026D01*
X97650543Y-83628044D01*
X97671613Y-83618079D01*
X97693557Y-83610227D01*
X97716166Y-83604563D01*
X97739221Y-83601144D01*
X97762500Y-83600000D01*
X98237500Y-83600000D01*
X98260779Y-83601144D01*
X98260779Y-83601144D01*
G37*
D15*
X98000000Y-84125000D03*
D14*
G36*
X110260779Y-73851144D02*
G01*
X110283834Y-73854563D01*
X110306443Y-73860227D01*
X110328387Y-73868079D01*
X110349457Y-73878044D01*
X110369448Y-73890026D01*
X110388168Y-73903910D01*
X110405438Y-73919562D01*
X110421090Y-73936832D01*
X110434974Y-73955552D01*
X110446956Y-73975543D01*
X110456921Y-73996613D01*
X110464773Y-74018557D01*
X110470437Y-74041166D01*
X110473856Y-74064221D01*
X110475000Y-74087500D01*
X110475000Y-74662500D01*
X110473856Y-74685779D01*
X110470437Y-74708834D01*
X110464773Y-74731443D01*
X110456921Y-74753387D01*
X110446956Y-74774457D01*
X110434974Y-74794448D01*
X110421090Y-74813168D01*
X110405438Y-74830438D01*
X110388168Y-74846090D01*
X110369448Y-74859974D01*
X110349457Y-74871956D01*
X110328387Y-74881921D01*
X110306443Y-74889773D01*
X110283834Y-74895437D01*
X110260779Y-74898856D01*
X110237500Y-74900000D01*
X109762500Y-74900000D01*
X109739221Y-74898856D01*
X109716166Y-74895437D01*
X109693557Y-74889773D01*
X109671613Y-74881921D01*
X109650543Y-74871956D01*
X109630552Y-74859974D01*
X109611832Y-74846090D01*
X109594562Y-74830438D01*
X109578910Y-74813168D01*
X109565026Y-74794448D01*
X109553044Y-74774457D01*
X109543079Y-74753387D01*
X109535227Y-74731443D01*
X109529563Y-74708834D01*
X109526144Y-74685779D01*
X109525000Y-74662500D01*
X109525000Y-74087500D01*
X109526144Y-74064221D01*
X109529563Y-74041166D01*
X109535227Y-74018557D01*
X109543079Y-73996613D01*
X109553044Y-73975543D01*
X109565026Y-73955552D01*
X109578910Y-73936832D01*
X109594562Y-73919562D01*
X109611832Y-73903910D01*
X109630552Y-73890026D01*
X109650543Y-73878044D01*
X109671613Y-73868079D01*
X109693557Y-73860227D01*
X109716166Y-73854563D01*
X109739221Y-73851144D01*
X109762500Y-73850000D01*
X110237500Y-73850000D01*
X110260779Y-73851144D01*
X110260779Y-73851144D01*
G37*
D15*
X110000000Y-74375000D03*
D14*
G36*
X110260779Y-72101144D02*
G01*
X110283834Y-72104563D01*
X110306443Y-72110227D01*
X110328387Y-72118079D01*
X110349457Y-72128044D01*
X110369448Y-72140026D01*
X110388168Y-72153910D01*
X110405438Y-72169562D01*
X110421090Y-72186832D01*
X110434974Y-72205552D01*
X110446956Y-72225543D01*
X110456921Y-72246613D01*
X110464773Y-72268557D01*
X110470437Y-72291166D01*
X110473856Y-72314221D01*
X110475000Y-72337500D01*
X110475000Y-72912500D01*
X110473856Y-72935779D01*
X110470437Y-72958834D01*
X110464773Y-72981443D01*
X110456921Y-73003387D01*
X110446956Y-73024457D01*
X110434974Y-73044448D01*
X110421090Y-73063168D01*
X110405438Y-73080438D01*
X110388168Y-73096090D01*
X110369448Y-73109974D01*
X110349457Y-73121956D01*
X110328387Y-73131921D01*
X110306443Y-73139773D01*
X110283834Y-73145437D01*
X110260779Y-73148856D01*
X110237500Y-73150000D01*
X109762500Y-73150000D01*
X109739221Y-73148856D01*
X109716166Y-73145437D01*
X109693557Y-73139773D01*
X109671613Y-73131921D01*
X109650543Y-73121956D01*
X109630552Y-73109974D01*
X109611832Y-73096090D01*
X109594562Y-73080438D01*
X109578910Y-73063168D01*
X109565026Y-73044448D01*
X109553044Y-73024457D01*
X109543079Y-73003387D01*
X109535227Y-72981443D01*
X109529563Y-72958834D01*
X109526144Y-72935779D01*
X109525000Y-72912500D01*
X109525000Y-72337500D01*
X109526144Y-72314221D01*
X109529563Y-72291166D01*
X109535227Y-72268557D01*
X109543079Y-72246613D01*
X109553044Y-72225543D01*
X109565026Y-72205552D01*
X109578910Y-72186832D01*
X109594562Y-72169562D01*
X109611832Y-72153910D01*
X109630552Y-72140026D01*
X109650543Y-72128044D01*
X109671613Y-72118079D01*
X109693557Y-72110227D01*
X109716166Y-72104563D01*
X109739221Y-72101144D01*
X109762500Y-72100000D01*
X110237500Y-72100000D01*
X110260779Y-72101144D01*
X110260779Y-72101144D01*
G37*
D15*
X110000000Y-72625000D03*
D14*
G36*
X115460779Y-73851144D02*
G01*
X115483834Y-73854563D01*
X115506443Y-73860227D01*
X115528387Y-73868079D01*
X115549457Y-73878044D01*
X115569448Y-73890026D01*
X115588168Y-73903910D01*
X115605438Y-73919562D01*
X115621090Y-73936832D01*
X115634974Y-73955552D01*
X115646956Y-73975543D01*
X115656921Y-73996613D01*
X115664773Y-74018557D01*
X115670437Y-74041166D01*
X115673856Y-74064221D01*
X115675000Y-74087500D01*
X115675000Y-74662500D01*
X115673856Y-74685779D01*
X115670437Y-74708834D01*
X115664773Y-74731443D01*
X115656921Y-74753387D01*
X115646956Y-74774457D01*
X115634974Y-74794448D01*
X115621090Y-74813168D01*
X115605438Y-74830438D01*
X115588168Y-74846090D01*
X115569448Y-74859974D01*
X115549457Y-74871956D01*
X115528387Y-74881921D01*
X115506443Y-74889773D01*
X115483834Y-74895437D01*
X115460779Y-74898856D01*
X115437500Y-74900000D01*
X114962500Y-74900000D01*
X114939221Y-74898856D01*
X114916166Y-74895437D01*
X114893557Y-74889773D01*
X114871613Y-74881921D01*
X114850543Y-74871956D01*
X114830552Y-74859974D01*
X114811832Y-74846090D01*
X114794562Y-74830438D01*
X114778910Y-74813168D01*
X114765026Y-74794448D01*
X114753044Y-74774457D01*
X114743079Y-74753387D01*
X114735227Y-74731443D01*
X114729563Y-74708834D01*
X114726144Y-74685779D01*
X114725000Y-74662500D01*
X114725000Y-74087500D01*
X114726144Y-74064221D01*
X114729563Y-74041166D01*
X114735227Y-74018557D01*
X114743079Y-73996613D01*
X114753044Y-73975543D01*
X114765026Y-73955552D01*
X114778910Y-73936832D01*
X114794562Y-73919562D01*
X114811832Y-73903910D01*
X114830552Y-73890026D01*
X114850543Y-73878044D01*
X114871613Y-73868079D01*
X114893557Y-73860227D01*
X114916166Y-73854563D01*
X114939221Y-73851144D01*
X114962500Y-73850000D01*
X115437500Y-73850000D01*
X115460779Y-73851144D01*
X115460779Y-73851144D01*
G37*
D15*
X115200000Y-74375000D03*
D14*
G36*
X115460779Y-72101144D02*
G01*
X115483834Y-72104563D01*
X115506443Y-72110227D01*
X115528387Y-72118079D01*
X115549457Y-72128044D01*
X115569448Y-72140026D01*
X115588168Y-72153910D01*
X115605438Y-72169562D01*
X115621090Y-72186832D01*
X115634974Y-72205552D01*
X115646956Y-72225543D01*
X115656921Y-72246613D01*
X115664773Y-72268557D01*
X115670437Y-72291166D01*
X115673856Y-72314221D01*
X115675000Y-72337500D01*
X115675000Y-72912500D01*
X115673856Y-72935779D01*
X115670437Y-72958834D01*
X115664773Y-72981443D01*
X115656921Y-73003387D01*
X115646956Y-73024457D01*
X115634974Y-73044448D01*
X115621090Y-73063168D01*
X115605438Y-73080438D01*
X115588168Y-73096090D01*
X115569448Y-73109974D01*
X115549457Y-73121956D01*
X115528387Y-73131921D01*
X115506443Y-73139773D01*
X115483834Y-73145437D01*
X115460779Y-73148856D01*
X115437500Y-73150000D01*
X114962500Y-73150000D01*
X114939221Y-73148856D01*
X114916166Y-73145437D01*
X114893557Y-73139773D01*
X114871613Y-73131921D01*
X114850543Y-73121956D01*
X114830552Y-73109974D01*
X114811832Y-73096090D01*
X114794562Y-73080438D01*
X114778910Y-73063168D01*
X114765026Y-73044448D01*
X114753044Y-73024457D01*
X114743079Y-73003387D01*
X114735227Y-72981443D01*
X114729563Y-72958834D01*
X114726144Y-72935779D01*
X114725000Y-72912500D01*
X114725000Y-72337500D01*
X114726144Y-72314221D01*
X114729563Y-72291166D01*
X114735227Y-72268557D01*
X114743079Y-72246613D01*
X114753044Y-72225543D01*
X114765026Y-72205552D01*
X114778910Y-72186832D01*
X114794562Y-72169562D01*
X114811832Y-72153910D01*
X114830552Y-72140026D01*
X114850543Y-72128044D01*
X114871613Y-72118079D01*
X114893557Y-72110227D01*
X114916166Y-72104563D01*
X114939221Y-72101144D01*
X114962500Y-72100000D01*
X115437500Y-72100000D01*
X115460779Y-72101144D01*
X115460779Y-72101144D01*
G37*
D15*
X115200000Y-72625000D03*
D14*
G36*
X118185779Y-81026144D02*
G01*
X118208834Y-81029563D01*
X118231443Y-81035227D01*
X118253387Y-81043079D01*
X118274457Y-81053044D01*
X118294448Y-81065026D01*
X118313168Y-81078910D01*
X118330438Y-81094562D01*
X118346090Y-81111832D01*
X118359974Y-81130552D01*
X118371956Y-81150543D01*
X118381921Y-81171613D01*
X118389773Y-81193557D01*
X118395437Y-81216166D01*
X118398856Y-81239221D01*
X118400000Y-81262500D01*
X118400000Y-81737500D01*
X118398856Y-81760779D01*
X118395437Y-81783834D01*
X118389773Y-81806443D01*
X118381921Y-81828387D01*
X118371956Y-81849457D01*
X118359974Y-81869448D01*
X118346090Y-81888168D01*
X118330438Y-81905438D01*
X118313168Y-81921090D01*
X118294448Y-81934974D01*
X118274457Y-81946956D01*
X118253387Y-81956921D01*
X118231443Y-81964773D01*
X118208834Y-81970437D01*
X118185779Y-81973856D01*
X118162500Y-81975000D01*
X117587500Y-81975000D01*
X117564221Y-81973856D01*
X117541166Y-81970437D01*
X117518557Y-81964773D01*
X117496613Y-81956921D01*
X117475543Y-81946956D01*
X117455552Y-81934974D01*
X117436832Y-81921090D01*
X117419562Y-81905438D01*
X117403910Y-81888168D01*
X117390026Y-81869448D01*
X117378044Y-81849457D01*
X117368079Y-81828387D01*
X117360227Y-81806443D01*
X117354563Y-81783834D01*
X117351144Y-81760779D01*
X117350000Y-81737500D01*
X117350000Y-81262500D01*
X117351144Y-81239221D01*
X117354563Y-81216166D01*
X117360227Y-81193557D01*
X117368079Y-81171613D01*
X117378044Y-81150543D01*
X117390026Y-81130552D01*
X117403910Y-81111832D01*
X117419562Y-81094562D01*
X117436832Y-81078910D01*
X117455552Y-81065026D01*
X117475543Y-81053044D01*
X117496613Y-81043079D01*
X117518557Y-81035227D01*
X117541166Y-81029563D01*
X117564221Y-81026144D01*
X117587500Y-81025000D01*
X118162500Y-81025000D01*
X118185779Y-81026144D01*
X118185779Y-81026144D01*
G37*
D15*
X117875000Y-81500000D03*
D14*
G36*
X116435779Y-81026144D02*
G01*
X116458834Y-81029563D01*
X116481443Y-81035227D01*
X116503387Y-81043079D01*
X116524457Y-81053044D01*
X116544448Y-81065026D01*
X116563168Y-81078910D01*
X116580438Y-81094562D01*
X116596090Y-81111832D01*
X116609974Y-81130552D01*
X116621956Y-81150543D01*
X116631921Y-81171613D01*
X116639773Y-81193557D01*
X116645437Y-81216166D01*
X116648856Y-81239221D01*
X116650000Y-81262500D01*
X116650000Y-81737500D01*
X116648856Y-81760779D01*
X116645437Y-81783834D01*
X116639773Y-81806443D01*
X116631921Y-81828387D01*
X116621956Y-81849457D01*
X116609974Y-81869448D01*
X116596090Y-81888168D01*
X116580438Y-81905438D01*
X116563168Y-81921090D01*
X116544448Y-81934974D01*
X116524457Y-81946956D01*
X116503387Y-81956921D01*
X116481443Y-81964773D01*
X116458834Y-81970437D01*
X116435779Y-81973856D01*
X116412500Y-81975000D01*
X115837500Y-81975000D01*
X115814221Y-81973856D01*
X115791166Y-81970437D01*
X115768557Y-81964773D01*
X115746613Y-81956921D01*
X115725543Y-81946956D01*
X115705552Y-81934974D01*
X115686832Y-81921090D01*
X115669562Y-81905438D01*
X115653910Y-81888168D01*
X115640026Y-81869448D01*
X115628044Y-81849457D01*
X115618079Y-81828387D01*
X115610227Y-81806443D01*
X115604563Y-81783834D01*
X115601144Y-81760779D01*
X115600000Y-81737500D01*
X115600000Y-81262500D01*
X115601144Y-81239221D01*
X115604563Y-81216166D01*
X115610227Y-81193557D01*
X115618079Y-81171613D01*
X115628044Y-81150543D01*
X115640026Y-81130552D01*
X115653910Y-81111832D01*
X115669562Y-81094562D01*
X115686832Y-81078910D01*
X115705552Y-81065026D01*
X115725543Y-81053044D01*
X115746613Y-81043079D01*
X115768557Y-81035227D01*
X115791166Y-81029563D01*
X115814221Y-81026144D01*
X115837500Y-81025000D01*
X116412500Y-81025000D01*
X116435779Y-81026144D01*
X116435779Y-81026144D01*
G37*
D15*
X116125000Y-81500000D03*
D14*
G36*
X118185779Y-78526144D02*
G01*
X118208834Y-78529563D01*
X118231443Y-78535227D01*
X118253387Y-78543079D01*
X118274457Y-78553044D01*
X118294448Y-78565026D01*
X118313168Y-78578910D01*
X118330438Y-78594562D01*
X118346090Y-78611832D01*
X118359974Y-78630552D01*
X118371956Y-78650543D01*
X118381921Y-78671613D01*
X118389773Y-78693557D01*
X118395437Y-78716166D01*
X118398856Y-78739221D01*
X118400000Y-78762500D01*
X118400000Y-79237500D01*
X118398856Y-79260779D01*
X118395437Y-79283834D01*
X118389773Y-79306443D01*
X118381921Y-79328387D01*
X118371956Y-79349457D01*
X118359974Y-79369448D01*
X118346090Y-79388168D01*
X118330438Y-79405438D01*
X118313168Y-79421090D01*
X118294448Y-79434974D01*
X118274457Y-79446956D01*
X118253387Y-79456921D01*
X118231443Y-79464773D01*
X118208834Y-79470437D01*
X118185779Y-79473856D01*
X118162500Y-79475000D01*
X117587500Y-79475000D01*
X117564221Y-79473856D01*
X117541166Y-79470437D01*
X117518557Y-79464773D01*
X117496613Y-79456921D01*
X117475543Y-79446956D01*
X117455552Y-79434974D01*
X117436832Y-79421090D01*
X117419562Y-79405438D01*
X117403910Y-79388168D01*
X117390026Y-79369448D01*
X117378044Y-79349457D01*
X117368079Y-79328387D01*
X117360227Y-79306443D01*
X117354563Y-79283834D01*
X117351144Y-79260779D01*
X117350000Y-79237500D01*
X117350000Y-78762500D01*
X117351144Y-78739221D01*
X117354563Y-78716166D01*
X117360227Y-78693557D01*
X117368079Y-78671613D01*
X117378044Y-78650543D01*
X117390026Y-78630552D01*
X117403910Y-78611832D01*
X117419562Y-78594562D01*
X117436832Y-78578910D01*
X117455552Y-78565026D01*
X117475543Y-78553044D01*
X117496613Y-78543079D01*
X117518557Y-78535227D01*
X117541166Y-78529563D01*
X117564221Y-78526144D01*
X117587500Y-78525000D01*
X118162500Y-78525000D01*
X118185779Y-78526144D01*
X118185779Y-78526144D01*
G37*
D15*
X117875000Y-79000000D03*
D14*
G36*
X116435779Y-78526144D02*
G01*
X116458834Y-78529563D01*
X116481443Y-78535227D01*
X116503387Y-78543079D01*
X116524457Y-78553044D01*
X116544448Y-78565026D01*
X116563168Y-78578910D01*
X116580438Y-78594562D01*
X116596090Y-78611832D01*
X116609974Y-78630552D01*
X116621956Y-78650543D01*
X116631921Y-78671613D01*
X116639773Y-78693557D01*
X116645437Y-78716166D01*
X116648856Y-78739221D01*
X116650000Y-78762500D01*
X116650000Y-79237500D01*
X116648856Y-79260779D01*
X116645437Y-79283834D01*
X116639773Y-79306443D01*
X116631921Y-79328387D01*
X116621956Y-79349457D01*
X116609974Y-79369448D01*
X116596090Y-79388168D01*
X116580438Y-79405438D01*
X116563168Y-79421090D01*
X116544448Y-79434974D01*
X116524457Y-79446956D01*
X116503387Y-79456921D01*
X116481443Y-79464773D01*
X116458834Y-79470437D01*
X116435779Y-79473856D01*
X116412500Y-79475000D01*
X115837500Y-79475000D01*
X115814221Y-79473856D01*
X115791166Y-79470437D01*
X115768557Y-79464773D01*
X115746613Y-79456921D01*
X115725543Y-79446956D01*
X115705552Y-79434974D01*
X115686832Y-79421090D01*
X115669562Y-79405438D01*
X115653910Y-79388168D01*
X115640026Y-79369448D01*
X115628044Y-79349457D01*
X115618079Y-79328387D01*
X115610227Y-79306443D01*
X115604563Y-79283834D01*
X115601144Y-79260779D01*
X115600000Y-79237500D01*
X115600000Y-78762500D01*
X115601144Y-78739221D01*
X115604563Y-78716166D01*
X115610227Y-78693557D01*
X115618079Y-78671613D01*
X115628044Y-78650543D01*
X115640026Y-78630552D01*
X115653910Y-78611832D01*
X115669562Y-78594562D01*
X115686832Y-78578910D01*
X115705552Y-78565026D01*
X115725543Y-78553044D01*
X115746613Y-78543079D01*
X115768557Y-78535227D01*
X115791166Y-78529563D01*
X115814221Y-78526144D01*
X115837500Y-78525000D01*
X116412500Y-78525000D01*
X116435779Y-78526144D01*
X116435779Y-78526144D01*
G37*
D15*
X116125000Y-79000000D03*
D14*
G36*
X118185779Y-76026144D02*
G01*
X118208834Y-76029563D01*
X118231443Y-76035227D01*
X118253387Y-76043079D01*
X118274457Y-76053044D01*
X118294448Y-76065026D01*
X118313168Y-76078910D01*
X118330438Y-76094562D01*
X118346090Y-76111832D01*
X118359974Y-76130552D01*
X118371956Y-76150543D01*
X118381921Y-76171613D01*
X118389773Y-76193557D01*
X118395437Y-76216166D01*
X118398856Y-76239221D01*
X118400000Y-76262500D01*
X118400000Y-76737500D01*
X118398856Y-76760779D01*
X118395437Y-76783834D01*
X118389773Y-76806443D01*
X118381921Y-76828387D01*
X118371956Y-76849457D01*
X118359974Y-76869448D01*
X118346090Y-76888168D01*
X118330438Y-76905438D01*
X118313168Y-76921090D01*
X118294448Y-76934974D01*
X118274457Y-76946956D01*
X118253387Y-76956921D01*
X118231443Y-76964773D01*
X118208834Y-76970437D01*
X118185779Y-76973856D01*
X118162500Y-76975000D01*
X117587500Y-76975000D01*
X117564221Y-76973856D01*
X117541166Y-76970437D01*
X117518557Y-76964773D01*
X117496613Y-76956921D01*
X117475543Y-76946956D01*
X117455552Y-76934974D01*
X117436832Y-76921090D01*
X117419562Y-76905438D01*
X117403910Y-76888168D01*
X117390026Y-76869448D01*
X117378044Y-76849457D01*
X117368079Y-76828387D01*
X117360227Y-76806443D01*
X117354563Y-76783834D01*
X117351144Y-76760779D01*
X117350000Y-76737500D01*
X117350000Y-76262500D01*
X117351144Y-76239221D01*
X117354563Y-76216166D01*
X117360227Y-76193557D01*
X117368079Y-76171613D01*
X117378044Y-76150543D01*
X117390026Y-76130552D01*
X117403910Y-76111832D01*
X117419562Y-76094562D01*
X117436832Y-76078910D01*
X117455552Y-76065026D01*
X117475543Y-76053044D01*
X117496613Y-76043079D01*
X117518557Y-76035227D01*
X117541166Y-76029563D01*
X117564221Y-76026144D01*
X117587500Y-76025000D01*
X118162500Y-76025000D01*
X118185779Y-76026144D01*
X118185779Y-76026144D01*
G37*
D15*
X117875000Y-76500000D03*
D14*
G36*
X116435779Y-76026144D02*
G01*
X116458834Y-76029563D01*
X116481443Y-76035227D01*
X116503387Y-76043079D01*
X116524457Y-76053044D01*
X116544448Y-76065026D01*
X116563168Y-76078910D01*
X116580438Y-76094562D01*
X116596090Y-76111832D01*
X116609974Y-76130552D01*
X116621956Y-76150543D01*
X116631921Y-76171613D01*
X116639773Y-76193557D01*
X116645437Y-76216166D01*
X116648856Y-76239221D01*
X116650000Y-76262500D01*
X116650000Y-76737500D01*
X116648856Y-76760779D01*
X116645437Y-76783834D01*
X116639773Y-76806443D01*
X116631921Y-76828387D01*
X116621956Y-76849457D01*
X116609974Y-76869448D01*
X116596090Y-76888168D01*
X116580438Y-76905438D01*
X116563168Y-76921090D01*
X116544448Y-76934974D01*
X116524457Y-76946956D01*
X116503387Y-76956921D01*
X116481443Y-76964773D01*
X116458834Y-76970437D01*
X116435779Y-76973856D01*
X116412500Y-76975000D01*
X115837500Y-76975000D01*
X115814221Y-76973856D01*
X115791166Y-76970437D01*
X115768557Y-76964773D01*
X115746613Y-76956921D01*
X115725543Y-76946956D01*
X115705552Y-76934974D01*
X115686832Y-76921090D01*
X115669562Y-76905438D01*
X115653910Y-76888168D01*
X115640026Y-76869448D01*
X115628044Y-76849457D01*
X115618079Y-76828387D01*
X115610227Y-76806443D01*
X115604563Y-76783834D01*
X115601144Y-76760779D01*
X115600000Y-76737500D01*
X115600000Y-76262500D01*
X115601144Y-76239221D01*
X115604563Y-76216166D01*
X115610227Y-76193557D01*
X115618079Y-76171613D01*
X115628044Y-76150543D01*
X115640026Y-76130552D01*
X115653910Y-76111832D01*
X115669562Y-76094562D01*
X115686832Y-76078910D01*
X115705552Y-76065026D01*
X115725543Y-76053044D01*
X115746613Y-76043079D01*
X115768557Y-76035227D01*
X115791166Y-76029563D01*
X115814221Y-76026144D01*
X115837500Y-76025000D01*
X116412500Y-76025000D01*
X116435779Y-76026144D01*
X116435779Y-76026144D01*
G37*
D15*
X116125000Y-76500000D03*
D14*
G36*
X110260779Y-85851144D02*
G01*
X110283834Y-85854563D01*
X110306443Y-85860227D01*
X110328387Y-85868079D01*
X110349457Y-85878044D01*
X110369448Y-85890026D01*
X110388168Y-85903910D01*
X110405438Y-85919562D01*
X110421090Y-85936832D01*
X110434974Y-85955552D01*
X110446956Y-85975543D01*
X110456921Y-85996613D01*
X110464773Y-86018557D01*
X110470437Y-86041166D01*
X110473856Y-86064221D01*
X110475000Y-86087500D01*
X110475000Y-86662500D01*
X110473856Y-86685779D01*
X110470437Y-86708834D01*
X110464773Y-86731443D01*
X110456921Y-86753387D01*
X110446956Y-86774457D01*
X110434974Y-86794448D01*
X110421090Y-86813168D01*
X110405438Y-86830438D01*
X110388168Y-86846090D01*
X110369448Y-86859974D01*
X110349457Y-86871956D01*
X110328387Y-86881921D01*
X110306443Y-86889773D01*
X110283834Y-86895437D01*
X110260779Y-86898856D01*
X110237500Y-86900000D01*
X109762500Y-86900000D01*
X109739221Y-86898856D01*
X109716166Y-86895437D01*
X109693557Y-86889773D01*
X109671613Y-86881921D01*
X109650543Y-86871956D01*
X109630552Y-86859974D01*
X109611832Y-86846090D01*
X109594562Y-86830438D01*
X109578910Y-86813168D01*
X109565026Y-86794448D01*
X109553044Y-86774457D01*
X109543079Y-86753387D01*
X109535227Y-86731443D01*
X109529563Y-86708834D01*
X109526144Y-86685779D01*
X109525000Y-86662500D01*
X109525000Y-86087500D01*
X109526144Y-86064221D01*
X109529563Y-86041166D01*
X109535227Y-86018557D01*
X109543079Y-85996613D01*
X109553044Y-85975543D01*
X109565026Y-85955552D01*
X109578910Y-85936832D01*
X109594562Y-85919562D01*
X109611832Y-85903910D01*
X109630552Y-85890026D01*
X109650543Y-85878044D01*
X109671613Y-85868079D01*
X109693557Y-85860227D01*
X109716166Y-85854563D01*
X109739221Y-85851144D01*
X109762500Y-85850000D01*
X110237500Y-85850000D01*
X110260779Y-85851144D01*
X110260779Y-85851144D01*
G37*
D15*
X110000000Y-86375000D03*
D14*
G36*
X110260779Y-84101144D02*
G01*
X110283834Y-84104563D01*
X110306443Y-84110227D01*
X110328387Y-84118079D01*
X110349457Y-84128044D01*
X110369448Y-84140026D01*
X110388168Y-84153910D01*
X110405438Y-84169562D01*
X110421090Y-84186832D01*
X110434974Y-84205552D01*
X110446956Y-84225543D01*
X110456921Y-84246613D01*
X110464773Y-84268557D01*
X110470437Y-84291166D01*
X110473856Y-84314221D01*
X110475000Y-84337500D01*
X110475000Y-84912500D01*
X110473856Y-84935779D01*
X110470437Y-84958834D01*
X110464773Y-84981443D01*
X110456921Y-85003387D01*
X110446956Y-85024457D01*
X110434974Y-85044448D01*
X110421090Y-85063168D01*
X110405438Y-85080438D01*
X110388168Y-85096090D01*
X110369448Y-85109974D01*
X110349457Y-85121956D01*
X110328387Y-85131921D01*
X110306443Y-85139773D01*
X110283834Y-85145437D01*
X110260779Y-85148856D01*
X110237500Y-85150000D01*
X109762500Y-85150000D01*
X109739221Y-85148856D01*
X109716166Y-85145437D01*
X109693557Y-85139773D01*
X109671613Y-85131921D01*
X109650543Y-85121956D01*
X109630552Y-85109974D01*
X109611832Y-85096090D01*
X109594562Y-85080438D01*
X109578910Y-85063168D01*
X109565026Y-85044448D01*
X109553044Y-85024457D01*
X109543079Y-85003387D01*
X109535227Y-84981443D01*
X109529563Y-84958834D01*
X109526144Y-84935779D01*
X109525000Y-84912500D01*
X109525000Y-84337500D01*
X109526144Y-84314221D01*
X109529563Y-84291166D01*
X109535227Y-84268557D01*
X109543079Y-84246613D01*
X109553044Y-84225543D01*
X109565026Y-84205552D01*
X109578910Y-84186832D01*
X109594562Y-84169562D01*
X109611832Y-84153910D01*
X109630552Y-84140026D01*
X109650543Y-84128044D01*
X109671613Y-84118079D01*
X109693557Y-84110227D01*
X109716166Y-84104563D01*
X109739221Y-84101144D01*
X109762500Y-84100000D01*
X110237500Y-84100000D01*
X110260779Y-84101144D01*
X110260779Y-84101144D01*
G37*
D15*
X110000000Y-84625000D03*
D14*
G36*
X110260779Y-81851144D02*
G01*
X110283834Y-81854563D01*
X110306443Y-81860227D01*
X110328387Y-81868079D01*
X110349457Y-81878044D01*
X110369448Y-81890026D01*
X110388168Y-81903910D01*
X110405438Y-81919562D01*
X110421090Y-81936832D01*
X110434974Y-81955552D01*
X110446956Y-81975543D01*
X110456921Y-81996613D01*
X110464773Y-82018557D01*
X110470437Y-82041166D01*
X110473856Y-82064221D01*
X110475000Y-82087500D01*
X110475000Y-82662500D01*
X110473856Y-82685779D01*
X110470437Y-82708834D01*
X110464773Y-82731443D01*
X110456921Y-82753387D01*
X110446956Y-82774457D01*
X110434974Y-82794448D01*
X110421090Y-82813168D01*
X110405438Y-82830438D01*
X110388168Y-82846090D01*
X110369448Y-82859974D01*
X110349457Y-82871956D01*
X110328387Y-82881921D01*
X110306443Y-82889773D01*
X110283834Y-82895437D01*
X110260779Y-82898856D01*
X110237500Y-82900000D01*
X109762500Y-82900000D01*
X109739221Y-82898856D01*
X109716166Y-82895437D01*
X109693557Y-82889773D01*
X109671613Y-82881921D01*
X109650543Y-82871956D01*
X109630552Y-82859974D01*
X109611832Y-82846090D01*
X109594562Y-82830438D01*
X109578910Y-82813168D01*
X109565026Y-82794448D01*
X109553044Y-82774457D01*
X109543079Y-82753387D01*
X109535227Y-82731443D01*
X109529563Y-82708834D01*
X109526144Y-82685779D01*
X109525000Y-82662500D01*
X109525000Y-82087500D01*
X109526144Y-82064221D01*
X109529563Y-82041166D01*
X109535227Y-82018557D01*
X109543079Y-81996613D01*
X109553044Y-81975543D01*
X109565026Y-81955552D01*
X109578910Y-81936832D01*
X109594562Y-81919562D01*
X109611832Y-81903910D01*
X109630552Y-81890026D01*
X109650543Y-81878044D01*
X109671613Y-81868079D01*
X109693557Y-81860227D01*
X109716166Y-81854563D01*
X109739221Y-81851144D01*
X109762500Y-81850000D01*
X110237500Y-81850000D01*
X110260779Y-81851144D01*
X110260779Y-81851144D01*
G37*
D15*
X110000000Y-82375000D03*
D14*
G36*
X110260779Y-80101144D02*
G01*
X110283834Y-80104563D01*
X110306443Y-80110227D01*
X110328387Y-80118079D01*
X110349457Y-80128044D01*
X110369448Y-80140026D01*
X110388168Y-80153910D01*
X110405438Y-80169562D01*
X110421090Y-80186832D01*
X110434974Y-80205552D01*
X110446956Y-80225543D01*
X110456921Y-80246613D01*
X110464773Y-80268557D01*
X110470437Y-80291166D01*
X110473856Y-80314221D01*
X110475000Y-80337500D01*
X110475000Y-80912500D01*
X110473856Y-80935779D01*
X110470437Y-80958834D01*
X110464773Y-80981443D01*
X110456921Y-81003387D01*
X110446956Y-81024457D01*
X110434974Y-81044448D01*
X110421090Y-81063168D01*
X110405438Y-81080438D01*
X110388168Y-81096090D01*
X110369448Y-81109974D01*
X110349457Y-81121956D01*
X110328387Y-81131921D01*
X110306443Y-81139773D01*
X110283834Y-81145437D01*
X110260779Y-81148856D01*
X110237500Y-81150000D01*
X109762500Y-81150000D01*
X109739221Y-81148856D01*
X109716166Y-81145437D01*
X109693557Y-81139773D01*
X109671613Y-81131921D01*
X109650543Y-81121956D01*
X109630552Y-81109974D01*
X109611832Y-81096090D01*
X109594562Y-81080438D01*
X109578910Y-81063168D01*
X109565026Y-81044448D01*
X109553044Y-81024457D01*
X109543079Y-81003387D01*
X109535227Y-80981443D01*
X109529563Y-80958834D01*
X109526144Y-80935779D01*
X109525000Y-80912500D01*
X109525000Y-80337500D01*
X109526144Y-80314221D01*
X109529563Y-80291166D01*
X109535227Y-80268557D01*
X109543079Y-80246613D01*
X109553044Y-80225543D01*
X109565026Y-80205552D01*
X109578910Y-80186832D01*
X109594562Y-80169562D01*
X109611832Y-80153910D01*
X109630552Y-80140026D01*
X109650543Y-80128044D01*
X109671613Y-80118079D01*
X109693557Y-80110227D01*
X109716166Y-80104563D01*
X109739221Y-80101144D01*
X109762500Y-80100000D01*
X110237500Y-80100000D01*
X110260779Y-80101144D01*
X110260779Y-80101144D01*
G37*
D15*
X110000000Y-80625000D03*
D14*
G36*
X110260779Y-77851144D02*
G01*
X110283834Y-77854563D01*
X110306443Y-77860227D01*
X110328387Y-77868079D01*
X110349457Y-77878044D01*
X110369448Y-77890026D01*
X110388168Y-77903910D01*
X110405438Y-77919562D01*
X110421090Y-77936832D01*
X110434974Y-77955552D01*
X110446956Y-77975543D01*
X110456921Y-77996613D01*
X110464773Y-78018557D01*
X110470437Y-78041166D01*
X110473856Y-78064221D01*
X110475000Y-78087500D01*
X110475000Y-78662500D01*
X110473856Y-78685779D01*
X110470437Y-78708834D01*
X110464773Y-78731443D01*
X110456921Y-78753387D01*
X110446956Y-78774457D01*
X110434974Y-78794448D01*
X110421090Y-78813168D01*
X110405438Y-78830438D01*
X110388168Y-78846090D01*
X110369448Y-78859974D01*
X110349457Y-78871956D01*
X110328387Y-78881921D01*
X110306443Y-78889773D01*
X110283834Y-78895437D01*
X110260779Y-78898856D01*
X110237500Y-78900000D01*
X109762500Y-78900000D01*
X109739221Y-78898856D01*
X109716166Y-78895437D01*
X109693557Y-78889773D01*
X109671613Y-78881921D01*
X109650543Y-78871956D01*
X109630552Y-78859974D01*
X109611832Y-78846090D01*
X109594562Y-78830438D01*
X109578910Y-78813168D01*
X109565026Y-78794448D01*
X109553044Y-78774457D01*
X109543079Y-78753387D01*
X109535227Y-78731443D01*
X109529563Y-78708834D01*
X109526144Y-78685779D01*
X109525000Y-78662500D01*
X109525000Y-78087500D01*
X109526144Y-78064221D01*
X109529563Y-78041166D01*
X109535227Y-78018557D01*
X109543079Y-77996613D01*
X109553044Y-77975543D01*
X109565026Y-77955552D01*
X109578910Y-77936832D01*
X109594562Y-77919562D01*
X109611832Y-77903910D01*
X109630552Y-77890026D01*
X109650543Y-77878044D01*
X109671613Y-77868079D01*
X109693557Y-77860227D01*
X109716166Y-77854563D01*
X109739221Y-77851144D01*
X109762500Y-77850000D01*
X110237500Y-77850000D01*
X110260779Y-77851144D01*
X110260779Y-77851144D01*
G37*
D15*
X110000000Y-78375000D03*
D14*
G36*
X110260779Y-76101144D02*
G01*
X110283834Y-76104563D01*
X110306443Y-76110227D01*
X110328387Y-76118079D01*
X110349457Y-76128044D01*
X110369448Y-76140026D01*
X110388168Y-76153910D01*
X110405438Y-76169562D01*
X110421090Y-76186832D01*
X110434974Y-76205552D01*
X110446956Y-76225543D01*
X110456921Y-76246613D01*
X110464773Y-76268557D01*
X110470437Y-76291166D01*
X110473856Y-76314221D01*
X110475000Y-76337500D01*
X110475000Y-76912500D01*
X110473856Y-76935779D01*
X110470437Y-76958834D01*
X110464773Y-76981443D01*
X110456921Y-77003387D01*
X110446956Y-77024457D01*
X110434974Y-77044448D01*
X110421090Y-77063168D01*
X110405438Y-77080438D01*
X110388168Y-77096090D01*
X110369448Y-77109974D01*
X110349457Y-77121956D01*
X110328387Y-77131921D01*
X110306443Y-77139773D01*
X110283834Y-77145437D01*
X110260779Y-77148856D01*
X110237500Y-77150000D01*
X109762500Y-77150000D01*
X109739221Y-77148856D01*
X109716166Y-77145437D01*
X109693557Y-77139773D01*
X109671613Y-77131921D01*
X109650543Y-77121956D01*
X109630552Y-77109974D01*
X109611832Y-77096090D01*
X109594562Y-77080438D01*
X109578910Y-77063168D01*
X109565026Y-77044448D01*
X109553044Y-77024457D01*
X109543079Y-77003387D01*
X109535227Y-76981443D01*
X109529563Y-76958834D01*
X109526144Y-76935779D01*
X109525000Y-76912500D01*
X109525000Y-76337500D01*
X109526144Y-76314221D01*
X109529563Y-76291166D01*
X109535227Y-76268557D01*
X109543079Y-76246613D01*
X109553044Y-76225543D01*
X109565026Y-76205552D01*
X109578910Y-76186832D01*
X109594562Y-76169562D01*
X109611832Y-76153910D01*
X109630552Y-76140026D01*
X109650543Y-76128044D01*
X109671613Y-76118079D01*
X109693557Y-76110227D01*
X109716166Y-76104563D01*
X109739221Y-76101144D01*
X109762500Y-76100000D01*
X110237500Y-76100000D01*
X110260779Y-76101144D01*
X110260779Y-76101144D01*
G37*
D15*
X110000000Y-76625000D03*
D17*
X114000000Y-85500000D03*
X112000000Y-86450000D03*
X112000000Y-84550000D03*
X114000000Y-81500000D03*
X112000000Y-82450000D03*
X112000000Y-80550000D03*
X114000000Y-77500000D03*
X112000000Y-78450000D03*
X112000000Y-76550000D03*
D14*
G36*
X102474505Y-83401204D02*
G01*
X102498773Y-83404804D01*
X102522572Y-83410765D01*
X102545671Y-83419030D01*
X102567850Y-83429520D01*
X102588893Y-83442132D01*
X102608599Y-83456747D01*
X102626777Y-83473223D01*
X102643253Y-83491401D01*
X102657868Y-83511107D01*
X102670480Y-83532150D01*
X102680970Y-83554329D01*
X102689235Y-83577428D01*
X102695196Y-83601227D01*
X102698796Y-83625495D01*
X102700000Y-83649999D01*
X102700000Y-84300001D01*
X102698796Y-84324505D01*
X102695196Y-84348773D01*
X102689235Y-84372572D01*
X102680970Y-84395671D01*
X102670480Y-84417850D01*
X102657868Y-84438893D01*
X102643253Y-84458599D01*
X102626777Y-84476777D01*
X102608599Y-84493253D01*
X102588893Y-84507868D01*
X102567850Y-84520480D01*
X102545671Y-84530970D01*
X102522572Y-84539235D01*
X102498773Y-84545196D01*
X102474505Y-84548796D01*
X102450001Y-84550000D01*
X101549999Y-84550000D01*
X101525495Y-84548796D01*
X101501227Y-84545196D01*
X101477428Y-84539235D01*
X101454329Y-84530970D01*
X101432150Y-84520480D01*
X101411107Y-84507868D01*
X101391401Y-84493253D01*
X101373223Y-84476777D01*
X101356747Y-84458599D01*
X101342132Y-84438893D01*
X101329520Y-84417850D01*
X101319030Y-84395671D01*
X101310765Y-84372572D01*
X101304804Y-84348773D01*
X101301204Y-84324505D01*
X101300000Y-84300001D01*
X101300000Y-83649999D01*
X101301204Y-83625495D01*
X101304804Y-83601227D01*
X101310765Y-83577428D01*
X101319030Y-83554329D01*
X101329520Y-83532150D01*
X101342132Y-83511107D01*
X101356747Y-83491401D01*
X101373223Y-83473223D01*
X101391401Y-83456747D01*
X101411107Y-83442132D01*
X101432150Y-83429520D01*
X101454329Y-83419030D01*
X101477428Y-83410765D01*
X101501227Y-83404804D01*
X101525495Y-83401204D01*
X101549999Y-83400000D01*
X102450001Y-83400000D01*
X102474505Y-83401204D01*
X102474505Y-83401204D01*
G37*
D18*
X102000000Y-83975000D03*
D14*
G36*
X102474505Y-85451204D02*
G01*
X102498773Y-85454804D01*
X102522572Y-85460765D01*
X102545671Y-85469030D01*
X102567850Y-85479520D01*
X102588893Y-85492132D01*
X102608599Y-85506747D01*
X102626777Y-85523223D01*
X102643253Y-85541401D01*
X102657868Y-85561107D01*
X102670480Y-85582150D01*
X102680970Y-85604329D01*
X102689235Y-85627428D01*
X102695196Y-85651227D01*
X102698796Y-85675495D01*
X102700000Y-85699999D01*
X102700000Y-86350001D01*
X102698796Y-86374505D01*
X102695196Y-86398773D01*
X102689235Y-86422572D01*
X102680970Y-86445671D01*
X102670480Y-86467850D01*
X102657868Y-86488893D01*
X102643253Y-86508599D01*
X102626777Y-86526777D01*
X102608599Y-86543253D01*
X102588893Y-86557868D01*
X102567850Y-86570480D01*
X102545671Y-86580970D01*
X102522572Y-86589235D01*
X102498773Y-86595196D01*
X102474505Y-86598796D01*
X102450001Y-86600000D01*
X101549999Y-86600000D01*
X101525495Y-86598796D01*
X101501227Y-86595196D01*
X101477428Y-86589235D01*
X101454329Y-86580970D01*
X101432150Y-86570480D01*
X101411107Y-86557868D01*
X101391401Y-86543253D01*
X101373223Y-86526777D01*
X101356747Y-86508599D01*
X101342132Y-86488893D01*
X101329520Y-86467850D01*
X101319030Y-86445671D01*
X101310765Y-86422572D01*
X101304804Y-86398773D01*
X101301204Y-86374505D01*
X101300000Y-86350001D01*
X101300000Y-85699999D01*
X101301204Y-85675495D01*
X101304804Y-85651227D01*
X101310765Y-85627428D01*
X101319030Y-85604329D01*
X101329520Y-85582150D01*
X101342132Y-85561107D01*
X101356747Y-85541401D01*
X101373223Y-85523223D01*
X101391401Y-85506747D01*
X101411107Y-85492132D01*
X101432150Y-85479520D01*
X101454329Y-85469030D01*
X101477428Y-85460765D01*
X101501227Y-85454804D01*
X101525495Y-85451204D01*
X101549999Y-85450000D01*
X102450001Y-85450000D01*
X102474505Y-85451204D01*
X102474505Y-85451204D01*
G37*
D18*
X102000000Y-86025000D03*
D14*
G36*
X100260779Y-85351144D02*
G01*
X100283834Y-85354563D01*
X100306443Y-85360227D01*
X100328387Y-85368079D01*
X100349457Y-85378044D01*
X100369448Y-85390026D01*
X100388168Y-85403910D01*
X100405438Y-85419562D01*
X100421090Y-85436832D01*
X100434974Y-85455552D01*
X100446956Y-85475543D01*
X100456921Y-85496613D01*
X100464773Y-85518557D01*
X100470437Y-85541166D01*
X100473856Y-85564221D01*
X100475000Y-85587500D01*
X100475000Y-86162500D01*
X100473856Y-86185779D01*
X100470437Y-86208834D01*
X100464773Y-86231443D01*
X100456921Y-86253387D01*
X100446956Y-86274457D01*
X100434974Y-86294448D01*
X100421090Y-86313168D01*
X100405438Y-86330438D01*
X100388168Y-86346090D01*
X100369448Y-86359974D01*
X100349457Y-86371956D01*
X100328387Y-86381921D01*
X100306443Y-86389773D01*
X100283834Y-86395437D01*
X100260779Y-86398856D01*
X100237500Y-86400000D01*
X99762500Y-86400000D01*
X99739221Y-86398856D01*
X99716166Y-86395437D01*
X99693557Y-86389773D01*
X99671613Y-86381921D01*
X99650543Y-86371956D01*
X99630552Y-86359974D01*
X99611832Y-86346090D01*
X99594562Y-86330438D01*
X99578910Y-86313168D01*
X99565026Y-86294448D01*
X99553044Y-86274457D01*
X99543079Y-86253387D01*
X99535227Y-86231443D01*
X99529563Y-86208834D01*
X99526144Y-86185779D01*
X99525000Y-86162500D01*
X99525000Y-85587500D01*
X99526144Y-85564221D01*
X99529563Y-85541166D01*
X99535227Y-85518557D01*
X99543079Y-85496613D01*
X99553044Y-85475543D01*
X99565026Y-85455552D01*
X99578910Y-85436832D01*
X99594562Y-85419562D01*
X99611832Y-85403910D01*
X99630552Y-85390026D01*
X99650543Y-85378044D01*
X99671613Y-85368079D01*
X99693557Y-85360227D01*
X99716166Y-85354563D01*
X99739221Y-85351144D01*
X99762500Y-85350000D01*
X100237500Y-85350000D01*
X100260779Y-85351144D01*
X100260779Y-85351144D01*
G37*
D15*
X100000000Y-85875000D03*
D14*
G36*
X100260779Y-83601144D02*
G01*
X100283834Y-83604563D01*
X100306443Y-83610227D01*
X100328387Y-83618079D01*
X100349457Y-83628044D01*
X100369448Y-83640026D01*
X100388168Y-83653910D01*
X100405438Y-83669562D01*
X100421090Y-83686832D01*
X100434974Y-83705552D01*
X100446956Y-83725543D01*
X100456921Y-83746613D01*
X100464773Y-83768557D01*
X100470437Y-83791166D01*
X100473856Y-83814221D01*
X100475000Y-83837500D01*
X100475000Y-84412500D01*
X100473856Y-84435779D01*
X100470437Y-84458834D01*
X100464773Y-84481443D01*
X100456921Y-84503387D01*
X100446956Y-84524457D01*
X100434974Y-84544448D01*
X100421090Y-84563168D01*
X100405438Y-84580438D01*
X100388168Y-84596090D01*
X100369448Y-84609974D01*
X100349457Y-84621956D01*
X100328387Y-84631921D01*
X100306443Y-84639773D01*
X100283834Y-84645437D01*
X100260779Y-84648856D01*
X100237500Y-84650000D01*
X99762500Y-84650000D01*
X99739221Y-84648856D01*
X99716166Y-84645437D01*
X99693557Y-84639773D01*
X99671613Y-84631921D01*
X99650543Y-84621956D01*
X99630552Y-84609974D01*
X99611832Y-84596090D01*
X99594562Y-84580438D01*
X99578910Y-84563168D01*
X99565026Y-84544448D01*
X99553044Y-84524457D01*
X99543079Y-84503387D01*
X99535227Y-84481443D01*
X99529563Y-84458834D01*
X99526144Y-84435779D01*
X99525000Y-84412500D01*
X99525000Y-83837500D01*
X99526144Y-83814221D01*
X99529563Y-83791166D01*
X99535227Y-83768557D01*
X99543079Y-83746613D01*
X99553044Y-83725543D01*
X99565026Y-83705552D01*
X99578910Y-83686832D01*
X99594562Y-83669562D01*
X99611832Y-83653910D01*
X99630552Y-83640026D01*
X99650543Y-83628044D01*
X99671613Y-83618079D01*
X99693557Y-83610227D01*
X99716166Y-83604563D01*
X99739221Y-83601144D01*
X99762500Y-83600000D01*
X100237500Y-83600000D01*
X100260779Y-83601144D01*
X100260779Y-83601144D01*
G37*
D15*
X100000000Y-84125000D03*
D19*
X105340000Y-64850000D03*
X105340000Y-68750000D03*
X104070000Y-64850000D03*
X104070000Y-68750000D03*
X102800000Y-64850000D03*
X102800000Y-68750000D03*
X101530000Y-64850000D03*
X101530000Y-68750000D03*
X100260000Y-64850000D03*
X100260000Y-68750000D03*
D14*
G36*
X104474505Y-85451204D02*
G01*
X104498773Y-85454804D01*
X104522572Y-85460765D01*
X104545671Y-85469030D01*
X104567850Y-85479520D01*
X104588893Y-85492132D01*
X104608599Y-85506747D01*
X104626777Y-85523223D01*
X104643253Y-85541401D01*
X104657868Y-85561107D01*
X104670480Y-85582150D01*
X104680970Y-85604329D01*
X104689235Y-85627428D01*
X104695196Y-85651227D01*
X104698796Y-85675495D01*
X104700000Y-85699999D01*
X104700000Y-86350001D01*
X104698796Y-86374505D01*
X104695196Y-86398773D01*
X104689235Y-86422572D01*
X104680970Y-86445671D01*
X104670480Y-86467850D01*
X104657868Y-86488893D01*
X104643253Y-86508599D01*
X104626777Y-86526777D01*
X104608599Y-86543253D01*
X104588893Y-86557868D01*
X104567850Y-86570480D01*
X104545671Y-86580970D01*
X104522572Y-86589235D01*
X104498773Y-86595196D01*
X104474505Y-86598796D01*
X104450001Y-86600000D01*
X103549999Y-86600000D01*
X103525495Y-86598796D01*
X103501227Y-86595196D01*
X103477428Y-86589235D01*
X103454329Y-86580970D01*
X103432150Y-86570480D01*
X103411107Y-86557868D01*
X103391401Y-86543253D01*
X103373223Y-86526777D01*
X103356747Y-86508599D01*
X103342132Y-86488893D01*
X103329520Y-86467850D01*
X103319030Y-86445671D01*
X103310765Y-86422572D01*
X103304804Y-86398773D01*
X103301204Y-86374505D01*
X103300000Y-86350001D01*
X103300000Y-85699999D01*
X103301204Y-85675495D01*
X103304804Y-85651227D01*
X103310765Y-85627428D01*
X103319030Y-85604329D01*
X103329520Y-85582150D01*
X103342132Y-85561107D01*
X103356747Y-85541401D01*
X103373223Y-85523223D01*
X103391401Y-85506747D01*
X103411107Y-85492132D01*
X103432150Y-85479520D01*
X103454329Y-85469030D01*
X103477428Y-85460765D01*
X103501227Y-85454804D01*
X103525495Y-85451204D01*
X103549999Y-85450000D01*
X104450001Y-85450000D01*
X104474505Y-85451204D01*
X104474505Y-85451204D01*
G37*
D18*
X104000000Y-86025000D03*
D14*
G36*
X104474505Y-83401204D02*
G01*
X104498773Y-83404804D01*
X104522572Y-83410765D01*
X104545671Y-83419030D01*
X104567850Y-83429520D01*
X104588893Y-83442132D01*
X104608599Y-83456747D01*
X104626777Y-83473223D01*
X104643253Y-83491401D01*
X104657868Y-83511107D01*
X104670480Y-83532150D01*
X104680970Y-83554329D01*
X104689235Y-83577428D01*
X104695196Y-83601227D01*
X104698796Y-83625495D01*
X104700000Y-83649999D01*
X104700000Y-84300001D01*
X104698796Y-84324505D01*
X104695196Y-84348773D01*
X104689235Y-84372572D01*
X104680970Y-84395671D01*
X104670480Y-84417850D01*
X104657868Y-84438893D01*
X104643253Y-84458599D01*
X104626777Y-84476777D01*
X104608599Y-84493253D01*
X104588893Y-84507868D01*
X104567850Y-84520480D01*
X104545671Y-84530970D01*
X104522572Y-84539235D01*
X104498773Y-84545196D01*
X104474505Y-84548796D01*
X104450001Y-84550000D01*
X103549999Y-84550000D01*
X103525495Y-84548796D01*
X103501227Y-84545196D01*
X103477428Y-84539235D01*
X103454329Y-84530970D01*
X103432150Y-84520480D01*
X103411107Y-84507868D01*
X103391401Y-84493253D01*
X103373223Y-84476777D01*
X103356747Y-84458599D01*
X103342132Y-84438893D01*
X103329520Y-84417850D01*
X103319030Y-84395671D01*
X103310765Y-84372572D01*
X103304804Y-84348773D01*
X103301204Y-84324505D01*
X103300000Y-84300001D01*
X103300000Y-83649999D01*
X103301204Y-83625495D01*
X103304804Y-83601227D01*
X103310765Y-83577428D01*
X103319030Y-83554329D01*
X103329520Y-83532150D01*
X103342132Y-83511107D01*
X103356747Y-83491401D01*
X103373223Y-83473223D01*
X103391401Y-83456747D01*
X103411107Y-83442132D01*
X103432150Y-83429520D01*
X103454329Y-83419030D01*
X103477428Y-83410765D01*
X103501227Y-83404804D01*
X103525495Y-83401204D01*
X103549999Y-83400000D01*
X104450001Y-83400000D01*
X104474505Y-83401204D01*
X104474505Y-83401204D01*
G37*
D18*
X104000000Y-83975000D03*
M02*
