M48
; DRILL file {KiCad (5.1.2-1)-1} date 2019 August 31, Saturday 04:19:35
; FORMAT={-:-/ absolute / inch / decimal}
; #@! TF.CreationDate,2019-08-31T04:19:35+09:00
; #@! TF.GenerationSoftware,Kicad,Pcbnew,(5.1.2-1)-1
FMAT,2
INCH
T1C0.0157
T2C0.0394
T3C0.1260
%
G90
G05
T1
X3.6024Y-2.7362
X3.6417Y-2.4606
X3.6417Y-3.2677
X3.6417Y-3.5433
X3.7165Y-2.752
X3.7402Y-2.4606
X3.8071Y-2.7087
X3.8386Y-3.5433
X3.8583Y-2.6614
X3.8583Y-2.7087
X3.8583Y-3.4449
X3.8937Y-2.7362
X4.0354Y-3.5433
X4.0945Y-3.2382
X4.1654Y-3.3061
X4.1732Y-2.8583
X4.1732Y-3.1693
X4.1732Y-3.2382
X4.1732Y-3.3858
X4.2323Y-2.4606
X4.2323Y-2.7559
X4.2323Y-3.3858
X4.2323Y-3.5433
X4.2638Y-3.0167
X4.2717Y-2.9331
X4.2953Y-3.1299
X4.2953Y-3.2874
X4.3898Y-2.7559
X4.4094Y-2.4606
X4.4291Y-3.5433
X4.5079Y-3.1102
X4.5079Y-3.2677
X4.5276Y-2.4606
X4.6063Y-2.8543
X4.626Y-3.5433
X4.6654Y-2.9528
X4.7244Y-2.4606
X4.7244Y-3.5433
X4.7441Y-2.7165
X4.7441Y-3.2874
T2
X3.8583Y-2.4173
X3.9583Y-2.4173
X4.0583Y-2.4173
X4.1583Y-2.4173
X4.7441Y-2.802
X4.7441Y-2.902
X4.7441Y-3.002
X4.7441Y-3.102
X4.7441Y-3.202
X4.3819Y-2.6181
X4.4606Y-2.6181
T3
X4.685Y-3.4055
X3.6614Y-3.3858
X3.6614Y-2.5984
X4.685Y-2.5984
X3.6614Y-2.5984
T0
M30
